SourceSerif_1.ufo
<glyph name="exclam" format="2">
	<unicode hex="0021"/>
	<advance width="286"/>
	<outline>
		<contour>
			<point x="143" y="-13" type="curve" smooth="yes"/>
			<point x="178" y="-13"/>
			<point x="206" y="16"/>
			<point x="206" y="50" type="curve" smooth="yes"/>
			<point x="206" y="84"/>
			<point x="178" y="114"/>
			<point x="143" y="114" type="curve" smooth="yes"/>
			<point x="108" y="114"/>
			<point x="80" y="84"/>
			<point x="80" y="50" type="curve" smooth="yes"/>
			<point x="80" y="16"/>
			<point x="108" y="-13"/>
		</contour>
		<contour>
			<point x="143" y="685" type="curve" smooth="yes"/>
			<point x="109" y="685"/>
			<point x="88" y="667"/>
			<point x="88" y="624" type="curve" smooth="yes"/>
			<point x="88" y="587"/>
			<point x="99" y="492"/>
			<point x="112" y="352" type="curve" smooth="yes"/>
			<point x="125" y="213" type="line"/>
			<point x="161" y="213" type="line"/>
			<point x="174" y="352" type="line" smooth="yes"/>
			<point x="187" y="492"/>
			<point x="198" y="587"/>
			<point x="198" y="624" type="curve" smooth="yes"/>
			<point x="198" y="667"/>
			<point x="177" y="685"/>
		</contour>
	</outline>
</glyph>
<glyph name="numbersign" format="2">
	<unicode hex="0023"/>
	<advance width="524"/>
	<outline>
		<contour>
			<point x="88" y="0" type="line"/>
			<point x="133" y="0" type="line"/>
			<point x="233" y="650" type="line"/>
			<point x="188" y="650" type="line"/>
		</contour>
		<contour>
			<point x="25" y="261" type="line"/>
			<point x="25" y="181" type="line"/>
			<point x="467" y="181" type="line"/>
			<point x="467" y="261" type="line"/>
		</contour>
		<contour>
			<point x="499" y="392" type="line"/>
			<point x="499" y="472" type="line"/>
			<point x="57" y="472" type="line"/>
			<point x="57" y="392" type="line"/>
		</contour>
		<contour>
			<point x="292" y="0" type="line"/>
			<point x="337" y="0" type="line"/>
			<point x="437" y="650" type="line"/>
			<point x="392" y="650" type="line"/>
		</contour>
	</outline>
</glyph>
<glyph name="zero" format="2">
	<unicode hex="0030"/>
	<advance width="497"/>
	<outline>
		<contour>
			<point x="130" y="322" type="curve" smooth="yes"/>
			<point x="130" y="557"/>
			<point x="187" y="615"/>
			<point x="250" y="615" type="curve" smooth="yes"/>
			<point x="311" y="615"/>
			<point x="368" y="556"/>
			<point x="368" y="322" type="curve" smooth="yes"/>
			<point x="368" y="91"/>
			<point x="311" y="32"/>
			<point x="250" y="32" type="curve" smooth="yes"/>
			<point x="187" y="32"/>
			<point x="130" y="90"/>
		</contour>
		<contour>
			<point x="250" y="660" type="curve" smooth="yes"/>
			<point x="144" y="660"/>
			<point x="41" y="571"/>
			<point x="41" y="322" type="curve" smooth="yes"/>
			<point x="41" y="74"/>
			<point x="144" y="-13"/>
			<point x="250" y="-13" type="curve" smooth="yes"/>
			<point x="354" y="-13"/>
			<point x="457" y="74"/>
			<point x="457" y="322" type="curve" smooth="yes"/>
			<point x="457" y="571"/>
			<point x="354" y="660"/>
		</contour>
	</outline>
</glyph>
<glyph name="less" format="2">
	<unicode hex="003C"/>
	<advance width="530"/>
	<outline>
		<contour>
			<point x="58" y="307" type="line"/>
			<point x="443" y="82" type="line"/>
			<point x="472" y="134" type="line"/>
			<point x="116" y="335" type="line"/>
			<point x="116" y="325" type="line"/>
			<point x="472" y="526" type="line"/>
			<point x="443" y="578" type="line"/>
			<point x="58" y="353" type="line"/>
		</contour>
	</outline>
</glyph>
<glyph name="question" format="2">
	<unicode hex="003F"/>
	<advance width="414"/>
	<outline>
		<contour>
			<point x="148" y="-13" type="curve" smooth="yes"/>
			<point x="183" y="-13"/>
			<point x="211" y="16"/>
			<point x="211" y="50" type="curve" smooth="yes"/>
			<point x="211" y="84"/>
			<point x="183" y="114"/>
			<point x="148" y="114" type="curve" smooth="yes"/>
			<point x="113" y="114"/>
			<point x="85" y="84"/>
			<point x="85" y="50" type="curve" smooth="yes"/>
			<point x="85" y="16"/>
			<point x="113" y="-13"/>
		</contour>
		<contour>
			<point x="347" y="462" type="curve" smooth="yes"/>
			<point x="347" y="592"/>
			<point x="203" y="677"/>
			<point x="120" y="685" type="curve"/>
			<point x="84" y="676"/>
			<point x="66" y="661"/>
			<point x="66" y="631" type="curve" smooth="yes"/>
			<point x="66" y="607"/>
			<point x="78" y="589"/>
			<point x="137" y="578" type="curve" smooth="yes"/>
			<point x="322" y="545" type="line"/>
			<point x="213" y="616" type="line"/>
			<point x="254" y="579"/>
			<point x="294" y="527"/>
			<point x="294" y="478" type="curve" smooth="yes"/>
			<point x="294" y="444"/>
			<point x="274" y="420"/>
			<point x="237" y="408" type="curve" smooth="yes"/>
			<point x="182" y="390" type="line" smooth="yes"/>
			<point x="122" y="371"/>
			<point x="102" y="353"/>
			<point x="102" y="324" type="curve" smooth="yes"/>
			<point x="102" y="312"/>
			<point x="105" y="294"/>
			<point x="117" y="254" type="curve" smooth="yes"/>
			<point x="130" y="212" type="line"/>
			<point x="167" y="212" type="line"/>
			<point x="167" y="269" type="line" smooth="yes"/>
			<point x="167" y="302"/>
			<point x="172" y="311"/>
			<point x="215" y="325" type="curve" smooth="yes"/>
			<point x="248" y="336" type="line" smooth="yes"/>
			<point x="315" y="358"/>
			<point x="347" y="400"/>
		</contour>
	</outline>
</glyph>
<glyph name="at" format="2">
	<unicode hex="0040"/>
	<advance width="832"/>
	<outline>
		<contour>
			<point x="338" y="47" type="curve" smooth="yes"/>
			<point x="406" y="47"/>
			<point x="461" y="107"/>
			<point x="516" y="177" type="curve"/>
			<point x="511" y="192" type="line"/>
			<point x="438" y="124"/>
			<point x="403" y="105"/>
			<point x="367" y="105" type="curve" smooth="yes"/>
			<point x="319" y="105"/>
			<point x="297" y="137"/>
			<point x="297" y="201" type="curve" smooth="yes"/>
			<point x="297" y="342"/>
			<point x="390" y="429"/>
			<point x="455" y="429" type="curve" smooth="yes"/>
			<point x="484" y="429"/>
			<point x="510" y="414"/>
			<point x="535" y="368" type="curve"/>
			<point x="564" y="414" type="line"/>
			<point x="529" y="460"/>
			<point x="500" y="474"/>
			<point x="464" y="474" type="curve" smooth="yes"/>
			<point x="353" y="474"/>
			<point x="231" y="325"/>
			<point x="231" y="177" type="curve" smooth="yes"/>
			<point x="231" y="85"/>
			<point x="284" y="47"/>
		</contour>
		<contour>
			<point x="582" y="47" type="curve" smooth="yes"/>
			<point x="667" y="47"/>
			<point x="797" y="130"/>
			<point x="797" y="323" type="curve" smooth="yes"/>
			<point x="797" y="521"/>
			<point x="676" y="660"/>
			<point x="473" y="660" type="curve" smooth="yes"/>
			<point x="228" y="660"/>
			<point x="35" y="462"/>
			<point x="35" y="205" type="curve" smooth="yes"/>
			<point x="35" y="-35"/>
			<point x="197" y="-155"/>
			<point x="397" y="-155" type="curve" smooth="yes"/>
			<point x="455" y="-155"/>
			<point x="526" y="-143"/>
			<point x="584" y="-113" type="curve"/>
			<point x="572" y="-84" type="line"/>
			<point x="528" y="-105"/>
			<point x="479" y="-115"/>
			<point x="418" y="-115" type="curve" smooth="yes"/>
			<point x="247" y="-115"/>
			<point x="95" y="-9"/>
			<point x="95" y="213" type="curve" smooth="yes"/>
			<point x="95" y="428"/>
			<point x="248" y="620"/>
			<point x="467" y="620" type="curve" smooth="yes"/>
			<point x="621" y="620"/>
			<point x="739" y="514"/>
			<point x="739" y="333" type="curve" smooth="yes"/>
			<point x="739" y="161"/>
			<point x="662" y="93"/>
			<point x="593" y="93" type="curve" smooth="yes"/>
			<point x="549" y="93"/>
			<point x="528" y="122"/>
			<point x="538" y="171" type="curve" smooth="yes"/>
			<point x="596" y="458" type="line"/>
			<point x="577" y="474" type="line"/>
			<point x="528" y="450" type="line"/>
			<point x="471" y="153" type="line"/>
			<point x="475" y="138" type="line"/>
			<point x="479" y="87"/>
			<point x="516" y="47"/>
		</contour>
	</outline>
</glyph>
<glyph name="B" format="2">
	<unicode hex="0042"/>
	<advance width="628"/>
	<outline>
		<contour>
			<point x="140" y="310" type="line" smooth="yes"/>
			<point x="140" y="205"/>
			<point x="140" y="101"/>
			<point x="137" y="0" type="curve"/>
			<point x="233" y="0" type="line"/>
			<point x="230" y="103"/>
			<point x="230" y="207"/>
			<point x="230" y="325" type="curve" smooth="yes"/>
			<point x="230" y="360" type="line" smooth="yes"/>
			<point x="230" y="465"/>
			<point x="230" y="569"/>
			<point x="233" y="670" type="curve"/>
			<point x="137" y="670" type="line"/>
			<point x="140" y="567"/>
			<point x="140" y="463"/>
			<point x="140" y="360" type="curve" smooth="yes"/>
		</contour>
		<contour>
			<point x="175" y="615" type="line"/>
			<point x="185" y="615" type="line"/>
			<point x="185" y="670" type="line"/>
			<point x="45" y="670" type="line"/>
			<point x="45" y="630" type="line"/>
		</contour>
		<contour>
			<point x="175" y="55" type="line"/>
			<point x="45" y="40" type="line"/>
			<point x="45" y="0" type="line"/>
			<point x="185" y="0" type="line"/>
			<point x="185" y="55" type="line"/>
		</contour>
		<contour>
			<point x="185" y="323" type="line"/>
			<point x="287" y="323" type="line" smooth="yes"/>
			<point x="427" y="323"/>
			<point x="488" y="276"/>
			<point x="488" y="183" type="curve" smooth="yes"/>
			<point x="488" y="95"/>
			<point x="425" y="46"/>
			<point x="295" y="46" type="curve" smooth="yes"/>
			<point x="185" y="46" type="line"/>
			<point x="185" y="0" type="line"/>
			<point x="319" y="0" type="line" smooth="yes"/>
			<point x="508" y="0"/>
			<point x="583" y="92"/>
			<point x="583" y="183" type="curve" smooth="yes"/>
			<point x="583" y="269"/>
			<point x="519" y="339"/>
			<point x="363" y="352" type="curve"/>
			<point x="363" y="343" type="line"/>
			<point x="496" y="359"/>
			<point x="550" y="428"/>
			<point x="550" y="506" type="curve" smooth="yes"/>
			<point x="550" y="602"/>
			<point x="470" y="670"/>
			<point x="333" y="670" type="curve" smooth="yes"/>
			<point x="185" y="670" type="line"/>
			<point x="185" y="624" type="line"/>
			<point x="304" y="624" type="line" smooth="yes"/>
			<point x="407" y="624"/>
			<point x="460" y="592"/>
			<point x="460" y="500" type="curve" smooth="yes"/>
			<point x="460" y="408"/>
			<point x="407" y="369"/>
			<point x="284" y="369" type="curve" smooth="yes"/>
			<point x="185" y="369" type="line"/>
		</contour>
	</outline>
	<anchor name="aboveUC" x="300" y="691"/>
	<anchor name="belowLC" x="330" y="-22"/>
</glyph>
<glyph name="C" format="2">
	<unicode hex="0043"/>
	<advance width="632"/>
	<outline>
		<contour>
			<point x="48" y="131"/>
			<point x="184" y="-15"/>
			<point x="386" y="-15" type="curve" smooth="yes"/>
			<point x="456" y="-15"/>
			<point x="525" y="-1"/>
			<point x="588" y="33" type="curve"/>
			<point x="592" y="178" type="line"/>
			<point x="531" y="178" type="line"/>
			<point x="506" y="30" type="line"/>
			<point x="568" y="44" type="line"/>
			<point x="568" y="99" type="line"/>
			<point x="511" y="52"/>
			<point x="447" y="35"/>
			<point x="390" y="35" type="curve" smooth="yes"/>
			<point x="251" y="35"/>
			<point x="153" y="140"/>
			<point x="153" y="335" type="curve" smooth="yes"/>
			<point x="153" y="530"/>
			<point x="262" y="635"/>
			<point x="397" y="635" type="curve" smooth="yes"/>
			<point x="445" y="635"/>
			<point x="501" y="618"/>
			<point x="558" y="565" type="curve"/>
			<point x="558" y="626" type="line"/>
			<point x="496" y="640" type="line"/>
			<point x="521" y="492" type="line"/>
			<point x="582" y="492" type="line"/>
			<point x="578" y="637" type="line"/>
			<point x="510" y="676"/>
			<point x="439" y="685"/>
			<point x="385" y="685" type="curve" smooth="yes"/>
			<point x="190" y="685"/>
			<point x="48" y="535"/>
			<point x="48" y="335" type="curve" smooth="yes"/>
		</contour>
	</outline>
	<anchor name="aboveUC" x="371" y="691"/>
	<anchor name="belowLC" x="378" y="-22"/>
	<anchor name="baseLC" x="379" y="0"/>
</glyph>
<glyph name="D" format="2">
	<unicode hex="0044"/>
	<advance width="710"/>
	<outline>
		<contour>
			<point x="45" y="0" type="line"/>
			<point x="185" y="0" type="line"/>
			<point x="185" y="55" type="line"/>
			<point x="175" y="55" type="line"/>
			<point x="45" y="40" type="line"/>
		</contour>
		<contour>
			<point x="137" y="0" type="curve"/>
			<point x="233" y="0" type="line"/>
			<point x="230" y="103"/>
			<point x="230" y="207"/>
			<point x="230" y="322" type="curve" smooth="yes"/>
			<point x="230" y="360" type="line" smooth="yes"/>
			<point x="230" y="465"/>
			<point x="230" y="569"/>
			<point x="233" y="670" type="curve"/>
			<point x="137" y="670" type="line"/>
			<point x="140" y="567"/>
			<point x="140" y="463"/>
			<point x="140" y="360" type="curve" smooth="yes"/>
			<point x="140" y="322" type="line" smooth="yes"/>
			<point x="140" y="205"/>
			<point x="140" y="101"/>
		</contour>
		<contour>
			<point x="185" y="0" type="line"/>
			<point x="320" y="0" type="line" smooth="yes"/>
			<point x="514" y="0"/>
			<point x="662" y="118"/>
			<point x="662" y="334" type="curve" smooth="yes"/>
			<point x="662" y="552"/>
			<point x="530" y="670"/>
			<point x="340" y="670" type="curve" smooth="yes"/>
			<point x="185" y="670" type="line"/>
			<point x="185" y="624" type="line"/>
			<point x="323" y="624" type="line" smooth="yes"/>
			<point x="471" y="624"/>
			<point x="557" y="523"/>
			<point x="557" y="334" type="curve" smooth="yes"/>
			<point x="557" y="152"/>
			<point x="471" y="46"/>
			<point x="314" y="46" type="curve" smooth="yes"/>
			<point x="185" y="46" type="line"/>
		</contour>
		<contour>
			<point x="45" y="630" type="line"/>
			<point x="175" y="615" type="line"/>
			<point x="185" y="615" type="line"/>
			<point x="185" y="670" type="line"/>
			<point x="45" y="670" type="line"/>
		</contour>
	</outline>
	<anchor name="aboveUC" x="331" y="691"/>
	<anchor name="belowLC" x="333" y="-22"/>
</glyph>
<glyph name="E" format="1">
	<unicode hex="0045"/>
	<advance width="604"/>
	<outline>
		<contour>
			<point x="175" y="615" type="line"/>
			<point x="185" y="615" type="line"/>
			<point x="185" y="670" type="line"/>
			<point x="45" y="670" type="line"/>
			<point x="45" y="630" type="line"/>
		</contour>
		<contour>
			<point x="175" y="55" type="line"/>
			<point x="45" y="40" type="line"/>
			<point x="45" y="0" type="line"/>
			<point x="185" y="0" type="line"/>
			<point x="185" y="55" type="line"/>
		</contour>
		<contour>
			<point x="140" y="310" type="line" smooth="yes"/>
			<point x="140" y="205"/>
			<point x="140" y="101"/>
			<point x="137" y="0" type="curve"/>
			<point x="233" y="0" type="line"/>
			<point x="230" y="103"/>
			<point x="230" y="207"/>
			<point x="230" y="322" type="curve" smooth="yes"/>
			<point x="230" y="360" type="line" smooth="yes"/>
			<point x="230" y="465"/>
			<point x="230" y="569"/>
			<point x="233" y="670" type="curve"/>
			<point x="137" y="670" type="line"/>
			<point x="140" y="567"/>
			<point x="140" y="463"/>
			<point x="140" y="360" type="curve" smooth="yes"/>
		</contour>
		<contour>
			<point x="379" y="335" type="line"/>
			<point x="394" y="224" type="line"/>
			<point x="439" y="224" type="line"/>
			<point x="439" y="461" type="line"/>
			<point x="394" y="461" type="line"/>
			<point x="379" y="355" type="line"/>
		</contour>
		<contour>
			<point x="411" y="365" type="line"/>
			<point x="185" y="365" type="line"/>
			<point x="185" y="319" type="line"/>
			<point x="411" y="319" type="line"/>
		</contour>
		<contour>
			<point x="493" y="492" type="line"/>
			<point x="549" y="492" type="line"/>
			<point x="542" y="670" type="line"/>
			<point x="185" y="670" type="line"/>
			<point x="185" y="620" type="line"/>
			<point x="471" y="620" type="line"/>
		</contour>
		<contour>
			<point x="513" y="178" type="line"/>
			<point x="491" y="50" type="line"/>
			<point x="185" y="50" type="line"/>
			<point x="185" y="0" type="line"/>
			<point x="562" y="0" type="line"/>
			<point x="569" y="178" type="line"/>
		</contour>
		<contour>
			<point name="aboveUC" x="327" y="691" type="move"/>
		</contour>
		<contour>
			<point name="belowLC" x="352" y="-22" type="move"/>
		</contour>
		<contour>
			<point name="ogonek" x="482" y="0" type="move"/>
		</contour>
	</outline>
</glyph>
<glyph name="F" format="2">
	<unicode hex="0046"/>
	<advance width="579"/>
	<outline>
		<contour>
			<point x="45" y="0" type="line"/>
			<point x="325" y="0" type="line"/>
			<point x="325" y="40" type="line"/>
			<point x="195" y="55" type="line"/>
			<point x="175" y="55" type="line"/>
			<point x="45" y="40" type="line"/>
		</contour>
		<contour>
			<point x="140" y="205"/>
			<point x="140" y="101"/>
			<point x="137" y="0" type="curve"/>
			<point x="233" y="0" type="line"/>
			<point x="230" y="103"/>
			<point x="230" y="207"/>
			<point x="230" y="322" type="curve" smooth="yes"/>
			<point x="230" y="360" type="line" smooth="yes"/>
			<point x="230" y="465"/>
			<point x="230" y="569"/>
			<point x="233" y="670" type="curve"/>
			<point x="137" y="670" type="line"/>
			<point x="140" y="567"/>
			<point x="140" y="463"/>
			<point x="140" y="360" type="curve" smooth="yes"/>
			<point x="140" y="310" type="line" smooth="yes"/>
		</contour>
		<contour>
			<point x="185" y="319" type="line"/>
			<point x="419" y="319" type="line"/>
			<point x="419" y="365" type="line"/>
			<point x="185" y="365" type="line"/>
		</contour>
		<contour>
			<point x="402" y="214" type="line"/>
			<point x="447" y="214" type="line"/>
			<point x="447" y="461" type="line"/>
			<point x="402" y="461" type="line"/>
			<point x="387" y="355" type="line"/>
			<point x="387" y="325" type="line"/>
		</contour>
		<contour>
			<point x="45" y="630" type="line"/>
			<point x="175" y="615" type="line"/>
			<point x="185" y="615" type="line"/>
			<point x="185" y="670" type="line"/>
			<point x="45" y="670" type="line"/>
		</contour>
		<contour>
			<point x="493" y="492" type="line"/>
			<point x="549" y="492" type="line"/>
			<point x="542" y="670" type="line"/>
			<point x="185" y="670" type="line"/>
			<point x="185" y="620" type="line"/>
			<point x="501" y="620" type="line"/>
			<point x="466" y="650" type="line"/>
		</contour>
	</outline>
	<anchor name="aboveUC" x="332" y="691"/>
	<anchor name="belowLC" x="183" y="-22"/>
</glyph>
<glyph name="G" format="2">
	<unicode hex="0047"/>
	<advance width="682"/>
	<outline>
		<contour>
			<point x="48" y="134"/>
			<point x="184" y="-15"/>
			<point x="384" y="-15" type="curve" smooth="yes"/>
			<point x="467" y="-15"/>
			<point x="535" y="8"/>
			<point x="604" y="44" type="curve"/>
			<point x="604" y="88" type="line" smooth="yes"/>
			<point x="604" y="166"/>
			<point x="605" y="243"/>
			<point x="607" y="318" type="curve"/>
			<point x="511" y="318" type="line"/>
			<point x="513" y="242"/>
			<point x="514" y="164"/>
			<point x="514" y="88" type="curve" smooth="yes"/>
			<point x="514" y="30" type="line"/>
			<point x="559" y="77" type="line"/>
			<point x="502" y="49"/>
			<point x="460" y="36"/>
			<point x="403" y="36" type="curve" smooth="yes"/>
			<point x="247" y="36"/>
			<point x="153" y="145"/>
			<point x="153" y="335" type="curve" smooth="yes"/>
			<point x="153" y="526"/>
			<point x="256" y="635"/>
			<point x="396" y="635" type="curve" smooth="yes"/>
			<point x="460" y="635"/>
			<point x="515" y="613"/>
			<point x="569" y="563" type="curve"/>
			<point x="569" y="620" type="line"/>
			<point x="507" y="640" type="line"/>
			<point x="532" y="492" type="line"/>
			<point x="593" y="492" type="line"/>
			<point x="589" y="637" type="line"/>
			<point x="533" y="670"/>
			<point x="471" y="685"/>
			<point x="388" y="685" type="curve" smooth="yes"/>
			<point x="185" y="685"/>
			<point x="48" y="536"/>
			<point x="48" y="335" type="curve" smooth="yes"/>
		</contour>
		<contour>
			<point x="407" y="278" type="line"/>
			<point x="537" y="268" type="line"/>
			<point x="557" y="268" type="line"/>
			<point x="667" y="278" type="line"/>
			<point x="667" y="318" type="line"/>
			<point x="407" y="318" type="line"/>
		</contour>
	</outline>
	<anchor name="aboveUC" x="379" y="691"/>
	<anchor name="belowLC" x="394" y="-22"/>
</glyph>
<glyph name="H" format="2">
	<unicode hex="0048"/>
	<advance width="790"/>
	<outline>
		<contour>
			<point x="595" y="615" type="line"/>
			<point x="615" y="615" type="line"/>
			<point x="745" y="630" type="line"/>
			<point x="745" y="670" type="line"/>
			<point x="465" y="670" type="line"/>
			<point x="465" y="630" type="line"/>
		</contour>
		<contour>
			<point x="595" y="55" type="line"/>
			<point x="465" y="40" type="line"/>
			<point x="465" y="0" type="line"/>
			<point x="745" y="0" type="line"/>
			<point x="745" y="40" type="line"/>
			<point x="615" y="55" type="line"/>
		</contour>
		<contour>
			<point x="560" y="330" type="line" smooth="yes"/>
			<point x="560" y="205"/>
			<point x="560" y="101"/>
			<point x="557" y="0" type="curve"/>
			<point x="653" y="0" type="line"/>
			<point x="650" y="103"/>
			<point x="650" y="207"/>
			<point x="650" y="310" type="curve" smooth="yes"/>
			<point x="650" y="360" type="line" smooth="yes"/>
			<point x="650" y="465"/>
			<point x="650" y="569"/>
			<point x="653" y="670" type="curve"/>
			<point x="557" y="670" type="line"/>
			<point x="560" y="567"/>
			<point x="560" y="463"/>
			<point x="560" y="360" type="curve" smooth="yes"/>
		</contour>
		<contour>
			<point x="140" y="310" type="line" smooth="yes"/>
			<point x="140" y="205"/>
			<point x="140" y="101"/>
			<point x="137" y="0" type="curve"/>
			<point x="233" y="0" type="line"/>
			<point x="230" y="103"/>
			<point x="230" y="207"/>
			<point x="230" y="330" type="curve" smooth="yes"/>
			<point x="230" y="360" type="line" smooth="yes"/>
			<point x="230" y="465"/>
			<point x="230" y="569"/>
			<point x="233" y="670" type="curve"/>
			<point x="137" y="670" type="line"/>
			<point x="140" y="567"/>
			<point x="140" y="463"/>
			<point x="140" y="360" type="curve" smooth="yes"/>
		</contour>
		<contour>
			<point x="175" y="615" type="line"/>
			<point x="195" y="615" type="line"/>
			<point x="325" y="630" type="line"/>
			<point x="325" y="670" type="line"/>
			<point x="45" y="670" type="line"/>
			<point x="45" y="630" type="line"/>
		</contour>
		<contour>
			<point x="175" y="55" type="line"/>
			<point x="45" y="40" type="line"/>
			<point x="45" y="0" type="line"/>
			<point x="325" y="0" type="line"/>
			<point x="325" y="40" type="line"/>
			<point x="195" y="55" type="line"/>
		</contour>
		<contour>
			<point x="605" y="320" type="line"/>
			<point x="605" y="366" type="line"/>
			<point x="185" y="366" type="line"/>
			<point x="185" y="320" type="line"/>
		</contour>
	</outline>
	<anchor name="aboveUC" x="395" y="691"/>
	<anchor name="belowLC" x="395" y="-22"/>
</glyph>
<glyph name="J" format="2">
	<unicode hex="004A"/>
	<advance width="373"/>
	<outline>
		<contour>
			<point x="150" y="670" type="line"/>
			<point x="155" y="169"/>
			<point x="160" y="65"/>
			<point x="160" y="5" type="curve" smooth="yes"/>
			<point x="160" y="-58"/>
			<point x="147" y="-95"/>
			<point x="109" y="-124" type="curve"/>
			<point x="111" y="-132" type="line"/>
			<point x="119" y="-131" type="line"/>
			<point x="127" y="-120" type="line"/>
			<point x="94" y="-95" type="line" smooth="yes"/>
			<point x="66" y="-74"/>
			<point x="45" y="-66"/>
			<point x="20" y="-66" type="curve" smooth="yes"/>
			<point x="-11" y="-66"/>
			<point x="-34" y="-78"/>
			<point x="-40" y="-114" type="curve"/>
			<point x="-31" y="-152"/>
			<point x="8" y="-162"/>
			<point x="45" y="-162" type="curve" smooth="yes"/>
			<point x="128" y="-162"/>
			<point x="212" y="-113"/>
			<point x="231" y="-13" type="curve" smooth="yes"/>
			<point x="241" y="38"/>
			<point x="243" y="89"/>
			<point x="243" y="201" type="curve" smooth="yes"/>
			<point x="243" y="360" type="line" smooth="yes"/>
			<point x="243" y="465"/>
			<point x="243" y="569"/>
			<point x="246" y="670" type="curve"/>
		</contour>
		<contour>
			<point x="48" y="630" type="line"/>
			<point x="188" y="615" type="line"/>
			<point x="208" y="615" type="line"/>
			<point x="338" y="630" type="line"/>
			<point x="338" y="670" type="line"/>
			<point x="48" y="670" type="line"/>
		</contour>
	</outline>
	<anchor name="aboveUC" x="197" y="691"/>
	<anchor name="belowLC" x="94" y="-164"/>
</glyph>
<glyph name="K" format="2">
	<unicode hex="004B"/>
	<advance width="665"/>
	<outline>
		<contour>
			<point x="45" y="0" type="line"/>
			<point x="325" y="0" type="line"/>
			<point x="325" y="40" type="line"/>
			<point x="195" y="55" type="line"/>
			<point x="175" y="55" type="line"/>
			<point x="45" y="40" type="line"/>
		</contour>
		<contour>
			<point x="140" y="205"/>
			<point x="140" y="101"/>
			<point x="137" y="0" type="curve"/>
			<point x="230" y="0" type="line"/>
			<point x="227" y="103"/>
			<point x="227" y="207"/>
			<point x="227" y="284" type="curve" smooth="yes"/>
			<point x="227" y="360" type="line" smooth="yes"/>
			<point x="227" y="465"/>
			<point x="227" y="569"/>
			<point x="230" y="670" type="curve"/>
			<point x="137" y="670" type="line"/>
			<point x="140" y="567"/>
			<point x="140" y="463"/>
			<point x="140" y="360" type="curve" smooth="yes"/>
			<point x="140" y="310" type="line" smooth="yes"/>
		</contour>
		<contour>
			<point x="183" y="177" type="line"/>
			<point x="593" y="670" type="line"/>
			<point x="533" y="670" type="line"/>
			<point x="183" y="242" type="line"/>
		</contour>
		<contour>
			<point x="405" y="0" type="line"/>
			<point x="660" y="0" type="line"/>
			<point x="660" y="40" type="line"/>
			<point x="540" y="55" type="line"/>
			<point x="525" y="55" type="line"/>
			<point x="405" y="40" type="line"/>
		</contour>
		<contour>
			<point x="516" y="0" type="line"/>
			<point x="610" y="0" type="line"/>
			<point x="368" y="435" type="line"/>
			<point x="316" y="373" type="line"/>
		</contour>
		<contour>
			<point x="45" y="630" type="line"/>
			<point x="175" y="615" type="line"/>
			<point x="195" y="615" type="line"/>
			<point x="325" y="630" type="line"/>
			<point x="325" y="670" type="line"/>
			<point x="45" y="670" type="line"/>
		</contour>
		<contour>
			<point x="416" y="630" type="line"/>
			<point x="516" y="610" type="line"/>
			<point x="536" y="615" type="line"/>
			<point x="646" y="630" type="line"/>
			<point x="646" y="670" type="line"/>
			<point x="416" y="670" type="line"/>
		</contour>
	</outline>
	<anchor name="aboveUC" x="355" y="691"/>
	<anchor name="belowLC" x="363" y="-22"/>
</glyph>
<glyph name="M" format="2">
	<unicode hex="004D"/>
	<advance width="902"/>
	<outline>
		<contour>
			<point x="40" y="0" type="line"/>
			<point x="263" y="0" type="line"/>
			<point x="263" y="40" type="line"/>
			<point x="165" y="55" type="line"/>
			<point x="145" y="55" type="line"/>
			<point x="40" y="40" type="line"/>
		</contour>
		<contour>
			<point x="40" y="630" type="line"/>
			<point x="160" y="615" type="line"/>
			<point x="172" y="615" type="line"/>
			<point x="172" y="670" type="line"/>
			<point x="40" y="670" type="line"/>
		</contour>
		<contour>
			<point x="130" y="0" type="line"/>
			<point x="181" y="0" type="line"/>
			<point x="181" y="372" type="line"/>
			<point x="172" y="670" type="line"/>
			<point x="130" y="670" type="line"/>
		</contour>
		<contour>
			<point x="406" y="0" type="line"/>
			<point x="455" y="0" type="line"/>
			<point x="716" y="670" type="line"/>
			<point x="663" y="670" type="line"/>
			<point x="431" y="70" type="line"/>
			<point x="465" y="70" type="line"/>
			<point x="220" y="670" type="line"/>
			<point x="131" y="670" type="line"/>
		</contour>
		<contour>
			<point x="587" y="0" type="line"/>
			<point x="857" y="0" type="line"/>
			<point x="857" y="40" type="line"/>
			<point x="727" y="55" type="line"/>
			<point x="707" y="55" type="line"/>
			<point x="587" y="40" type="line"/>
		</contour>
		<contour>
			<point x="671" y="0" type="curve"/>
			<point x="765" y="0" type="line"/>
			<point x="762" y="103"/>
			<point x="762" y="207"/>
			<point x="762" y="310" type="curve" smooth="yes"/>
			<point x="762" y="360" type="line" smooth="yes"/>
			<point x="762" y="465"/>
			<point x="762" y="569"/>
			<point x="765" y="670" type="curve"/>
			<point x="674" y="670" type="line"/>
			<point x="674" y="310" type="line" smooth="yes"/>
			<point x="674" y="205"/>
			<point x="674" y="101"/>
		</contour>
		<contour>
			<point x="717" y="615" type="line"/>
			<point x="727" y="615" type="line"/>
			<point x="857" y="630" type="line"/>
			<point x="857" y="670" type="line"/>
			<point x="717" y="670" type="line"/>
		</contour>
	</outline>
	<anchor name="aboveUC" x="440" y="691"/>
	<anchor name="belowLC" x="426" y="-22"/>
</glyph>
<glyph name="N" format="1">
	<unicode hex="004E"/>
	<advance width="735"/>
	<outline>
		<contour>
			<point x="40" y="0" type="line"/>
			<point x="280" y="0" type="line"/>
			<point x="280" y="40" type="line"/>
			<point x="165" y="55" type="line"/>
			<point x="145" y="55" type="line"/>
			<point x="40" y="40" type="line"/>
		</contour>
		<contour>
			<point x="125" y="0" type="line"/>
			<point x="175" y="0" type="line"/>
			<point x="175" y="647" type="line"/>
			<point x="125" y="647" type="line"/>
		</contour>
		<contour>
			<point x="455" y="630" type="line"/>
			<point x="575" y="615" type="line"/>
			<point x="595" y="615" type="line"/>
			<point x="695" y="630" type="line"/>
			<point x="695" y="670" type="line"/>
			<point x="455" y="670" type="line"/>
		</contour>
		<contour>
			<point x="578" y="-7" type="line"/>
			<point x="610" y="-7" type="line"/>
			<point x="610" y="670" type="line"/>
			<point x="560" y="670" type="line"/>
			<point x="560" y="168" type="line"/>
			<point x="195" y="670" type="line"/>
			<point x="45" y="670" type="line"/>
			<point x="45" y="630" type="line"/>
			<point x="116" y="621" type="line"/>
		</contour>
		<contour>
			<point name="aboveUC" x="363" y="691" type="move"/>
		</contour>
		<contour>
			<point name="belowLC" x="376" y="-22" type="move"/>
		</contour>
	</outline>
</glyph>
<glyph name="O" format="1">
	<unicode hex="004F"/>
	<advance width="707"/>
	<outline>
		<contour>
			<point x="153" y="335" type="curve" smooth="yes"/>
			<point x="153" y="485"/>
			<point x="213" y="635"/>
			<point x="354" y="635" type="curve" smooth="yes"/>
			<point x="495" y="635"/>
			<point x="554" y="485"/>
			<point x="554" y="335" type="curve" smooth="yes"/>
			<point x="554" y="185"/>
			<point x="495" y="35"/>
			<point x="354" y="35" type="curve" smooth="yes"/>
			<point x="213" y="35"/>
			<point x="153" y="185"/>
		</contour>
		<contour>
			<point x="354" y="685" type="curve" smooth="yes"/>
			<point x="200" y="685"/>
			<point x="48" y="554"/>
			<point x="48" y="335" type="curve" smooth="yes"/>
			<point x="48" y="107"/>
			<point x="199" y="-15"/>
			<point x="354" y="-15" type="curve" smooth="yes"/>
			<point x="509" y="-15"/>
			<point x="659" y="116"/>
			<point x="659" y="335" type="curve" smooth="yes"/>
			<point x="659" y="563"/>
			<point x="508" y="685"/>
		</contour>
		<contour>
			<point name="aboveUC" x="353" y="691" type="move"/>
		</contour>
		<contour>
			<point name="belowLC" x="353" y="-22" type="move"/>
		</contour>
		<contour>
			<point name="ogonek" x="444" y="0" type="move"/>
		</contour>
		<contour>
			<point name="hornLC" x="505" y="658" type="move"/>
		</contour>
	</outline>
</glyph>
<glyph name="Q" format="2">
	<unicode hex="0051"/>
	<advance width="707"/>
	<outline>
		<contour>
			<point x="500" y="-217" type="curve" smooth="yes"/>
			<point x="541" y="-217"/>
			<point x="588" y="-207"/>
			<point x="623" y="-185" type="curve"/>
			<point x="612" y="-150" type="line"/>
			<point x="580" y="-159"/>
			<point x="554" y="-162"/>
			<point x="534" y="-162" type="curve" smooth="yes"/>
			<point x="442" y="-162"/>
			<point x="387" y="-98"/>
			<point x="394" y="16" type="curve"/>
			<point x="304" y="31" type="line"/>
			<point x="304" y="-6" type="line" smooth="yes"/>
			<point x="304" y="-118"/>
			<point x="374" y="-217"/>
		</contour>
		<component base="O"/>
	</outline>
	<anchor name="aboveUC" x="353" y="691"/>
</glyph>
<glyph name="T" format="1">
	<unicode hex="0054"/>
	<advance width="602"/>
	<outline>
		<contour>
			<point x="291" y="55" type="line"/>
			<point x="151" y="40" type="line"/>
			<point x="151" y="0" type="line"/>
			<point x="451" y="0" type="line"/>
			<point x="451" y="40" type="line"/>
			<point x="311" y="55" type="line"/>
		</contour>
		<contour>
			<point x="256" y="310" type="line" smooth="yes"/>
			<point x="256" y="205"/>
			<point x="256" y="101"/>
			<point x="253" y="0" type="curve"/>
			<point x="349" y="0" type="line"/>
			<point x="346" y="103"/>
			<point x="346" y="207"/>
			<point x="346" y="310" type="curve" smooth="yes"/>
			<point x="346" y="360" type="line" smooth="yes"/>
			<point x="346" y="465"/>
			<point x="346" y="569"/>
			<point x="349" y="670" type="curve"/>
			<point x="253" y="670" type="line"/>
			<point x="256" y="567"/>
			<point x="256" y="463"/>
			<point x="256" y="360" type="curve" smooth="yes"/>
		</contour>
		<contour>
			<point x="539" y="620" type="line"/>
			<point x="494" y="670" type="line"/>
			<point x="526" y="492" type="line"/>
			<point x="582" y="492" type="line"/>
			<point x="574" y="670" type="line"/>
			<point x="28" y="670" type="line"/>
			<point x="20" y="492" type="line"/>
			<point x="76" y="492" type="line"/>
			<point x="108" y="670" type="line"/>
			<point x="63" y="620" type="line"/>
		</contour>
		<contour>
			<point name="aboveUC" x="301" y="691" type="move"/>
		</contour>
		<contour>
			<point name="belowLC" x="301" y="-22" type="move"/>
		</contour>
		<contour>
			<point name="baseLC" x="301" y="0" type="move"/>
		</contour>
	</outline>
</glyph>
<glyph name="U" format="2">
	<unicode hex="0055"/>
	<advance width="727"/>
	<outline>
		<contour>
			<point x="125" y="66"/>
			<point x="223" y="-15"/>
			<point x="368" y="-15" type="curve" smooth="yes"/>
			<point x="503" y="-15"/>
			<point x="605" y="63"/>
			<point x="605" y="273" type="curve" smooth="yes"/>
			<point x="605" y="670" type="line"/>
			<point x="555" y="670" type="line"/>
			<point x="555" y="299" type="line" smooth="yes"/>
			<point x="555" y="120"/>
			<point x="497" y="55"/>
			<point x="382" y="55" type="curve" smooth="yes"/>
			<point x="280" y="55"/>
			<point x="215" y="109"/>
			<point x="215" y="281" type="curve" smooth="yes"/>
			<point x="215" y="360" type="line" smooth="yes"/>
			<point x="215" y="465"/>
			<point x="215" y="569"/>
			<point x="218" y="670" type="curve"/>
			<point x="122" y="670" type="line"/>
			<point x="125" y="567"/>
			<point x="125" y="463"/>
			<point x="125" y="360" type="curve" smooth="yes"/>
			<point x="125" y="252" type="line" smooth="yes"/>
		</contour>
		<contour>
			<point x="40" y="630" type="line"/>
			<point x="170" y="615" type="line"/>
			<point x="190" y="615" type="line"/>
			<point x="320" y="630" type="line"/>
			<point x="320" y="670" type="line"/>
			<point x="40" y="670" type="line"/>
		</contour>
		<contour>
			<point x="452" y="630" type="line"/>
			<point x="562" y="615" type="line"/>
			<point x="582" y="615" type="line"/>
			<point x="692" y="630" type="line"/>
			<point x="692" y="670" type="line"/>
			<point x="452" y="670" type="line"/>
		</contour>
	</outline>
	<anchor name="aboveUC" x="379" y="691"/>
	<anchor name="belowLC" x="373" y="-22"/>
	<anchor name="ogonek" x="452" y="0"/>
	<anchor name="hornLC" x="583" y="679"/>
</glyph>
<glyph name="V" format="1">
	<unicode hex="0056"/>
	<advance width="675"/>
	<outline>
		<contour>
			<point x="554" y="615" type="line"/>
			<point x="665" y="630" type="line"/>
			<point x="665" y="670" type="line"/>
			<point x="434" y="670" type="line"/>
			<point x="434" y="625" type="line"/>
			<point x="534" y="615" type="line"/>
		</contour>
		<contour>
			<point x="165" y="615" type="line"/>
			<point x="285" y="625" type="line"/>
			<point x="285" y="670" type="line"/>
			<point x="15" y="670" type="line"/>
			<point x="15" y="630" type="line"/>
			<point x="145" y="615" type="line"/>
		</contour>
		<contour>
			<point x="326" y="-7" type="line"/>
			<point x="366" y="-7" type="line"/>
			<point x="595" y="670" type="line"/>
			<point x="541" y="670" type="line"/>
			<point x="359" y="132" type="line"/>
			<point x="170" y="670" type="line"/>
			<point x="74" y="670" type="line"/>
		</contour>
		<contour>
			<point name="aboveUC" x="348" y="691" type="move"/>
		</contour>
		<contour>
			<point name="belowLC" x="347" y="-22" type="move"/>
		</contour>
	</outline>
</glyph>
<glyph name="W" format="2">
	<unicode hex="0057"/>
	<advance width="961"/>
	<outline>
		<contour>
			<point x="280" y="-7" type="line"/>
			<point x="319" y="-7" type="line"/>
			<point x="493" y="544" type="line"/>
			<point x="474" y="543" type="line"/>
			<point x="659" y="-7" type="line"/>
			<point x="699" y="-7" type="line"/>
			<point x="881" y="670" type="line"/>
			<point x="831" y="670" type="line"/>
			<point x="680" y="122" type="line"/>
			<point x="697" y="122" type="line"/>
			<point x="520" y="670" type="line"/>
			<point x="488" y="670" type="line"/>
			<point x="306" y="127" type="line"/>
			<point x="324" y="126" type="line"/>
			<point x="178" y="670" type="line"/>
			<point x="85" y="670" type="line"/>
		</contour>
		<contour>
			<point x="15" y="630" type="line"/>
			<point x="145" y="615" type="line"/>
			<point x="165" y="615" type="line"/>
			<point x="285" y="630" type="line"/>
			<point x="285" y="670" type="line"/>
			<point x="15" y="670" type="line"/>
		</contour>
		<contour>
			<point x="369" y="630" type="line"/>
			<point x="497" y="615" type="line"/>
			<point x="517" y="615" type="line"/>
			<point x="639" y="630" type="line"/>
			<point x="639" y="670" type="line"/>
			<point x="369" y="670" type="line"/>
		</contour>
		<contour>
			<point x="723" y="630" type="line"/>
			<point x="828" y="615" type="line"/>
			<point x="848" y="615" type="line"/>
			<point x="951" y="630" type="line"/>
			<point x="951" y="670" type="line"/>
			<point x="723" y="670" type="line"/>
		</contour>
	</outline>
	<anchor name="aboveUC" x="499" y="691"/>
	<anchor name="belowLC" x="499" y="-22"/>
</glyph>
<glyph name="X" format="2">
	<unicode hex="0058"/>
	<advance width="648"/>
	<outline>
		<contour>
			<point x="10" y="0" type="line"/>
			<point x="240" y="0" type="line"/>
			<point x="240" y="40" type="line"/>
			<point x="140" y="55" type="line"/>
			<point x="120" y="55" type="line"/>
			<point x="10" y="40" type="line"/>
		</contour>
		<contour>
			<point x="72" y="0" type="line"/>
			<point x="128" y="0" type="line"/>
			<point x="336" y="328" type="line"/>
			<point x="304" y="354" type="line"/>
		</contour>
		<contour>
			<point x="358" y="0" type="line"/>
			<point x="638" y="0" type="line"/>
			<point x="638" y="40" type="line"/>
			<point x="508" y="55" type="line"/>
			<point x="488" y="55" type="line"/>
			<point x="358" y="40" type="line"/>
		</contour>
		<contour>
			<point x="333" y="316" type="line"/>
			<point x="562" y="670" type="line"/>
			<point x="506" y="670" type="line"/>
			<point x="301" y="342" type="line"/>
		</contour>
		<contour>
			<point x="482" y="0" type="line"/>
			<point x="582" y="0" type="line"/>
			<point x="178" y="670" type="line"/>
			<point x="78" y="670" type="line"/>
		</contour>
		<contour>
			<point x="19" y="630" type="line"/>
			<point x="149" y="615" type="line"/>
			<point x="169" y="615" type="line"/>
			<point x="299" y="630" type="line"/>
			<point x="299" y="670" type="line"/>
			<point x="19" y="670" type="line"/>
		</contour>
		<contour>
			<point x="387" y="630" type="line"/>
			<point x="487" y="615" type="line"/>
			<point x="507" y="615" type="line"/>
			<point x="617" y="630" type="line"/>
			<point x="617" y="670" type="line"/>
			<point x="387" y="670" type="line"/>
		</contour>
	</outline>
	<anchor name="aboveUC" x="323" y="691"/>
	<anchor name="belowLC" x="313" y="-22"/>
</glyph>
<glyph name="Z" format="1">
	<unicode hex="005A"/>
	<advance width="550"/>
	<outline>
		<contour>
			<point x="90" y="492" type="line"/>
			<point x="117" y="620" type="line"/>
			<point x="402" y="620" type="line"/>
			<point x="20" y="35" type="line"/>
			<point x="20" y="0" type="line"/>
			<point x="522" y="0" type="line"/>
			<point x="530" y="178" type="line"/>
			<point x="470" y="178" type="line"/>
			<point x="443" y="50" type="line"/>
			<point x="127" y="50" type="line"/>
			<point x="508" y="635" type="line"/>
			<point x="508" y="670" type="line"/>
			<point x="38" y="670" type="line"/>
			<point x="30" y="492" type="line"/>
		</contour>
		<contour>
			<point name="aboveUC" x="283" y="691" type="move"/>
		</contour>
		<contour>
			<point name="belowLC" x="283" y="-22" type="move"/>
		</contour>
	</outline>
</glyph>
<glyph name="asciicircum" format="2">
	<unicode hex="005E"/>
	<advance width="530"/>
	<outline>
		<contour>
			<point x="90" y="243" type="line"/>
			<point x="133" y="210" type="line"/>
			<point x="283" y="448" type="line"/>
			<point x="250" y="448" type="line"/>
			<point x="400" y="210" type="line"/>
			<point x="443" y="243" type="line"/>
			<point x="298" y="480" type="line"/>
			<point x="235" y="480" type="line"/>
		</contour>
	</outline>
</glyph>
<glyph name="b" format="2">
	<unicode hex="0062"/>
	<advance width="575"/>
	<outline>
		<contour>
			<point x="30" y="0" type="line"/>
			<point x="178" y="-10" type="line"/>
			<point x="188" y="79" type="line"/>
			<point x="188" y="385" type="line"/>
			<point x="185" y="398" type="line"/>
			<point x="185" y="590" type="line"/>
			<point x="189" y="732" type="line"/>
			<point x="175" y="740" type="line"/>
			<point x="25" y="695" type="line"/>
			<point x="25" y="660" type="line"/>
			<point x="108" y="650" type="line"/>
			<point x="108" y="210" type="line" smooth="yes"/>
			<point x="108" y="165"/>
			<point x="107" y="99"/>
			<point x="106" y="49" type="curve"/>
			<point x="30" y="35" type="line"/>
		</contour>
		<contour>
			<point x="212" y="10"/>
			<point x="268" y="-13"/>
			<point x="324" y="-13" type="curve" smooth="yes"/>
			<point x="441" y="-13"/>
			<point x="529" y="88"/>
			<point x="529" y="242" type="curve" smooth="yes"/>
			<point x="529" y="396"/>
			<point x="445" y="487"/>
			<point x="339" y="487" type="curve" smooth="yes"/>
			<point x="276" y="487"/>
			<point x="217" y="455"/>
			<point x="162" y="381" type="curve"/>
			<point x="148" y="381" type="line"/>
			<point x="157" y="343" type="line"/>
			<point x="230" y="416"/>
			<point x="279" y="432"/>
			<point x="315" y="432" type="curve" smooth="yes"/>
			<point x="391" y="432"/>
			<point x="444" y="362"/>
			<point x="444" y="233" type="curve" smooth="yes"/>
			<point x="444" y="104"/>
			<point x="382" y="42"/>
			<point x="310" y="42" type="curve" smooth="yes"/>
			<point x="263" y="42"/>
			<point x="209" y="68"/>
			<point x="157" y="134" type="curve"/>
			<point x="148" y="93" type="line"/>
			<point x="162" y="93" type="line"/>
		</contour>
	</outline>
	<anchor name="aboveLC" x="131" y="739"/>
	<anchor name="belowLC" x="327" y="-22"/>
</glyph>
<glyph name="c" format="2">
	<unicode hex="0063"/>
	<advance width="486"/>
	<outline>
		<contour>
			<point x="43" y="83"/>
			<point x="129" y="-13"/>
			<point x="266" y="-13" type="curve" smooth="yes"/>
			<point x="360" y="-13"/>
			<point x="424" y="33"/>
			<point x="451" y="116" type="curve"/>
			<point x="427" y="128" type="line"/>
			<point x="396" y="78"/>
			<point x="345" y="50"/>
			<point x="287" y="50" type="curve" smooth="yes"/>
			<point x="193" y="50"/>
			<point x="126" y="119"/>
			<point x="126" y="245" type="curve" smooth="yes"/>
			<point x="126" y="373"/>
			<point x="188" y="442"/>
			<point x="275" y="442" type="curve" smooth="yes"/>
			<point x="303" y="442"/>
			<point x="337" y="435"/>
			<point x="371" y="417" type="curve"/>
			<point x="325" y="454" type="line"/>
			<point x="350" y="366" type="line" smooth="yes"/>
			<point x="357" y="341"/>
			<point x="370" y="321"/>
			<point x="403" y="321" type="curve" smooth="yes"/>
			<point x="428" y="321"/>
			<point x="443" y="333"/>
			<point x="448" y="358" type="curve"/>
			<point x="435" y="432"/>
			<point x="361" y="487"/>
			<point x="272" y="487" type="curve" smooth="yes"/>
			<point x="153" y="487"/>
			<point x="43" y="393"/>
			<point x="43" y="236" type="curve" smooth="yes"/>
		</contour>
	</outline>
	<anchor name="aboveLC" x="273" y="506"/>
	<anchor name="belowLC" x="275" y="-22"/>
	<anchor name="baseLC" x="275" y="0"/>
</glyph>
<glyph name="i" format="2">
	<unicode hex="0069"/>
	<advance width="297"/>
	<outline>
		<contour>
			<point x="35" y="0" type="line"/>
			<point x="265" y="0" type="line"/>
			<point x="265" y="35" type="line"/>
			<point x="165" y="55" type="line"/>
			<point x="145" y="55" type="line"/>
			<point x="35" y="35" type="line"/>
		</contour>
		<contour>
			<point x="114" y="148"/>
			<point x="113" y="45"/>
			<point x="111" y="0" type="curve"/>
			<point x="195" y="0" type="line"/>
			<point x="193" y="45"/>
			<point x="192" y="148"/>
			<point x="192" y="210" type="curve" smooth="yes"/>
			<point x="192" y="342" type="line"/>
			<point x="195" y="477" type="line"/>
			<point x="180" y="487" type="line"/>
			<point x="29" y="427" type="line"/>
			<point x="29" y="392" type="line"/>
			<point x="111" y="383" type="line"/>
			<point x="113" y="343"/>
			<point x="114" y="312"/>
			<point x="114" y="257" type="curve" smooth="yes"/>
			<point x="114" y="210" type="line" smooth="yes"/>
		</contour>
		<contour>
			<point x="152" y="600" type="curve" smooth="yes"/>
			<point x="189" y="600"/>
			<point x="218" y="626"/>
			<point x="218" y="663" type="curve" smooth="yes"/>
			<point x="218" y="701"/>
			<point x="189" y="726"/>
			<point x="152" y="726" type="curve" smooth="yes"/>
			<point x="115" y="726"/>
			<point x="86" y="701"/>
			<point x="86" y="663" type="curve" smooth="yes"/>
			<point x="86" y="626"/>
			<point x="115" y="600"/>
		</contour>
	</outline>
	<anchor name="aboveLC" x="152" y="706"/>
	<anchor name="belowLC" x="155" y="-22"/>
	<anchor name="ogonek" x="186" y="0"/>
</glyph>
<glyph name="j" format="2">
	<unicode hex="006A"/>
	<advance width="275"/>
	<outline>
		<contour>
			<point x="-81" y="-219"/>
			<point x="-54" y="-250"/>
			<point x="6" y="-250" type="curve" smooth="yes"/>
			<point x="65" y="-250"/>
			<point x="93" y="-231"/>
			<point x="127" y="-197" type="curve" smooth="yes"/>
			<point x="182" y="-142"/>
			<point x="189" y="-63"/>
			<point x="189" y="103" type="curve" smooth="yes"/>
			<point x="189" y="342" type="line"/>
			<point x="192" y="477" type="line"/>
			<point x="177" y="487" type="line"/>
			<point x="30" y="427" type="line"/>
			<point x="30" y="392" type="line"/>
			<point x="110" y="383" type="line"/>
			<point x="112" y="343"/>
			<point x="113" y="312"/>
			<point x="113" y="257" type="curve" smooth="yes"/>
			<point x="113" y="103" type="line" smooth="yes"/>
			<point x="113" y="-51"/>
			<point x="107" y="-131"/>
			<point x="91" y="-172" type="curve" smooth="yes"/>
			<point x="76" y="-210"/>
			<point x="53" y="-216"/>
			<point x="25" y="-216" type="curve"/>
			<point x="27" y="-236" type="line"/>
			<point x="96" y="-215" type="line"/>
			<point x="51" y="-183" type="line" smooth="yes"/>
			<point x="24" y="-164"/>
			<point x="3" y="-154"/>
			<point x="-23" y="-154" type="curve" smooth="yes"/>
			<point x="-52" y="-154"/>
			<point x="-72" y="-167"/>
			<point x="-81" y="-193" type="curve"/>
		</contour>
		<contour>
			<point x="152" y="600" type="curve" smooth="yes"/>
			<point x="189" y="600"/>
			<point x="218" y="626"/>
			<point x="218" y="663" type="curve" smooth="yes"/>
			<point x="218" y="701"/>
			<point x="189" y="726"/>
			<point x="152" y="726" type="curve" smooth="yes"/>
			<point x="115" y="726"/>
			<point x="86" y="701"/>
			<point x="86" y="663" type="curve" smooth="yes"/>
			<point x="86" y="626"/>
			<point x="115" y="600"/>
		</contour>
	</outline>
	<anchor name="aboveLC" x="152" y="706"/>
	<anchor name="belowLC" x="53" y="-251"/>
</glyph>
<glyph name="l" format="2">
	<unicode hex="006C"/>
	<advance width="296"/>
	<outline>
		<contour>
			<point x="25" y="0" type="line"/>
			<point x="271" y="0" type="line"/>
			<point x="271" y="35" type="line"/>
			<point x="158" y="55" type="line"/>
			<point x="138" y="55" type="line"/>
			<point x="25" y="35" type="line"/>
		</contour>
		<contour>
			<point x="108" y="140"/>
			<point x="107" y="70"/>
			<point x="105" y="0" type="curve"/>
			<point x="191" y="0" type="line"/>
			<point x="189" y="70"/>
			<point x="188" y="140"/>
			<point x="188" y="210" type="curve" smooth="yes"/>
			<point x="188" y="590" type="line"/>
			<point x="192" y="732" type="line"/>
			<point x="178" y="740" type="line"/>
			<point x="25" y="695" type="line"/>
			<point x="25" y="660" type="line"/>
			<point x="108" y="650" type="line"/>
			<point x="108" y="210" type="line" smooth="yes"/>
		</contour>
	</outline>
	<anchor name="aboveLC" x="143" y="739"/>
	<anchor name="belowLC" x="151" y="-22"/>
</glyph>
<glyph name="n" format="1">
	<unicode hex="006E"/>
	<advance width="605"/>
	<outline>
		<contour>
			<point x="201" y="0" type="line"/>
			<point x="199" y="45"/>
			<point x="198" y="148"/>
			<point x="198" y="210" type="curve" smooth="yes"/>
			<point x="198" y="361" type="line"/>
			<point x="186" y="477" type="line"/>
			<point x="171" y="487" type="line"/>
			<point x="35" y="427" type="line"/>
			<point x="35" y="392" type="line"/>
			<point x="115" y="383" type="line"/>
			<point x="117" y="343"/>
			<point x="118" y="312"/>
			<point x="118" y="257" type="curve" smooth="yes"/>
			<point x="118" y="210" type="line" smooth="yes"/>
			<point x="118" y="148"/>
			<point x="117" y="45"/>
			<point x="115" y="0" type="curve"/>
		</contour>
		<contour>
			<point x="171" y="55" type="line"/>
			<point x="151" y="55" type="line"/>
			<point x="41" y="35" type="line"/>
			<point x="41" y="0" type="line"/>
			<point x="271" y="0" type="line"/>
			<point x="271" y="35" type="line"/>
		</contour>
		<contour>
			<point x="455" y="55" type="line"/>
			<point x="345" y="35" type="line"/>
			<point x="345" y="0" type="line"/>
			<point x="575" y="0" type="line"/>
			<point x="575" y="35" type="line"/>
			<point x="475" y="55" type="line"/>
		</contour>
		<contour>
			<point x="375" y="487" type="curve" smooth="yes"/>
			<point x="304" y="487"/>
			<point x="224" y="438"/>
			<point x="177" y="375" type="curve"/>
			<point x="190" y="348" type="line"/>
			<point x="247" y="397"/>
			<point x="288" y="417"/>
			<point x="338" y="417" type="curve" smooth="yes"/>
			<point x="398" y="417"/>
			<point x="422" y="387"/>
			<point x="422" y="294" type="curve" smooth="yes"/>
			<point x="422" y="210" type="line" smooth="yes"/>
			<point x="422" y="146"/>
			<point x="421" y="45"/>
			<point x="419" y="0" type="curve"/>
			<point x="505" y="0" type="line"/>
			<point x="503" y="45"/>
			<point x="502" y="146"/>
			<point x="502" y="210" type="curve" smooth="yes"/>
			<point x="502" y="302" type="line" smooth="yes"/>
			<point x="502" y="434"/>
			<point x="461" y="487"/>
		</contour>
		<contour>
			<point name="aboveLC" x="309" y="506" type="move"/>
		</contour>
		<contour>
			<point name="belowLC" x="313" y="-22" type="move"/>
		</contour>
	</outline>
</glyph>
<glyph name="u" format="1">
	<unicode hex="0075"/>
	<advance width="582"/>
	<outline>
		<contour>
			<point x="174" y="330" type="line"/>
			<point x="179" y="470" type="line"/>
			<point x="169" y="480" type="line"/>
			<point x="25" y="467" type="line"/>
			<point x="25" y="432" type="line"/>
			<point x="118" y="412" type="line"/>
			<point x="97" y="431" type="line"/>
			<point x="94" y="167" type="line" smooth="yes"/>
			<point x="93" y="35"/>
			<point x="143" y="-13"/>
			<point x="223" y="-13" type="curve" smooth="yes"/>
			<point x="288" y="-13"/>
			<point x="356" y="19"/>
			<point x="413" y="96" type="curve"/>
			<point x="408" y="132" type="line"/>
			<point x="358" y="82"/>
			<point x="306" y="57"/>
			<point x="255" y="57" type="curve" smooth="yes"/>
			<point x="200" y="57"/>
			<point x="174" y="88"/>
			<point x="174" y="177" type="curve" smooth="yes"/>
		</contour>
		<contour>
			<point x="547" y="0" type="line"/>
			<point x="547" y="35" type="line"/>
			<point x="478" y="50" type="line"/>
			<point x="478" y="330" type="line"/>
			<point x="481" y="470" type="line"/>
			<point x="471" y="480" type="line"/>
			<point x="329" y="467" type="line"/>
			<point x="329" y="432" type="line"/>
			<point x="401" y="417" type="line"/>
			<point x="398" y="109" type="line"/>
			<point x="412" y="-8" type="line"/>
		</contour>
		<contour>
			<point name="aboveLC" x="282" y="506" type="move"/>
		</contour>
		<contour>
			<point name="belowLC" x="299" y="-22" type="move"/>
		</contour>
		<contour>
			<point name="hornLC" x="449" y="471" type="move"/>
		</contour>
		<contour>
			<point name="ogonek" x="493" y="0" type="move"/>
		</contour>
	</outline>
</glyph>
<glyph name="v" format="1">
	<unicode hex="0076"/>
	<advance width="504"/>
	<outline>
		<contour>
			<point x="424" y="419" type="line"/>
			<point x="494" y="436" type="line"/>
			<point x="494" y="474" type="line"/>
			<point x="304" y="474" type="line"/>
			<point x="304" y="436" type="line"/>
			<point x="404" y="419" type="line"/>
		</contour>
		<contour>
			<point x="118" y="419" type="line"/>
			<point x="240" y="436" type="line"/>
			<point x="240" y="474" type="line"/>
			<point x="0" y="474" type="line"/>
			<point x="0" y="436" type="line"/>
			<point x="98" y="419" type="line"/>
		</contour>
		<contour>
			<point x="35" y="474" type="line"/>
			<point x="237" y="-6" type="line"/>
			<point x="278" y="-6" type="line"/>
			<point x="460" y="474" type="line"/>
			<point x="406" y="474" type="line"/>
			<point x="274" y="98" type="line"/>
			<point x="130" y="474" type="line"/>
		</contour>
		<contour>
			<point name="aboveLC" x="263" y="506" type="move"/>
		</contour>
		<contour>
			<point name="belowLC" x="254" y="-22" type="move"/>
		</contour>
	</outline>
</glyph>
<glyph name="w" format="2">
	<unicode hex="0077"/>
	<advance width="762"/>
	<outline>
		<contour>
			<point x="395" y="419" type="line"/>
			<point x="415" y="419" type="line"/>
			<point x="510" y="436" type="line"/>
			<point x="510" y="474" type="line"/>
			<point x="290" y="474" type="line"/>
			<point x="290" y="436" type="line"/>
		</contour>
		<contour>
			<point x="118" y="419" type="line"/>
			<point x="226" y="436" type="line"/>
			<point x="226" y="474" type="line"/>
			<point x="0" y="474" type="line"/>
			<point x="0" y="436" type="line"/>
			<point x="98" y="419" type="line"/>
		</contour>
		<contour>
			<point x="682" y="419" type="line"/>
			<point x="752" y="436" type="line"/>
			<point x="752" y="474" type="line"/>
			<point x="569" y="474" type="line"/>
			<point x="569" y="436" type="line"/>
			<point x="662" y="419" type="line"/>
		</contour>
		<contour>
			<point x="384" y="474" type="line"/>
			<point x="252" y="114" type="line"/>
			<point x="130" y="474" type="line"/>
			<point x="40" y="474" type="line"/>
			<point x="219" y="-6" type="line"/>
			<point x="254" y="-6" type="line"/>
			<point x="387" y="350" type="line"/>
			<point x="518" y="-6" type="line"/>
			<point x="553" y="-6" type="line"/>
			<point x="716" y="474" type="line"/>
			<point x="660" y="474" type="line"/>
			<point x="550" y="115" type="line"/>
			<point x="414" y="474" type="line"/>
		</contour>
	</outline>
	<anchor name="aboveLC" x="391" y="506"/>
	<anchor name="belowLC" x="387" y="-22"/>
</glyph>
<glyph name="z" format="2">
	<unicode hex="007A"/>
	<advance width="455"/>
	<outline>
		<contour>
			<point x="30" y="0" type="line"/>
			<point x="420" y="0" type="line"/>
			<point x="430" y="163" type="line"/>
			<point x="380" y="163" type="line"/>
			<point x="343" y="13" type="line"/>
			<point x="380" y="42" type="line"/>
			<point x="97" y="42" type="line"/>
			<point x="109" y="18" type="line"/>
			<point x="415" y="439" type="line"/>
			<point x="415" y="474" type="line"/>
			<point x="44" y="474" type="line"/>
			<point x="36" y="325" type="line"/>
			<point x="86" y="321" type="line"/>
			<point x="120" y="461" type="line"/>
			<point x="83" y="432" type="line"/>
			<point x="348" y="432" type="line"/>
			<point x="336" y="456" type="line"/>
			<point x="30" y="35" type="line"/>
		</contour>
	</outline>
	<anchor name="aboveLC" x="239" y="506"/>
	<anchor name="belowLC" x="241" y="-22"/>
</glyph>
<glyph name="braceleft" format="2">
	<unicode hex="007B"/>
	<advance width="344"/>
	<outline>
		<contour>
			<point x="40" y="258" type="line"/>
			<point x="124" y="248"/>
			<point x="160" y="216"/>
			<point x="160" y="166" type="curve" smooth="yes"/>
			<point x="160" y="113"/>
			<point x="119" y="45"/>
			<point x="119" y="-38" type="curve" smooth="yes"/>
			<point x="119" y="-117"/>
			<point x="174" y="-159"/>
			<point x="269" y="-159" type="curve" smooth="yes"/>
			<point x="314" y="-159" type="line"/>
			<point x="314" y="-120" type="line"/>
			<point x="287" y="-117" type="line" smooth="yes"/>
			<point x="217" y="-109"/>
			<point x="189" y="-93"/>
			<point x="189" y="-34" type="curve" smooth="yes"/>
			<point x="189" y="43"/>
			<point x="210" y="116"/>
			<point x="210" y="156" type="curve" smooth="yes"/>
			<point x="210" y="232"/>
			<point x="170" y="281"/>
			<point x="75" y="283" type="curve"/>
			<point x="75" y="273" type="line"/>
			<point x="170" y="275"/>
			<point x="210" y="324"/>
			<point x="210" y="400" type="curve" smooth="yes"/>
			<point x="210" y="440"/>
			<point x="189" y="513"/>
			<point x="189" y="590" type="curve" smooth="yes"/>
			<point x="189" y="649"/>
			<point x="217" y="665"/>
			<point x="287" y="673" type="curve" smooth="yes"/>
			<point x="314" y="676" type="line"/>
			<point x="314" y="715" type="line"/>
			<point x="269" y="715" type="line" smooth="yes"/>
			<point x="174" y="715"/>
			<point x="119" y="673"/>
			<point x="119" y="594" type="curve" smooth="yes"/>
			<point x="119" y="511"/>
			<point x="160" y="443"/>
			<point x="160" y="390" type="curve" smooth="yes"/>
			<point x="160" y="340"/>
			<point x="124" y="308"/>
			<point x="40" y="298" type="curve"/>
		</contour>
	</outline>
</glyph>
<glyph name="asciitilde" format="2">
	<unicode hex="007E"/>
	<advance width="530"/>
	<outline>
		<contour>
			<point x="284" y="366" type="curve" smooth="yes"/>
			<point x="246" y="404"/>
			<point x="211" y="421"/>
			<point x="169" y="421" type="curve" smooth="yes"/>
			<point x="95" y="421"/>
			<point x="56" y="372"/>
			<point x="50" y="282" type="curve"/>
			<point x="99" y="274" type="line"/>
			<point x="108" y="344"/>
			<point x="135" y="365"/>
			<point x="163" y="365" type="curve" smooth="yes"/>
			<point x="190" y="365"/>
			<point x="215" y="356"/>
			<point x="247" y="324" type="curve" smooth="yes"/>
			<point x="285" y="286"/>
			<point x="320" y="269"/>
			<point x="362" y="269" type="curve" smooth="yes"/>
			<point x="436" y="269"/>
			<point x="475" y="318"/>
			<point x="481" y="408" type="curve"/>
			<point x="432" y="416" type="line"/>
			<point x="423" y="346"/>
			<point x="396" y="325"/>
			<point x="368" y="325" type="curve" smooth="yes"/>
			<point x="341" y="325"/>
			<point x="315" y="335"/>
		</contour>
	</outline>
</glyph>
<glyph name="plusminus" format="2">
	<unicode hex="00B1"/>
	<advance width="530"/>
	<outline>
		<contour>
			<point x="235" y="97" type="line"/>
			<point x="295" y="97" type="line"/>
			<point x="295" y="558" type="line"/>
			<point x="235" y="558" type="line"/>
		</contour>
		<contour>
			<point x="501" y="302" type="line"/>
			<point x="501" y="358" type="line"/>
			<point x="29" y="358" type="line"/>
			<point x="29" y="302" type="line"/>
		</contour>
		<contour>
			<point x="501" y="0" type="line"/>
			<point x="501" y="56" type="line"/>
			<point x="29" y="56" type="line"/>
			<point x="29" y="0" type="line"/>
		</contour>
	</outline>
</glyph>
<glyph name="two.sups" format="2">
	<unicode hex="00B2"/>
	<advance width="370"/>
	<outline>
		<contour>
			<point x="55" y="426" type="line"/>
			<point x="322" y="426" type="line"/>
			<point x="322" y="495" type="line"/>
			<point x="98" y="495" type="line"/>
			<point x="84" y="455" type="line"/>
			<point x="179" y="543" type="line" smooth="yes"/>
			<point x="269" y="627"/>
			<point x="307" y="671"/>
			<point x="307" y="728" type="curve" smooth="yes"/>
			<point x="307" y="781"/>
			<point x="273" y="832"/>
			<point x="186" y="832" type="curve" smooth="yes"/>
			<point x="116" y="832"/>
			<point x="54" y="799"/>
			<point x="49" y="731" type="curve"/>
			<point x="57" y="717"/>
			<point x="69" y="708"/>
			<point x="85" y="708" type="curve" smooth="yes"/>
			<point x="103" y="708"/>
			<point x="115" y="719"/>
			<point x="124" y="757" type="curve" smooth="yes"/>
			<point x="138" y="813" type="line"/>
			<point x="98" y="785" type="line"/>
			<point x="122" y="795"/>
			<point x="143" y="798"/>
			<point x="160" y="798" type="curve" smooth="yes"/>
			<point x="208" y="798"/>
			<point x="236" y="771"/>
			<point x="236" y="720" type="curve" smooth="yes"/>
			<point x="236" y="669"/>
			<point x="207" y="622"/>
			<point x="148" y="565" type="curve" smooth="yes"/>
			<point x="55" y="475" type="line"/>
		</contour>
	</outline>
</glyph>
<glyph name="Idieresis" format="2">
	<unicode hex="00CF"/>
	<advance width="370"/>
	<outline>
		<contour>
			<point x="92" y="746" type="curve" smooth="yes"/>
			<point x="124" y="746"/>
			<point x="148" y="769"/>
			<point x="148" y="800" type="curve" smooth="yes"/>
			<point x="148" y="831"/>
			<point x="124" y="854"/>
			<point x="92" y="854" type="curve" smooth="yes"/>
			<point x="62" y="854"/>
			<point x="36" y="831"/>
			<point x="36" y="800" type="curve" smooth="yes"/>
			<point x="36" y="769"/>
			<point x="62" y="746"/>
		</contour>
		<contour>
			<point x="278" y="746" type="curve" smooth="yes"/>
			<point x="308" y="746"/>
			<point x="334" y="769"/>
			<point x="334" y="800" type="curve" smooth="yes"/>
			<point x="334" y="831"/>
			<point x="308" y="854"/>
			<point x="278" y="854" type="curve" smooth="yes"/>
			<point x="246" y="854"/>
			<point x="222" y="831"/>
			<point x="222" y="800" type="curve" smooth="yes"/>
			<point x="222" y="769"/>
			<point x="246" y="746"/>
		</contour>
		<component base="I"/>
	</outline>
</glyph>
<glyph name="multiply" format="2">
	<unicode hex="00D7"/>
	<advance width="530"/>
	<outline>
		<contour>
			<point x="447" y="108" type="line"/>
			<point x="487" y="148" type="line"/>
			<point x="83" y="552" type="line"/>
			<point x="43" y="512" type="line"/>
		</contour>
		<contour>
			<point x="487" y="512" type="line"/>
			<point x="447" y="552" type="line"/>
			<point x="43" y="148" type="line"/>
			<point x="83" y="108" type="line"/>
		</contour>
	</outline>
</glyph>
<glyph name="Oslash" format="2">
	<unicode hex="00D8"/>
	<advance width="707"/>
	<outline>
		<contour>
			<point x="646" y="657" type="line"/>
			<point x="604" y="690" type="line"/>
			<point x="52" y="13" type="line"/>
			<point x="94" y="-20" type="line"/>
		</contour>
		<contour>
			<point x="143" y="335" type="curve" smooth="yes"/>
			<point x="143" y="485"/>
			<point x="205" y="635"/>
			<point x="354" y="635" type="curve" smooth="yes"/>
			<point x="503" y="635"/>
			<point x="564" y="485"/>
			<point x="564" y="335" type="curve" smooth="yes"/>
			<point x="564" y="185"/>
			<point x="503" y="35"/>
			<point x="354" y="35" type="curve" smooth="yes"/>
			<point x="205" y="35"/>
			<point x="143" y="185"/>
		</contour>
		<contour>
			<point x="354" y="685" type="curve" smooth="yes"/>
			<point x="200" y="685"/>
			<point x="48" y="554"/>
			<point x="48" y="335" type="curve" smooth="yes"/>
			<point x="48" y="107"/>
			<point x="199" y="-15"/>
			<point x="354" y="-15" type="curve" smooth="yes"/>
			<point x="509" y="-15"/>
			<point x="659" y="116"/>
			<point x="659" y="335" type="curve" smooth="yes"/>
			<point x="659" y="563"/>
			<point x="508" y="685"/>
		</contour>
	</outline>
	<anchor name="aboveUC" x="353" y="691"/>
</glyph>
<glyph name="eth" format="2">
	<unicode hex="00F0"/>
	<advance width="545"/>
	<outline>
		<contour>
			<point x="262" y="-13" type="curve" smooth="yes"/>
			<point x="410" y="-13"/>
			<point x="493" y="100"/>
			<point x="493" y="280" type="curve" smooth="yes"/>
			<point x="493" y="513"/>
			<point x="358" y="662"/>
			<point x="173" y="750" type="curve"/>
			<point x="153" y="718" type="line"/>
			<point x="303" y="621"/>
			<point x="371" y="538"/>
			<point x="409" y="372" type="curve"/>
			<point x="421" y="377" type="line"/>
			<point x="397" y="442"/>
			<point x="339" y="474"/>
			<point x="266" y="474" type="curve" smooth="yes"/>
			<point x="155" y="474"/>
			<point x="46" y="389"/>
			<point x="46" y="234" type="curve" smooth="yes"/>
			<point x="46" y="73"/>
			<point x="151" y="-13"/>
		</contour>
		<contour>
			<point x="271" y="32" type="curve" smooth="yes"/>
			<point x="186" y="32"/>
			<point x="136" y="101"/>
			<point x="136" y="229" type="curve" smooth="yes"/>
			<point x="136" y="357"/>
			<point x="182" y="429"/>
			<point x="271" y="429" type="curve" smooth="yes"/>
			<point x="358" y="429"/>
			<point x="412" y="368"/>
			<point x="412" y="243" type="curve" smooth="yes"/>
			<point x="412" y="110"/>
			<point x="366" y="32"/>
		</contour>
		<contour>
			<point x="159" y="525" type="line"/>
			<point x="492" y="696" type="line"/>
			<point x="474" y="732" type="line"/>
			<point x="141" y="561" type="line"/>
		</contour>
	</outline>
</glyph>
<glyph name="divide" format="2">
	<unicode hex="00F7"/>
	<advance width="530"/>
	<outline>
		<contour>
			<point x="265" y="68" type="curve" smooth="yes"/>
			<point x="302" y="68"/>
			<point x="333" y="95"/>
			<point x="333" y="134" type="curve" smooth="yes"/>
			<point x="333" y="174"/>
			<point x="302" y="200"/>
			<point x="265" y="200" type="curve" smooth="yes"/>
			<point x="228" y="200"/>
			<point x="197" y="174"/>
			<point x="197" y="134" type="curve" smooth="yes"/>
			<point x="197" y="95"/>
			<point x="228" y="68"/>
		</contour>
		<contour>
			<point x="265" y="460" type="curve" smooth="yes"/>
			<point x="302" y="460"/>
			<point x="333" y="487"/>
			<point x="333" y="526" type="curve" smooth="yes"/>
			<point x="333" y="566"/>
			<point x="302" y="592"/>
			<point x="265" y="592" type="curve" smooth="yes"/>
			<point x="228" y="592"/>
			<point x="197" y="566"/>
			<point x="197" y="526" type="curve" smooth="yes"/>
			<point x="197" y="487"/>
			<point x="228" y="460"/>
		</contour>
		<component base="minus"/>
	</outline>
</glyph>
<glyph name="dcaron" format="1">
	<unicode hex="010F"/>
	<advance width="600"/>
	<outline>
		<contour>
			<point x="606" y="750" type="curve" smooth="yes"/>
			<point x="591" y="750"/>
			<point x="576" y="746"/>
			<point x="560" y="738" type="curve"/>
			<point x="557" y="528" type="line"/>
			<point x="588" y="528" type="line"/>
			<point x="607" y="582" type="line" smooth="yes"/>
			<point x="623" y="629"/>
			<point x="641" y="685"/>
			<point x="641" y="714" type="curve" smooth="yes"/>
			<point x="641" y="736"/>
			<point x="631" y="750"/>
		</contour>
		<component base="d"/>
	</outline>
</glyph>
<glyph name="Eogonek" format="1">
	<unicode hex="0118"/>
	<advance width="604"/>
	<outline>
		<component base="E"/>
		<component base="ogonekcmb" xOffset="470"/>
		<contour>
			<point name="aboveUC" x="327" y="691" type="move"/>
		</contour>
	</outline>
</glyph>
<glyph name="eogonek" format="2">
	<unicode hex="0119"/>
	<advance width="509"/>
	<outline>
		<contour>
			<point x="254" y="-132" type="curve" smooth="yes"/>
			<point x="254" y="-187"/>
			<point x="291" y="-220"/>
			<point x="344" y="-220" type="curve" smooth="yes"/>
			<point x="387" y="-220"/>
			<point x="423" y="-206"/>
			<point x="447" y="-172" type="curve"/>
			<point x="435" y="-150" type="line"/>
			<point x="415" y="-162"/>
			<point x="396" y="-165"/>
			<point x="383" y="-165" type="curve" smooth="yes"/>
			<point x="344" y="-165"/>
			<point x="315" y="-140"/>
			<point x="315" y="-97" type="curve" smooth="yes"/>
			<point x="315" y="-57"/>
			<point x="342" y="-19"/>
			<point x="382" y="13" type="curve" smooth="yes"/>
			<point x="419" y="42"/>
			<point x="439" y="64"/>
			<point x="458" y="103" type="curve"/>
			<point x="435" y="121" type="line"/>
			<point x="398" y="78"/>
			<point x="359" y="50"/>
			<point x="296" y="50" type="curve" smooth="yes"/>
			<point x="195" y="50"/>
			<point x="131" y="118"/>
			<point x="131" y="241" type="curve" smooth="yes"/>
			<point x="131" y="388"/>
			<point x="205" y="442"/>
			<point x="268" y="442" type="curve" smooth="yes"/>
			<point x="332" y="442"/>
			<point x="380" y="390"/>
			<point x="380" y="333" type="curve" smooth="yes"/>
			<point x="380" y="300"/>
			<point x="369" y="282"/>
			<point x="321" y="282" type="curve" smooth="yes"/>
			<point x="83" y="282" type="line"/>
			<point x="83" y="240" type="line"/>
			<point x="452" y="240" type="line"/>
			<point x="456" y="253"/>
			<point x="459" y="273"/>
			<point x="459" y="295" type="curve" smooth="yes"/>
			<point x="459" y="417"/>
			<point x="377" y="487"/>
			<point x="273" y="487" type="curve" smooth="yes"/>
			<point x="150" y="487"/>
			<point x="46" y="385"/>
			<point x="46" y="236" type="curve" smooth="yes"/>
			<point x="46" y="79"/>
			<point x="133" y="-13"/>
			<point x="267" y="-13" type="curve" smooth="yes"/>
			<point x="295" y="-13"/>
			<point x="326" y="-9"/>
			<point x="354" y="-1" type="curve"/>
			<point x="354" y="15" type="line"/>
			<point x="301" y="-12"/>
			<point x="254" y="-71"/>
		</contour>
	</outline>
	<anchor name="aboveLC" x="276" y="506"/>
	<anchor name="belowLC" x="284" y="-22"/>
</glyph>
<glyph name="gcommaaccent" format="1">
	<unicode hex="0123"/>
	<advance width="516"/>
	<outline>
		<contour>
			<point x="196" y="637" type="curve" smooth="yes"/>
			<point x="196" y="624"/>
			<point x="198" y="612"/>
			<point x="205" y="591" type="curve"/>
			<point x="219" y="578"/>
			<point x="234" y="572"/>
			<point x="250" y="572" type="curve" smooth="yes"/>
			<point x="277" y="572"/>
			<point x="300" y="592"/>
			<point x="300" y="620" type="curve" smooth="yes"/>
			<point x="300" y="653"/>
			<point x="268" y="683"/>
			<point x="231" y="692" type="curve"/>
			<point x="235" y="652" type="line"/>
			<point x="259" y="701"/>
			<point x="290" y="723"/>
			<point x="339" y="742" type="curve"/>
			<point x="329" y="770" type="line"/>
			<point x="259" y="747"/>
			<point x="196" y="707"/>
		</contour>
		<component base="g"/>
	</outline>
</glyph>
<glyph name="kgreenlandic" format="2">
	<unicode hex="0138"/>
	<advance width="554"/>
	<outline>
		<contour>
			<point x="115" y="0" type="curve"/>
			<point x="201" y="0" type="line"/>
			<point x="199" y="45"/>
			<point x="198" y="148"/>
			<point x="198" y="210" type="curve" smooth="yes"/>
			<point x="198" y="361" type="line"/>
			<point x="201" y="477" type="line"/>
			<point x="186" y="487" type="line"/>
			<point x="35" y="427" type="line"/>
			<point x="35" y="392" type="line"/>
			<point x="115" y="383" type="line"/>
			<point x="117" y="343"/>
			<point x="118" y="312"/>
			<point x="118" y="257" type="curve" smooth="yes"/>
			<point x="118" y="210" type="line" smooth="yes"/>
			<point x="118" y="148"/>
			<point x="117" y="45"/>
		</contour>
		<contour>
			<point x="41" y="0" type="line"/>
			<point x="271" y="0" type="line"/>
			<point x="271" y="35" type="line"/>
			<point x="171" y="55" type="line"/>
			<point x="151" y="55" type="line"/>
			<point x="41" y="35" type="line"/>
		</contour>
		<contour>
			<point x="158" y="138" type="line"/>
			<point x="486" y="474" type="line"/>
			<point x="425" y="474" type="line"/>
			<point x="158" y="196" type="line"/>
		</contour>
		<contour>
			<point x="422" y="0" type="line"/>
			<point x="554" y="0" type="line"/>
			<point x="554" y="35" type="line"/>
			<point x="444" y="55" type="line"/>
			<point x="508" y="16" type="line"/>
			<point x="311" y="324" type="line"/>
			<point x="255" y="266" type="line"/>
		</contour>
		<contour>
			<point x="297" y="436" type="line"/>
			<point x="398" y="411" type="line"/>
			<point x="418" y="419" type="line"/>
			<point x="529" y="436" type="line"/>
			<point x="529" y="474" type="line"/>
			<point x="297" y="474" type="line"/>
		</contour>
	</outline>
</glyph>
<glyph name="Lcaron" format="1">
	<unicode hex="013D"/>
	<advance width="597"/>
	<outline>
		<contour>
			<point x="478" y="740" type="curve" smooth="yes"/>
			<point x="463" y="740"/>
			<point x="448" y="736"/>
			<point x="432" y="728" type="curve"/>
			<point x="429" y="518" type="line"/>
			<point x="460" y="518" type="line"/>
			<point x="479" y="572" type="line" smooth="yes"/>
			<point x="495" y="619"/>
			<point x="513" y="675"/>
			<point x="513" y="704" type="curve" smooth="yes"/>
			<point x="513" y="726"/>
			<point x="503" y="740"/>
		</contour>
		<component base="L"/>
	</outline>
</glyph>
<glyph name="lcaron" format="1">
	<unicode hex="013E"/>
	<advance width="321"/>
	<outline>
		<contour>
			<point x="327" y="750" type="curve" smooth="yes"/>
			<point x="312" y="750"/>
			<point x="297" y="746"/>
			<point x="281" y="738" type="curve"/>
			<point x="278" y="528" type="line"/>
			<point x="309" y="528" type="line"/>
			<point x="328" y="582" type="line" smooth="yes"/>
			<point x="344" y="629"/>
			<point x="362" y="685"/>
			<point x="362" y="714" type="curve" smooth="yes"/>
			<point x="362" y="736"/>
			<point x="352" y="750"/>
		</contour>
		<component base="l"/>
	</outline>
</glyph>
<glyph name="Lslash" format="2">
	<unicode hex="0141"/>
	<advance width="597"/>
	<outline>
		<contour>
			<point x="396" y="460" type="line"/>
			<point x="185" y="339" type="line"/>
			<point x="185" y="289" type="line"/>
			<point x="396" y="410" type="line"/>
		</contour>
		<contour>
			<point x="185" y="344" type="line"/>
			<point x="45" y="264" type="line"/>
			<point x="45" y="215" type="line"/>
			<point x="185" y="294" type="line"/>
		</contour>
		<component base="L"/>
	</outline>
</glyph>
<glyph name="lslash" format="2">
	<unicode hex="0142"/>
	<advance width="296"/>
	<outline>
		<contour>
			<point x="147" y="414" type="line"/>
			<point x="25" y="351" type="line"/>
			<point x="25" y="303" type="line"/>
			<point x="147" y="366" type="line"/>
		</contour>
		<contour>
			<point x="271" y="474" type="line"/>
			<point x="147" y="409" type="line"/>
			<point x="147" y="361" type="line"/>
			<point x="271" y="425" type="line"/>
		</contour>
		<component base="l"/>
	</outline>
</glyph>
<glyph name="Eng" format="2">
	<unicode hex="014A"/>
	<advance width="735"/>
	<outline>
		<contour>
			<point x="40" y="0" type="line"/>
			<point x="280" y="0" type="line"/>
			<point x="280" y="40" type="line"/>
			<point x="165" y="55" type="line"/>
			<point x="145" y="55" type="line"/>
			<point x="40" y="40" type="line"/>
		</contour>
		<contour>
			<point x="578" y="-1" type="line"/>
			<point x="591" y="-1" type="line"/>
			<point x="602" y="110" type="line"/>
			<point x="195" y="670" type="line"/>
			<point x="45" y="670" type="line"/>
			<point x="45" y="630" type="line"/>
			<point x="165" y="615" type="line"/>
			<point x="103" y="645" type="line"/>
		</contour>
		<contour>
			<point x="125" y="0" type="line"/>
			<point x="175" y="0" type="line"/>
			<point x="175" y="630" type="line"/>
			<point x="125" y="670" type="line"/>
		</contour>
		<contour>
			<point x="455" y="630" type="line"/>
			<point x="575" y="615" type="line"/>
			<point x="595" y="615" type="line"/>
			<point x="695" y="630" type="line"/>
			<point x="695" y="670" type="line"/>
			<point x="455" y="670" type="line"/>
		</contour>
		<contour>
			<point x="610" y="670" type="line"/>
			<point x="560" y="670" type="line"/>
			<point x="564" y="89" type="line"/>
			<point x="560" y="51" type="line"/>
			<point x="560" y="-32"/>
			<point x="531" y="-86"/>
			<point x="469" y="-121" type="curve"/>
			<point x="494" y="-120" type="line"/>
			<point x="461" y="-95" type="line" smooth="yes"/>
			<point x="433" y="-74"/>
			<point x="412" y="-66"/>
			<point x="387" y="-66" type="curve" smooth="yes"/>
			<point x="356" y="-66"/>
			<point x="333" y="-78"/>
			<point x="327" y="-114" type="curve"/>
			<point x="336" y="-152"/>
			<point x="375" y="-162"/>
			<point x="422" y="-162" type="curve" smooth="yes"/>
			<point x="489" y="-162"/>
			<point x="548" y="-127"/>
			<point x="580" y="-65" type="curve" smooth="yes"/>
			<point x="608" y="-10"/>
			<point x="610" y="56"/>
			<point x="610" y="201" type="curve" smooth="yes"/>
		</contour>
	</outline>
</glyph>
<glyph name="oe" format="2">
	<unicode hex="0153"/>
	<advance width="869"/>
	<outline>
		<contour>
			<point x="274" y="442" type="curve" smooth="yes"/>
			<point x="362" y="442"/>
			<point x="412" y="367"/>
			<point x="412" y="233" type="curve" smooth="yes"/>
			<point x="412" y="99"/>
			<point x="362" y="32"/>
			<point x="274" y="32" type="curve" smooth="yes"/>
			<point x="186" y="32"/>
			<point x="136" y="102"/>
			<point x="136" y="236" type="curve" smooth="yes"/>
			<point x="136" y="370"/>
			<point x="186" y="442"/>
		</contour>
		<contour>
			<point x="475" y="128" type="curve"/>
			<point x="432" y="128" type="line"/>
			<point x="460" y="40"/>
			<point x="530" y="-13"/>
			<point x="629" y="-13" type="curve" smooth="yes"/>
			<point x="717" y="-13"/>
			<point x="782" y="28"/>
			<point x="820" y="103" type="curve"/>
			<point x="797" y="121" type="line"/>
			<point x="767" y="82"/>
			<point x="721" y="50"/>
			<point x="657" y="50" type="curve" smooth="yes"/>
			<point x="557" y="50"/>
			<point x="493" y="118"/>
			<point x="493" y="241" type="curve" smooth="yes"/>
			<point x="493" y="388"/>
			<point x="567" y="442"/>
			<point x="630" y="442" type="curve" smooth="yes"/>
			<point x="696" y="442"/>
			<point x="742" y="390"/>
			<point x="742" y="333" type="curve" smooth="yes"/>
			<point x="742" y="302"/>
			<point x="729" y="282"/>
			<point x="683" y="282" type="curve" smooth="yes"/>
			<point x="447" y="282" type="line"/>
			<point x="447" y="240" type="line"/>
			<point x="814" y="240" type="line"/>
			<point x="818" y="253"/>
			<point x="821" y="273"/>
			<point x="821" y="295" type="curve" smooth="yes"/>
			<point x="821" y="417"/>
			<point x="739" y="487"/>
			<point x="635" y="487" type="curve" smooth="yes"/>
			<point x="553" y="487"/>
			<point x="469" y="432"/>
			<point x="438" y="349" type="curve"/>
			<point x="475" y="349" type="line"/>
			<point x="443" y="436"/>
			<point x="353" y="487"/>
			<point x="274" y="487" type="curve" smooth="yes"/>
			<point x="160" y="487"/>
			<point x="46" y="402"/>
			<point x="46" y="236" type="curve" smooth="yes"/>
			<point x="46" y="70"/>
			<point x="160" y="-13"/>
			<point x="274" y="-13" type="curve" smooth="yes"/>
			<point x="353" y="-13"/>
			<point x="441" y="37"/>
		</contour>
	</outline>
	<anchor name="aboveLC" x="456" y="506"/>
</glyph>
<glyph name="tcaron" format="1">
	<unicode hex="0165"/>
	<advance width="323"/>
	<outline>
		<contour>
			<point x="307" y="750" type="curve" smooth="yes"/>
			<point x="292" y="750"/>
			<point x="277" y="746"/>
			<point x="261" y="738" type="curve"/>
			<point x="258" y="528" type="line"/>
			<point x="289" y="528" type="line"/>
			<point x="308" y="582" type="line" smooth="yes"/>
			<point x="324" y="629"/>
			<point x="342" y="685"/>
			<point x="342" y="714" type="curve" smooth="yes"/>
			<point x="342" y="736"/>
			<point x="332" y="750"/>
		</contour>
		<component base="t"/>
	</outline>
</glyph>
<glyph name="tbar" format="1">
	<unicode hex="0167"/>
	<advance width="323"/>
	<outline>
		<contour>
			<point x="9" y="249" type="line"/>
			<point x="311" y="249" type="line"/>
			<point x="311" y="294" type="line"/>
			<point x="9" y="294" type="line"/>
		</contour>
		<component base="t"/>
	</outline>
</glyph>
<glyph name="uogonek" format="2">
	<unicode hex="0173"/>
	<advance width="582"/>
	<outline>
		<contour>
			<point x="385" y="-132" type="curve" smooth="yes"/>
			<point x="385" y="-187"/>
			<point x="422" y="-220"/>
			<point x="475" y="-220" type="curve" smooth="yes"/>
			<point x="518" y="-220"/>
			<point x="554" y="-206"/>
			<point x="578" y="-172" type="curve"/>
			<point x="566" y="-150" type="line"/>
			<point x="546" y="-162"/>
			<point x="527" y="-165"/>
			<point x="514" y="-165" type="curve" smooth="yes"/>
			<point x="475" y="-165"/>
			<point x="446" y="-140"/>
			<point x="446" y="-97" type="curve" smooth="yes"/>
			<point x="446" y="-61"/>
			<point x="474" y="-24"/>
			<point x="517" y="3" type="curve"/>
			<point x="489" y="3" type="line"/>
			<point x="435" y="-24"/>
			<point x="385" y="-75"/>
		</contour>
		<component base="u"/>
	</outline>
	<anchor name="aboveLC" x="282" y="506"/>
	<anchor name="belowLC" x="299" y="-22"/>
	<anchor name="hornLC" x="449" y="471"/>
</glyph>
<glyph name="longs" format="2">
	<unicode hex="017F"/>
	<advance width="343"/>
	<outline>
		<contour>
			<point x="158" y="55" type="line"/>
			<point x="138" y="55" type="line"/>
			<point x="25" y="35" type="line"/>
			<point x="25" y="0" type="line"/>
			<point x="281" y="0" type="line"/>
			<point x="281" y="35" type="line"/>
		</contour>
		<contour>
			<point x="108" y="210" type="line" smooth="yes"/>
			<point x="108" y="140"/>
			<point x="107" y="70"/>
			<point x="105" y="0" type="curve"/>
			<point x="191" y="0" type="line"/>
			<point x="189" y="70"/>
			<point x="188" y="140"/>
			<point x="188" y="210" type="curve" smooth="yes"/>
			<point x="188" y="433" type="line" smooth="yes"/>
			<point x="188" y="555"/>
			<point x="194" y="621"/>
			<point x="216" y="661" type="curve" smooth="yes"/>
			<point x="232" y="690"/>
			<point x="255" y="711"/>
			<point x="286" y="720" type="curve"/>
			<point x="233" y="718" type="line"/>
			<point x="282" y="681" type="line" smooth="yes"/>
			<point x="308" y="661"/>
			<point x="329" y="653"/>
			<point x="353" y="653" type="curve" smooth="yes"/>
			<point x="389" y="653"/>
			<point x="411" y="672"/>
			<point x="413" y="697" type="curve"/>
			<point x="403" y="733"/>
			<point x="366" y="750"/>
			<point x="318" y="750" type="curve" smooth="yes"/>
			<point x="273" y="750"/>
			<point x="222" y="736"/>
			<point x="179" y="689" type="curve" smooth="yes"/>
			<point x="134" y="638"/>
			<point x="108" y="563"/>
			<point x="108" y="420" type="curve" smooth="yes"/>
		</contour>
	</outline>
</glyph>
<glyph name="florin" format="2">
	<unicode hex="0192"/>
	<advance width="497"/>
	<outline>
		<contour>
			<point x="102" y="345" type="line"/>
			<point x="424" y="345" type="line"/>
			<point x="424" y="395" type="line"/>
			<point x="102" y="395" type="line"/>
		</contour>
		<contour>
			<point x="294" y="349" type="line" smooth="yes"/>
			<point x="304" y="470"/>
			<point x="305" y="530"/>
			<point x="333" y="577" type="curve" smooth="yes"/>
			<point x="346" y="598"/>
			<point x="365" y="616"/>
			<point x="396" y="628" type="curve"/>
			<point x="363" y="628" type="line"/>
			<point x="396" y="595" type="line" smooth="yes"/>
			<point x="420" y="571"/>
			<point x="442" y="563"/>
			<point x="465" y="563" type="curve" smooth="yes"/>
			<point x="498" y="563"/>
			<point x="517" y="581"/>
			<point x="522" y="607" type="curve"/>
			<point x="512" y="637"/>
			<point x="474" y="660"/>
			<point x="420" y="660" type="curve" smooth="yes"/>
			<point x="378" y="660"/>
			<point x="331" y="643"/>
			<point x="298" y="610" type="curve" smooth="yes"/>
			<point x="245" y="557"/>
			<point x="227" y="483"/>
			<point x="216" y="354" type="curve" smooth="yes"/>
			<point x="204" y="217" type="line" smooth="yes"/>
			<point x="193" y="96"/>
			<point x="193" y="30"/>
			<point x="165" y="-17" type="curve" smooth="yes"/>
			<point x="152" y="-38"/>
			<point x="133" y="-56"/>
			<point x="102" y="-68" type="curve"/>
			<point x="136" y="-68" type="line"/>
			<point x="102" y="-35" type="line" smooth="yes"/>
			<point x="78" y="-11"/>
			<point x="56" y="-3"/>
			<point x="32" y="-3" type="curve" smooth="yes"/>
			<point x="-1" y="-3"/>
			<point x="-20" y="-21"/>
			<point x="-25" y="-47" type="curve"/>
			<point x="-15" y="-77"/>
			<point x="24" y="-100"/>
			<point x="78" y="-100" type="curve" smooth="yes"/>
			<point x="120" y="-100"/>
			<point x="164" y="-85"/>
			<point x="201" y="-48" type="curve" smooth="yes"/>
			<point x="254" y="5"/>
			<point x="270" y="86"/>
			<point x="284" y="233" type="curve" smooth="yes"/>
		</contour>
	</outline>
</glyph>
<glyph name="dotlessj" format="2">
	<unicode hex="0237"/>
	<advance width="275"/>
	<outline>
		<contour>
			<point x="113" y="77" type="line" smooth="yes"/>
			<point x="113" y="-102"/>
			<point x="111" y="-121"/>
			<point x="80" y="-179" type="curve" smooth="yes"/>
			<point x="73" y="-192"/>
			<point x="52" y="-216"/>
			<point x="29" y="-216" type="curve" smooth="yes"/>
			<point x="-3" y="-216"/>
			<point x="-23" y="-207"/>
			<point x="-33" y="-193" type="curve"/>
			<point x="-33" y="-232" type="line"/>
			<point x="96" y="-215" type="line"/>
			<point x="51" y="-183" type="line" smooth="yes"/>
			<point x="24" y="-164"/>
			<point x="3" y="-154"/>
			<point x="-23" y="-154" type="curve" smooth="yes"/>
			<point x="-52" y="-154"/>
			<point x="-72" y="-167"/>
			<point x="-81" y="-193" type="curve"/>
			<point x="-81" y="-219"/>
			<point x="-54" y="-250"/>
			<point x="16" y="-250" type="curve" smooth="yes"/>
			<point x="65" y="-250"/>
			<point x="99" y="-234"/>
			<point x="130" y="-200" type="curve" smooth="yes"/>
			<point x="183" y="-143"/>
			<point x="190" y="-73"/>
			<point x="190" y="93" type="curve" smooth="yes"/>
			<point x="190" y="342" type="line"/>
			<point x="193" y="477" type="line"/>
			<point x="178" y="487" type="line"/>
			<point x="30" y="427" type="line"/>
			<point x="30" y="392" type="line"/>
			<point x="110" y="383" type="line"/>
			<point x="112" y="343"/>
			<point x="113" y="312"/>
			<point x="113" y="257" type="curve" smooth="yes"/>
		</contour>
	</outline>
	<anchor name="aboveLC" x="154" y="502"/>
</glyph>
<glyph name="alphalatin" format="2">
	<unicode hex="0251"/>
	<advance width="555"/>
	<outline>
		<contour>
			<point x="245" y="-13" type="curve" smooth="yes"/>
			<point x="319" y="-13"/>
			<point x="370" y="20"/>
			<point x="413" y="97" type="curve"/>
			<point x="404" y="123" type="line"/>
			<point x="358" y="65"/>
			<point x="322" y="42"/>
			<point x="272" y="42" type="curve" smooth="yes"/>
			<point x="192" y="42"/>
			<point x="131" y="107"/>
			<point x="131" y="232" type="curve" smooth="yes"/>
			<point x="131" y="372"/>
			<point x="198" y="432"/>
			<point x="280" y="432" type="curve" smooth="yes"/>
			<point x="322" y="432"/>
			<point x="357" y="418"/>
			<point x="407" y="360" type="curve"/>
			<point x="417" y="386" type="line"/>
			<point x="376" y="461"/>
			<point x="324" y="487"/>
			<point x="273" y="487" type="curve" smooth="yes"/>
			<point x="138" y="487"/>
			<point x="46" y="382"/>
			<point x="46" y="226" type="curve" smooth="yes"/>
			<point x="46" y="74"/>
			<point x="128" y="-13"/>
		</contour>
		<contour>
			<point x="391" y="94" type="line"/>
			<point x="395" y="78" type="line"/>
			<point x="405" y="26"/>
			<point x="432" y="-10"/>
			<point x="482" y="-10" type="curve" smooth="yes"/>
			<point x="516" y="-10"/>
			<point x="543" y="3"/>
			<point x="567" y="41" type="curve"/>
			<point x="547" y="63" type="line"/>
			<point x="536" y="50"/>
			<point x="525" y="41"/>
			<point x="508" y="41" type="curve" smooth="yes"/>
			<point x="485" y="41"/>
			<point x="471" y="57"/>
			<point x="471" y="102" type="curve" smooth="yes"/>
			<point x="471" y="342" type="line"/>
			<point x="474" y="477" type="line"/>
			<point x="459" y="487" type="line"/>
			<point x="391" y="415" type="line"/>
		</contour>
	</outline>
	<anchor name="aboveLC" x="286" y="506"/>
	<anchor name="belowLC" x="296" y="-22"/>
</glyph>
<glyph name="gscript" format="2">
	<unicode hex="0261"/>
	<advance width="559"/>
	<outline>
		<contour>
			<point x="142" y="-188" type="curve"/>
			<point x="182" y="-224" type="line"/>
			<point x="161" y="-148" type="line" smooth="yes"/>
			<point x="147" y="-99"/>
			<point x="136" y="-77"/>
			<point x="103" y="-77" type="curve" smooth="yes"/>
			<point x="81" y="-77"/>
			<point x="65" y="-87"/>
			<point x="53" y="-109" type="curve"/>
			<point x="71" y="-209"/>
			<point x="143" y="-250"/>
			<point x="242" y="-250" type="curve" smooth="yes"/>
			<point x="305" y="-250"/>
			<point x="364" y="-233"/>
			<point x="404" y="-193" type="curve" smooth="yes"/>
			<point x="465" y="-132"/>
			<point x="475" y="-72"/>
			<point x="471" y="104" type="curve"/>
			<point x="471" y="342" type="line"/>
			<point x="474" y="477" type="line"/>
			<point x="459" y="487" type="line"/>
			<point x="391" y="415" type="line"/>
			<point x="391" y="98" type="line"/>
			<point x="395" y="82" type="line"/>
			<point x="398" y="-45"/>
			<point x="393" y="-106"/>
			<point x="364" y="-150" type="curve" smooth="yes"/>
			<point x="340" y="-187"/>
			<point x="297" y="-205"/>
			<point x="247" y="-205" type="curve" smooth="yes"/>
			<point x="201" y="-205"/>
			<point x="175" y="-201"/>
		</contour>
		<contour>
			<point x="245" y="-3" type="curve" smooth="yes"/>
			<point x="319" y="-3"/>
			<point x="370" y="30"/>
			<point x="413" y="107" type="curve"/>
			<point x="404" y="133" type="line"/>
			<point x="358" y="75"/>
			<point x="322" y="52"/>
			<point x="272" y="52" type="curve" smooth="yes"/>
			<point x="192" y="52"/>
			<point x="131" y="114"/>
			<point x="131" y="237" type="curve" smooth="yes"/>
			<point x="131" y="374"/>
			<point x="198" y="432"/>
			<point x="280" y="432" type="curve" smooth="yes"/>
			<point x="322" y="432"/>
			<point x="357" y="418"/>
			<point x="407" y="360" type="curve"/>
			<point x="417" y="386" type="line"/>
			<point x="376" y="461"/>
			<point x="324" y="487"/>
			<point x="273" y="487" type="curve" smooth="yes"/>
			<point x="138" y="487"/>
			<point x="46" y="384"/>
			<point x="46" y="231" type="curve" smooth="yes"/>
			<point x="46" y="81"/>
			<point x="128" y="-3"/>
		</contour>
	</outline>
	<anchor name="aboveLC" x="281" y="506"/>
	<anchor name="belowLC" x="253" y="-255"/>
</glyph>
<glyph name="r.sups" format="2">
	<unicode hex="02B3"/>
	<advance width="292"/>
	<outline>
		<contour>
			<point x="222" y="712" type="curve"/>
			<point x="186" y="708" type="line"/>
			<point x="202" y="691" type="line" smooth="yes"/>
			<point x="217" y="676"/>
			<point x="230" y="669"/>
			<point x="245" y="669" type="curve" smooth="yes"/>
			<point x="269" y="669"/>
			<point x="287" y="685"/>
			<point x="287" y="712" type="curve"/>
			<point x="282" y="741"/>
			<point x="260" y="750"/>
			<point x="241" y="750" type="curve" smooth="yes"/>
			<point x="199" y="750"/>
			<point x="157" y="708"/>
			<point x="134" y="643" type="curve"/>
			<point x="152" y="661" type="line"/>
			<point x="111" y="661" type="line"/>
			<point x="111" y="617" type="line"/>
			<point x="141" y="617" type="line"/>
			<point x="156" y="659"/>
			<point x="181" y="689"/>
		</contour>
		<contour>
			<point x="124" y="469" type="line"/>
			<point x="103" y="469" type="line"/>
			<point x="29" y="456" type="line"/>
			<point x="29" y="426" type="line"/>
			<point x="198" y="426" type="line"/>
			<point x="198" y="456" type="line"/>
		</contour>
		<contour>
			<point x="142" y="426" type="line"/>
			<point x="142" y="662" type="line"/>
			<point x="133" y="744" type="line"/>
			<point x="122" y="750" type="line"/>
			<point x="23" y="709" type="line"/>
			<point x="23" y="681" type="line"/>
			<point x="76" y="675" type="line"/>
			<point x="76" y="426" type="line"/>
		</contour>
	</outline>
</glyph>
<glyph name="w.sups" format="2">
	<unicode hex="02B7"/>
	<advance width="527"/>
	<outline>
		<contour>
			<point x="473" y="698" type="line"/>
			<point x="521" y="707" type="line"/>
			<point x="521" y="738" type="line"/>
			<point x="395" y="738" type="line"/>
			<point x="395" y="707" type="line"/>
			<point x="458" y="698" type="line"/>
		</contour>
		<contour>
			<point x="84" y="698" type="line"/>
			<point x="158" y="707" type="line"/>
			<point x="158" y="738" type="line"/>
			<point x="0" y="738" type="line"/>
			<point x="0" y="707" type="line"/>
			<point x="67" y="698" type="line"/>
		</contour>
		<contour>
			<point x="274" y="698" type="line"/>
			<point x="288" y="698" type="line"/>
			<point x="353" y="707" type="line"/>
			<point x="353" y="738" type="line"/>
			<point x="202" y="738" type="line"/>
			<point x="202" y="707" type="line"/>
		</contour>
		<contour>
			<point x="272" y="667" type="line"/>
			<point x="253" y="667" type="line"/>
			<point x="354" y="419" type="line"/>
			<point x="380" y="419" type="line"/>
			<point x="495" y="738" type="line"/>
			<point x="455" y="738" type="line"/>
			<point x="371" y="499" type="line"/>
			<point x="392" y="499" type="line"/>
			<point x="293" y="738" type="line"/>
			<point x="264" y="738" type="line"/>
			<point x="168" y="501" type="line"/>
			<point x="188" y="501" type="line"/>
			<point x="98" y="738" type="line"/>
			<point x="27" y="738" type="line"/>
			<point x="150" y="419" type="line"/>
			<point x="176" y="419" type="line"/>
		</contour>
	</outline>
</glyph>
<glyph name="ringhalfleftmod" format="2">
	<unicode hex="02BF"/>
	<advance width="166"/>
	<outline>
		<contour>
			<point x="26" y="651" type="curve" smooth="yes"/>
			<point x="26" y="586"/>
			<point x="68" y="550"/>
			<point x="140" y="550" type="curve"/>
			<point x="140" y="589" type="line"/>
			<point x="99" y="589"/>
			<point x="77" y="620"/>
			<point x="77" y="651" type="curve" smooth="yes"/>
			<point x="77" y="682"/>
			<point x="100" y="712"/>
			<point x="140" y="712" type="curve"/>
			<point x="140" y="751" type="line"/>
			<point x="68" y="751"/>
			<point x="26" y="713"/>
		</contour>
	</outline>
</glyph>
<glyph name="verticallinemod" format="2">
	<unicode hex="02C8"/>
	<advance width="114"/>
	<outline>
		<contour>
			<point x="28" y="553" type="line"/>
			<point x="86" y="553" type="line"/>
			<point x="92" y="749" type="line"/>
			<point x="22" y="749" type="line"/>
		</contour>
	</outline>
</glyph>
<glyph name="l.sups" format="2">
	<unicode hex="02E1"/>
	<advance width="204"/>
	<outline>
		<contour>
			<point x="112" y="469" type="line"/>
			<point x="93" y="469" type="line"/>
			<point x="18" y="456" type="line"/>
			<point x="18" y="426" type="line"/>
			<point x="188" y="426" type="line"/>
			<point x="188" y="456" type="line"/>
		</contour>
		<contour>
			<point x="16" y="869" type="line"/>
			<point x="16" y="841" type="line"/>
			<point x="70" y="835" type="line"/>
			<point x="70" y="426" type="line"/>
			<point x="136" y="426" type="line"/>
			<point x="136" y="894" type="line"/>
			<point x="126" y="899" type="line"/>
		</contour>
	</outline>
</glyph>
<glyph name="s.sups" format="2">
	<unicode hex="02E2"/>
	<advance width="301"/>
	<outline>
		<contour>
			<point x="140" y="416" type="curve" smooth="yes"/>
			<point x="227" y="416"/>
			<point x="273" y="460"/>
			<point x="273" y="515" type="curve" smooth="yes"/>
			<point x="273" y="558"/>
			<point x="249" y="591"/>
			<point x="180" y="615" type="curve" smooth="yes"/>
			<point x="160" y="622" type="line" smooth="yes"/>
			<point x="110" y="639"/>
			<point x="95" y="653"/>
			<point x="95" y="675" type="curve" smooth="yes"/>
			<point x="95" y="702"/>
			<point x="117" y="715"/>
			<point x="159" y="715" type="curve" smooth="yes"/>
			<point x="185" y="715"/>
			<point x="207" y="705"/>
			<point x="227" y="695" type="curve"/>
			<point x="201" y="729" type="line"/>
			<point x="215" y="655" type="line"/>
			<point x="252" y="655" type="line"/>
			<point x="255" y="725" type="line"/>
			<point x="225" y="741"/>
			<point x="196" y="750"/>
			<point x="159" y="750" type="curve" smooth="yes"/>
			<point x="84" y="750"/>
			<point x="38" y="709"/>
			<point x="38" y="655" type="curve" smooth="yes"/>
			<point x="38" y="610"/>
			<point x="70" y="581"/>
			<point x="120" y="561" type="curve" smooth="yes"/>
			<point x="151" y="550" type="line" smooth="yes"/>
			<point x="197" y="534"/>
			<point x="216" y="520"/>
			<point x="216" y="494" type="curve" smooth="yes"/>
			<point x="216" y="465"/>
			<point x="192" y="451"/>
			<point x="144" y="451" type="curve" smooth="yes"/>
			<point x="109" y="451"/>
			<point x="90" y="459"/>
			<point x="56" y="482" type="curve"/>
			<point x="90" y="437" type="line"/>
			<point x="73" y="520" type="line"/>
			<point x="34" y="520" type="line"/>
			<point x="36" y="446" type="line"/>
			<point x="70" y="426"/>
			<point x="100" y="416"/>
		</contour>
	</outline>
</glyph>
<glyph name="circumflexcmb" format="2">
	<unicode hex="0302"/>
	<outline>
		<contour>
			<point x="125" y="546" type="line"/>
			<point x="148" y="567" type="line"/>
			<point x="16" y="743" type="line"/>
			<point x="-16" y="743" type="line"/>
			<point x="-148" y="567" type="line"/>
			<point x="-125" y="546" type="line"/>
			<point x="42" y="699" type="line"/>
			<point x="-42" y="699" type="line"/>
		</contour>
	</outline>
	<anchor name="_aboveLC" x="0" y="506"/>
	<anchor name="aboveLC" x="0" y="733"/>
</glyph>
<glyph name="tildecmb" format="2">
	<unicode hex="0303"/>
	<outline>
		<contour>
			<point x="-162" y="586" type="curve"/>
			<point x="-136" y="577" type="line"/>
			<point x="-122" y="627"/>
			<point x="-104" y="658"/>
			<point x="-74" y="658" type="curve" smooth="yes"/>
			<point x="-47" y="658"/>
			<point x="-27" y="631"/>
			<point x="-5" y="609" type="curve" smooth="yes"/>
			<point x="15" y="589"/>
			<point x="35" y="575"/>
			<point x="68" y="575" type="curve" smooth="yes"/>
			<point x="124" y="575"/>
			<point x="150" y="626"/>
			<point x="162" y="703" type="curve"/>
			<point x="136" y="712" type="line"/>
			<point x="122" y="662"/>
			<point x="104" y="631"/>
			<point x="74" y="631" type="curve" smooth="yes"/>
			<point x="47" y="631"/>
			<point x="29" y="656"/>
			<point x="5" y="680" type="curve" smooth="yes"/>
			<point x="-14" y="699"/>
			<point x="-35" y="714"/>
			<point x="-68" y="714" type="curve" smooth="yes"/>
			<point x="-123" y="714"/>
			<point x="-151" y="663"/>
		</contour>
	</outline>
	<anchor name="_aboveLC" x="0" y="506"/>
	<anchor name="aboveLC" x="0" y="724"/>
</glyph>
<glyph name="dieresiscmb" format="2">
	<unicode hex="0308"/>
	<outline>
		<contour>
			<point x="-104" y="597" type="curve" smooth="yes"/>
			<point x="-72" y="597"/>
			<point x="-45" y="621"/>
			<point x="-45" y="653" type="curve" smooth="yes"/>
			<point x="-45" y="685"/>
			<point x="-72" y="709"/>
			<point x="-104" y="709" type="curve" smooth="yes"/>
			<point x="-136" y="709"/>
			<point x="-162" y="685"/>
			<point x="-162" y="653" type="curve" smooth="yes"/>
			<point x="-162" y="621"/>
			<point x="-136" y="597"/>
		</contour>
		<contour>
			<point x="104" y="597" type="curve" smooth="yes"/>
			<point x="136" y="597"/>
			<point x="162" y="621"/>
			<point x="162" y="653" type="curve" smooth="yes"/>
			<point x="162" y="685"/>
			<point x="136" y="709"/>
			<point x="104" y="709" type="curve" smooth="yes"/>
			<point x="72" y="709"/>
			<point x="45" y="685"/>
			<point x="45" y="653" type="curve" smooth="yes"/>
			<point x="45" y="621"/>
			<point x="72" y="597"/>
		</contour>
	</outline>
	<anchor name="_aboveLC" x="0" y="506"/>
	<anchor name="aboveLC" x="0" y="680"/>
</glyph>
<glyph name="caroncmb" format="2">
	<unicode hex="030C"/>
	<outline>
		<contour>
			<point x="-114" y="737" type="line"/>
			<point x="-138" y="718" type="line"/>
			<point x="-37" y="571" type="line"/>
			<point x="37" y="571" type="line"/>
			<point x="138" y="718" type="line"/>
			<point x="114" y="737" type="line"/>
			<point x="-42" y="594" type="line"/>
			<point x="42" y="594" type="line"/>
		</contour>
	</outline>
	<anchor name="_aboveLC" x="0" y="506"/>
	<anchor name="aboveLC" x="0" y="727"/>
</glyph>
<glyph name="tonos" format="1">
	<unicode hex="0384"/>
	<advance width="361"/>
	<outline>
		<component base="tonoscmb" xOffset="177"/>
		<contour>
			<point name="_aboveLC" x="157" y="506" type="move"/>
		</contour>
	</outline>
</glyph>
<glyph name="Alphatonos" format="1">
	<unicode hex="0386"/>
	<advance width="685"/>
	<outline>
		<contour>
			<point x="37" y="446" type="curve"/>
			<point x="74" y="435" type="line"/>
			<point x="96" y="481"/>
			<point x="117" y="527"/>
			<point x="141" y="582" type="curve" smooth="yes"/>
			<point x="146" y="594"/>
			<point x="151" y="609"/>
			<point x="151" y="623" type="curve" smooth="yes"/>
			<point x="151" y="650"/>
			<point x="133" y="660"/>
			<point x="115" y="660" type="curve" smooth="yes"/>
			<point x="94" y="660"/>
			<point x="76" y="646"/>
			<point x="60" y="574" type="curve" smooth="yes"/>
			<point x="55" y="550"/>
			<point x="45" y="498"/>
		</contour>
		<component base="Alpha" xOffset="22"/>
	</outline>
</glyph>
<glyph name="Epsilontonos" format="1">
	<unicode hex="0388"/>
	<advance width="708"/>
	<outline>
		<contour>
			<point x="-10" y="446" type="curve"/>
			<point x="27" y="435" type="line"/>
			<point x="49" y="481"/>
			<point x="70" y="527"/>
			<point x="94" y="582" type="curve" smooth="yes"/>
			<point x="99" y="594"/>
			<point x="104" y="609"/>
			<point x="104" y="623" type="curve" smooth="yes"/>
			<point x="104" y="650"/>
			<point x="86" y="660"/>
			<point x="68" y="660" type="curve" smooth="yes"/>
			<point x="47" y="660"/>
			<point x="29" y="646"/>
			<point x="13" y="574" type="curve" smooth="yes"/>
			<point x="8" y="550"/>
			<point x="-2" y="498"/>
		</contour>
		<component base="Epsilon" xOffset="104"/>
	</outline>
</glyph>
<glyph name="Omegatonos" format="1">
	<unicode hex="038F"/>
	<advance width="783"/>
	<outline>
		<contour>
			<point x="-14" y="446" type="curve"/>
			<point x="23" y="435" type="line"/>
			<point x="45" y="481"/>
			<point x="66" y="527"/>
			<point x="90" y="582" type="curve" smooth="yes"/>
			<point x="95" y="594"/>
			<point x="100" y="609"/>
			<point x="100" y="623" type="curve" smooth="yes"/>
			<point x="100" y="650"/>
			<point x="82" y="660"/>
			<point x="64" y="660" type="curve" smooth="yes"/>
			<point x="43" y="660"/>
			<point x="25" y="646"/>
			<point x="9" y="574" type="curve" smooth="yes"/>
			<point x="4" y="550"/>
			<point x="-6" y="498"/>
		</contour>
		<component base="Omega" xOffset="57"/>
	</outline>
</glyph>
<glyph name="Xi" format="1">
	<unicode hex="039E"/>
	<advance width="610"/>
	<outline>
		<contour>
			<point x="432" y="325" type="line"/>
			<point x="447" y="235" type="line"/>
			<point x="492" y="235" type="line"/>
			<point x="492" y="427" type="line"/>
			<point x="447" y="427" type="line"/>
			<point x="432" y="345" type="line"/>
		</contour>
		<contour>
			<point x="178" y="325" type="line"/>
			<point x="178" y="345" type="line"/>
			<point x="163" y="427" type="line"/>
			<point x="118" y="427" type="line"/>
			<point x="118" y="235" type="line"/>
			<point x="163" y="235" type="line"/>
		</contour>
		<contour>
			<point x="140" y="366" type="line"/>
			<point x="140" y="302" type="line"/>
			<point x="469" y="302" type="line"/>
			<point x="469" y="366" type="line"/>
		</contour>
		<contour>
			<point x="50" y="670" type="line"/>
			<point x="42" y="492" type="line"/>
			<point x="98" y="492" type="line"/>
			<point x="130" y="670" type="line"/>
			<point x="85" y="595" type="line"/>
			<point x="525" y="595" type="line"/>
			<point x="480" y="670" type="line"/>
			<point x="512" y="492" type="line"/>
			<point x="568" y="492" type="line"/>
			<point x="560" y="670" type="line"/>
		</contour>
		<contour>
			<point x="565" y="0" type="line"/>
			<point x="575" y="188" type="line"/>
			<point x="515" y="188" type="line"/>
			<point x="475" y="0" type="line"/>
			<point x="530" y="75" type="line"/>
			<point x="80" y="75" type="line"/>
			<point x="134" y="0" type="line"/>
			<point x="95" y="188" type="line"/>
			<point x="35" y="188" type="line"/>
			<point x="45" y="0" type="line"/>
		</contour>
	</outline>
</glyph>
<glyph name="Phi" format="1">
	<unicode hex="03A6"/>
	<advance width="738"/>
	<outline>
		<contour>
			<point x="38" y="344" type="curve" smooth="yes"/>
			<point x="38" y="221"/>
			<point x="110" y="108"/>
			<point x="330" y="108" type="curve" smooth="yes"/>
			<point x="359" y="108" type="line"/>
			<point x="359" y="154" type="line"/>
			<point x="331" y="154" type="line" smooth="yes"/>
			<point x="197" y="154"/>
			<point x="133" y="236"/>
			<point x="133" y="346" type="curve" smooth="yes"/>
			<point x="133" y="456"/>
			<point x="197" y="526"/>
			<point x="331" y="526" type="curve" smooth="yes"/>
			<point x="359" y="526" type="line"/>
			<point x="359" y="572" type="line"/>
			<point x="330" y="572" type="line"/>
			<point x="135" y="572"/>
			<point x="38" y="476"/>
		</contour>
		<contour>
			<point x="229" y="630" type="line"/>
			<point x="359" y="615" type="line"/>
			<point x="384" y="615" type="line"/>
			<point x="509" y="630" type="line"/>
			<point x="509" y="670" type="line"/>
			<point x="229" y="670" type="line"/>
		</contour>
		<contour>
			<point x="229" y="0" type="line"/>
			<point x="509" y="0" type="line"/>
			<point x="509" y="40" type="line"/>
			<point x="384" y="55" type="line"/>
			<point x="359" y="55" type="line"/>
			<point x="229" y="40" type="line"/>
		</contour>
		<contour>
			<point x="326" y="0" type="curve"/>
			<point x="412" y="0" type="line"/>
			<point x="410" y="101"/>
			<point x="409" y="221"/>
			<point x="409" y="320" type="curve" smooth="yes"/>
			<point x="409" y="372" type="line" smooth="yes"/>
			<point x="409" y="478"/>
			<point x="410" y="565"/>
			<point x="412" y="670" type="curve"/>
			<point x="326" y="670" type="line"/>
			<point x="329" y="564"/>
			<point x="329" y="476"/>
			<point x="329" y="370" type="curve" smooth="yes"/>
			<point x="329" y="320" type="line" smooth="yes"/>
			<point x="329" y="215"/>
			<point x="329" y="101"/>
		</contour>
		<contour>
			<point x="379" y="108" type="line"/>
			<point x="408" y="108" type="line" smooth="yes"/>
			<point x="629" y="108"/>
			<point x="700" y="221"/>
			<point x="700" y="344" type="curve" smooth="yes"/>
			<point x="700" y="473"/>
			<point x="611" y="572"/>
			<point x="408" y="572" type="curve"/>
			<point x="379" y="572" type="line"/>
			<point x="379" y="526" type="line"/>
			<point x="408" y="526" type="line" smooth="yes"/>
			<point x="541" y="526"/>
			<point x="605" y="456"/>
			<point x="605" y="346" type="curve" smooth="yes"/>
			<point x="605" y="236"/>
			<point x="541" y="154"/>
			<point x="408" y="154" type="curve" smooth="yes"/>
			<point x="379" y="154" type="line"/>
		</contour>
	</outline>
</glyph>
<glyph name="Psi" format="2">
	<unicode hex="03A8"/>
	<advance width="766"/>
	<outline>
		<contour>
			<point x="243" y="0" type="line"/>
			<point x="523" y="0" type="line"/>
			<point x="523" y="40" type="line"/>
			<point x="393" y="55" type="line"/>
			<point x="373" y="55" type="line"/>
			<point x="243" y="40" type="line"/>
		</contour>
		<contour>
			<point x="335" y="0" type="curve"/>
			<point x="431" y="0" type="line"/>
			<point x="428" y="103"/>
			<point x="428" y="207"/>
			<point x="428" y="310" type="curve" smooth="yes"/>
			<point x="428" y="360" type="line" smooth="yes"/>
			<point x="428" y="465"/>
			<point x="428" y="569"/>
			<point x="431" y="670" type="curve"/>
			<point x="335" y="670" type="line"/>
			<point x="338" y="567"/>
			<point x="338" y="463"/>
			<point x="338" y="360" type="curve" smooth="yes"/>
			<point x="338" y="310" type="line" smooth="yes"/>
			<point x="338" y="205"/>
			<point x="338" y="101"/>
		</contour>
		<contour>
			<point x="122" y="298"/>
			<point x="178" y="235"/>
			<point x="383" y="235" type="curve" smooth="yes"/>
			<point x="588" y="235"/>
			<point x="644" y="298"/>
			<point x="676" y="507" type="curve" smooth="yes"/>
			<point x="687" y="578" type="line" smooth="yes"/>
			<point x="692" y="608"/>
			<point x="701" y="622"/>
			<point x="729" y="626" type="curve" smooth="yes"/>
			<point x="756" y="630" type="line"/>
			<point x="756" y="670" type="line"/>
			<point x="706" y="670" type="line" smooth="yes"/>
			<point x="623" y="670"/>
			<point x="604" y="638"/>
			<point x="594" y="551" type="curve" smooth="yes"/>
			<point x="589" y="509" type="line" smooth="yes"/>
			<point x="569" y="343"/>
			<point x="545" y="281"/>
			<point x="383" y="281" type="curve" smooth="yes"/>
			<point x="221" y="281"/>
			<point x="197" y="343"/>
			<point x="177" y="509" type="curve" smooth="yes"/>
			<point x="172" y="551" type="line" smooth="yes"/>
			<point x="162" y="638"/>
			<point x="143" y="670"/>
			<point x="60" y="670" type="curve" smooth="yes"/>
			<point x="10" y="670" type="line"/>
			<point x="10" y="630" type="line"/>
			<point x="37" y="626" type="line" smooth="yes"/>
			<point x="65" y="622"/>
			<point x="74" y="608"/>
			<point x="79" y="578" type="curve" smooth="yes"/>
			<point x="90" y="507" type="line" smooth="yes"/>
		</contour>
		<contour>
			<point x="243" y="630" type="line"/>
			<point x="373" y="615" type="line"/>
			<point x="393" y="615" type="line"/>
			<point x="523" y="630" type="line"/>
			<point x="523" y="670" type="line"/>
			<point x="243" y="670" type="line"/>
		</contour>
	</outline>
</glyph>
<glyph name="Omega" format="1">
	<unicode hex="03A9"/>
	<unicode hex="2126"/>
	<advance width="720"/>
	<outline>
		<contour>
			<point x="80" y="170" type="line"/>
			<point x="25" y="170" type="line"/>
			<point x="45" y="0" type="line"/>
			<point x="308" y="0" type="line"/>
			<point x="307" y="63" type="line"/>
			<point x="277" y="63" type="line"/>
			<point x="70" y="63" type="line"/>
			<point x="130" y="0" type="line"/>
		</contour>
		<contour>
			<point x="640" y="170" type="line"/>
			<point x="590" y="0" type="line"/>
			<point x="650" y="63" type="line"/>
			<point x="454" y="63" type="line"/>
			<point x="413" y="63" type="line"/>
			<point x="412" y="0" type="line"/>
			<point x="675" y="0" type="line"/>
			<point x="695" y="170" type="line"/>
		</contour>
		<contour>
			<point x="360" y="635" type="curve" smooth="yes"/>
			<point x="490" y="635"/>
			<point x="562" y="552"/>
			<point x="562" y="387" type="curve" smooth="yes"/>
			<point x="562" y="263"/>
			<point x="512" y="172"/>
			<point x="407" y="121" type="curve"/>
			<point x="412" y="0" type="line"/>
			<point x="462" y="0" type="line"/>
			<point x="457" y="92" type="line"/>
			<point x="595" y="156"/>
			<point x="666" y="276"/>
			<point x="666" y="392" type="curve" smooth="yes"/>
			<point x="666" y="563"/>
			<point x="531" y="685"/>
			<point x="360" y="685" type="curve" smooth="yes"/>
			<point x="195" y="685"/>
			<point x="55" y="570"/>
			<point x="55" y="381" type="curve" smooth="yes"/>
			<point x="55" y="229"/>
			<point x="143" y="142"/>
			<point x="261" y="92" type="curve"/>
			<point x="256" y="0" type="line"/>
			<point x="308" y="0" type="line"/>
			<point x="313" y="121" type="line"/>
			<point x="221" y="171"/>
			<point x="160" y="237"/>
			<point x="160" y="387" type="curve" smooth="yes"/>
			<point x="160" y="541"/>
			<point x="226" y="635"/>
		</contour>
	</outline>
</glyph>
<glyph name="alpha" format="1">
	<unicode hex="03B1"/>
	<advance width="551"/>
	<outline>
		<contour>
			<point x="237" y="-13" type="curve" smooth="yes"/>
			<point x="315" y="-13"/>
			<point x="377" y="32"/>
			<point x="400" y="137" type="curve"/>
			<point x="380" y="138" type="line"/>
			<point x="386" y="17"/>
			<point x="414" y="-13"/>
			<point x="456" y="-13" type="curve" smooth="yes"/>
			<point x="490" y="-13"/>
			<point x="520" y="9"/>
			<point x="536" y="39" type="curve"/>
			<point x="528" y="64" type="line"/>
			<point x="514" y="59"/>
			<point x="498" y="55"/>
			<point x="485" y="55" type="curve" smooth="yes"/>
			<point x="454" y="55"/>
			<point x="441" y="71"/>
			<point x="441" y="126" type="curve" smooth="yes"/>
			<point x="441" y="203"/>
			<point x="456" y="350"/>
			<point x="477" y="476" type="curve"/>
			<point x="462" y="486" type="line"/>
			<point x="388" y="468" type="line"/>
			<point x="381" y="374" type="line"/>
			<point x="374" y="206" type="line" smooth="yes"/>
			<point x="369" y="96"/>
			<point x="315" y="34"/>
			<point x="254" y="34" type="curve" smooth="yes"/>
			<point x="175" y="34"/>
			<point x="124" y="107"/>
			<point x="124" y="250" type="curve" smooth="yes"/>
			<point x="124" y="373"/>
			<point x="169" y="442"/>
			<point x="247" y="442" type="curve" smooth="yes"/>
			<point x="306" y="442"/>
			<point x="365" y="391"/>
			<point x="377" y="280" type="curve"/>
			<point x="400" y="310" type="line"/>
			<point x="388" y="436"/>
			<point x="326" y="487"/>
			<point x="248" y="487" type="curve" smooth="yes"/>
			<point x="144" y="487"/>
			<point x="40" y="399"/>
			<point x="40" y="232" type="curve" smooth="yes"/>
			<point x="40" y="71"/>
			<point x="127" y="-13"/>
		</contour>
		<contour>
			<point name="aboveLC" x="280" y="506" type="move"/>
		</contour>
		<contour>
			<point name="belowLC" x="306" y="-22" type="move"/>
		</contour>
	</outline>
</glyph>
<glyph name="beta" format="2">
	<unicode hex="03B2"/>
	<advance width="561"/>
	<outline>
		<contour>
			<point x="80" y="-180" type="line"/>
			<point x="95" y="-190" type="line"/>
			<point x="171" y="-172" type="line"/>
			<point x="156" y="66" type="line"/>
			<point x="164" y="81" type="line"/>
			<point x="164" y="520" type="line" smooth="yes"/>
			<point x="164" y="631"/>
			<point x="213" y="695"/>
			<point x="286" y="695" type="curve" smooth="yes"/>
			<point x="354" y="695"/>
			<point x="393" y="644"/>
			<point x="393" y="569" type="curve" smooth="yes"/>
			<point x="393" y="480"/>
			<point x="334" y="425"/>
			<point x="221" y="408" type="curve"/>
			<point x="232" y="354" type="line"/>
			<point x="389" y="360"/>
			<point x="435" y="283"/>
			<point x="435" y="201" type="curve" smooth="yes"/>
			<point x="435" y="113"/>
			<point x="385" y="53"/>
			<point x="289" y="53" type="curve" smooth="yes"/>
			<point x="228" y="53"/>
			<point x="180" y="78"/>
			<point x="134" y="109" type="curve"/>
			<point x="123" y="97" type="line"/>
			<point x="162" y="21"/>
			<point x="227" y="-13"/>
			<point x="303" y="-13" type="curve" smooth="yes"/>
			<point x="401" y="-13"/>
			<point x="515" y="58"/>
			<point x="515" y="197" type="curve" smooth="yes"/>
			<point x="515" y="328"/>
			<point x="421" y="398"/>
			<point x="264" y="396" type="curve"/>
			<point x="272" y="376" type="line"/>
			<point x="429" y="399"/>
			<point x="473" y="497"/>
			<point x="473" y="573" type="curve" smooth="yes"/>
			<point x="473" y="679"/>
			<point x="395" y="740"/>
			<point x="297" y="740" type="curve" smooth="yes"/>
			<point x="176" y="740"/>
			<point x="86" y="646"/>
			<point x="86" y="500" type="curve" smooth="yes"/>
			<point x="86" y="10" type="line"/>
		</contour>
	</outline>
</glyph>
<glyph name="delta" format="1">
	<unicode hex="03B4"/>
	<advance width="537"/>
	<outline>
		<contour>
			<point x="152" y="449"/>
			<point x="46" y="344"/>
			<point x="46" y="205" type="curve" smooth="yes"/>
			<point x="46" y="82"/>
			<point x="129" y="-13"/>
			<point x="269" y="-13" type="curve" smooth="yes"/>
			<point x="403" y="-13"/>
			<point x="491" y="88"/>
			<point x="491" y="216" type="curve" smooth="yes"/>
			<point x="491" y="331"/>
			<point x="442" y="408"/>
			<point x="316" y="486" type="curve" smooth="yes"/>
			<point x="202" y="557"/>
			<point x="175" y="590"/>
			<point x="175" y="636" type="curve" smooth="yes"/>
			<point x="175" y="689"/>
			<point x="215" y="714"/>
			<point x="303" y="714" type="curve" smooth="yes"/>
			<point x="320" y="714"/>
			<point x="336" y="707"/>
			<point x="351" y="696" type="curve"/>
			<point x="342" y="727" type="line"/>
			<point x="251" y="740" type="line"/>
			<point x="346" y="658" type="line" smooth="yes"/>
			<point x="384" y="625"/>
			<point x="405" y="610"/>
			<point x="421" y="610" type="curve" smooth="yes"/>
			<point x="443" y="610"/>
			<point x="462" y="626"/>
			<point x="469" y="658" type="curve"/>
			<point x="438" y="712"/>
			<point x="377" y="749"/>
			<point x="283" y="749" type="curve" smooth="yes"/>
			<point x="180" y="749"/>
			<point x="109" y="704"/>
			<point x="109" y="610" type="curve" smooth="yes"/>
			<point x="109" y="541"/>
			<point x="148" y="497"/>
			<point x="261" y="436" type="curve" smooth="yes"/>
			<point x="366" y="379"/>
			<point x="406" y="314"/>
			<point x="406" y="205" type="curve" smooth="yes"/>
			<point x="406" y="88"/>
			<point x="344" y="32"/>
			<point x="270" y="32" type="curve" smooth="yes"/>
			<point x="189" y="32"/>
			<point x="138" y="106"/>
			<point x="138" y="212" type="curve" smooth="yes"/>
			<point x="138" y="338"/>
			<point x="209" y="415"/>
			<point x="325" y="439" type="curve"/>
			<point x="297" y="464" type="line"/>
		</contour>
	</outline>
</glyph>
<glyph name="epsilon" format="2">
	<unicode hex="03B5"/>
	<advance width="449"/>
	<outline>
		<contour>
			<point x="40" y="33"/>
			<point x="119" y="-13"/>
			<point x="225" y="-13" type="curve" smooth="yes"/>
			<point x="299" y="-13"/>
			<point x="372" y="12"/>
			<point x="421" y="65" type="curve"/>
			<point x="406" y="90" type="line"/>
			<point x="344" y="53"/>
			<point x="293" y="47"/>
			<point x="244" y="47" type="curve" smooth="yes"/>
			<point x="164" y="47"/>
			<point x="123" y="82"/>
			<point x="123" y="133" type="curve" smooth="yes"/>
			<point x="123" y="177"/>
			<point x="153" y="224"/>
			<point x="270" y="224" type="curve" smooth="yes"/>
			<point x="285" y="224"/>
			<point x="295" y="224"/>
			<point x="328" y="222" type="curve"/>
			<point x="328" y="286" type="line"/>
			<point x="298" y="285"/>
			<point x="280" y="284"/>
			<point x="260" y="284" type="curve" smooth="yes"/>
			<point x="175" y="284"/>
			<point x="133" y="315"/>
			<point x="133" y="368" type="curve" smooth="yes"/>
			<point x="133" y="421"/>
			<point x="176" y="451"/>
			<point x="255" y="451" type="curve" smooth="yes"/>
			<point x="275" y="451"/>
			<point x="292" y="449"/>
			<point x="315" y="444" type="curve"/>
			<point x="305" y="461" type="line"/>
			<point x="234" y="461" type="line"/>
			<point x="286" y="422" type="line" smooth="yes"/>
			<point x="318" y="398"/>
			<point x="337" y="389"/>
			<point x="359" y="389" type="curve" smooth="yes"/>
			<point x="388" y="389"/>
			<point x="405" y="413"/>
			<point x="405" y="438" type="curve"/>
			<point x="381" y="469"/>
			<point x="324" y="487"/>
			<point x="254" y="487" type="curve" smooth="yes"/>
			<point x="117" y="487"/>
			<point x="58" y="432"/>
			<point x="58" y="360" type="curve" smooth="yes"/>
			<point x="58" y="296"/>
			<point x="116" y="246"/>
			<point x="221" y="242" type="curve"/>
			<point x="221" y="254" type="line"/>
			<point x="118" y="253"/>
			<point x="40" y="198"/>
			<point x="40" y="117" type="curve" smooth="yes"/>
		</contour>
	</outline>
	<anchor name="aboveLC" x="229" y="506"/>
	<anchor name="belowLC" x="235" y="-23"/>
</glyph>
<glyph name="zeta" format="1">
	<unicode hex="03B6"/>
	<advance width="444"/>
	<outline>
		<contour>
			<point x="351" y="-205" type="line"/>
			<point x="390" y="-142"/>
			<point x="409" y="-105"/>
			<point x="409" y="-61" type="curve" smooth="yes"/>
			<point x="409" y="3"/>
			<point x="375" y="42"/>
			<point x="265" y="68" type="curve" smooth="yes"/>
			<point x="164" y="92"/>
			<point x="127" y="128"/>
			<point x="127" y="192" type="curve" smooth="yes"/>
			<point x="127" y="294"/>
			<point x="176" y="375"/>
			<point x="429" y="674" type="curve"/>
			<point x="426" y="727" type="line"/>
			<point x="73" y="745" type="line"/>
			<point x="73" y="670" type="line"/>
			<point x="410" y="670" type="line"/>
			<point x="396" y="708" type="line"/>
			<point x="133" y="421"/>
			<point x="46" y="287"/>
			<point x="46" y="174" type="curve" smooth="yes"/>
			<point x="46" y="70"/>
			<point x="108" y="25"/>
			<point x="245" y="-8" type="curve" smooth="yes"/>
			<point x="324" y="-27"/>
			<point x="343" y="-50"/>
			<point x="343" y="-94" type="curve" smooth="yes"/>
			<point x="343" y="-132"/>
			<point x="332" y="-164"/>
			<point x="315" y="-205" type="curve"/>
		</contour>
	</outline>
</glyph>
<glyph name="theta" format="2">
	<unicode hex="03B8"/>
	<advance width="510"/>
	<outline>
		<contour>
			<point x="257" y="-13" type="curve" smooth="yes"/>
			<point x="364" y="-13"/>
			<point x="460" y="60"/>
			<point x="460" y="352" type="curve" smooth="yes"/>
			<point x="460" y="636"/>
			<point x="367" y="740"/>
			<point x="257" y="740" type="curve" smooth="yes"/>
			<point x="147" y="740"/>
			<point x="50" y="646"/>
			<point x="50" y="352" type="curve" smooth="yes"/>
			<point x="50" y="70"/>
			<point x="151" y="-13"/>
		</contour>
		<contour>
			<point x="268" y="32" type="curve" smooth="yes"/>
			<point x="192" y="32"/>
			<point x="127" y="127"/>
			<point x="127" y="371" type="curve" smooth="yes"/>
			<point x="127" y="626"/>
			<point x="173" y="695"/>
			<point x="253" y="695" type="curve" smooth="yes"/>
			<point x="320" y="695"/>
			<point x="384" y="594"/>
			<point x="384" y="351" type="curve" smooth="yes"/>
			<point x="384" y="97"/>
			<point x="343" y="32"/>
		</contour>
		<contour>
			<point x="83" y="333" type="line"/>
			<point x="434" y="333" type="line"/>
			<point x="434" y="393" type="line"/>
			<point x="83" y="393" type="line"/>
		</contour>
	</outline>
</glyph>
<glyph name="kappa" format="2">
	<unicode hex="03BA"/>
	<advance width="528"/>
	<outline>
		<contour>
			<point x="103" y="-10" type="line"/>
			<point x="165" y="0" type="line"/>
			<point x="169" y="59"/>
			<point x="171" y="116"/>
			<point x="174" y="174" type="curve"/>
			<point x="179" y="365" type="line" smooth="yes"/>
			<point x="181" y="442"/>
			<point x="163" y="485"/>
			<point x="100" y="485" type="curve" smooth="yes"/>
			<point x="68" y="485"/>
			<point x="43" y="469"/>
			<point x="24" y="445" type="curve"/>
			<point x="35" y="415" type="line"/>
			<point x="47" y="417"/>
			<point x="61" y="419"/>
			<point x="74" y="419" type="curve" smooth="yes"/>
			<point x="103" y="419"/>
			<point x="111" y="401"/>
			<point x="111" y="372" type="curve" smooth="yes"/>
			<point x="108" y="178" type="line"/>
			<point x="94" y="0" type="line"/>
		</contour>
		<contour>
			<point x="155" y="107" type="line"/>
			<point x="191" y="177"/>
			<point x="220" y="216"/>
			<point x="253" y="274" type="curve"/>
			<point x="307" y="336"/>
			<point x="362" y="391"/>
			<point x="432" y="438" type="curve"/>
			<point x="333" y="387" type="line"/>
			<point x="421" y="390" type="line" smooth="yes"/>
			<point x="470" y="392"/>
			<point x="499" y="410"/>
			<point x="499" y="445" type="curve" smooth="yes"/>
			<point x="499" y="471"/>
			<point x="482" y="483"/>
			<point x="460" y="488" type="curve"/>
			<point x="426" y="484"/>
			<point x="398" y="471"/>
			<point x="359" y="440" type="curve" smooth="yes"/>
			<point x="288" y="383"/>
			<point x="195" y="265"/>
			<point x="149" y="143" type="curve"/>
		</contour>
		<contour>
			<point x="427" y="-13" type="curve" smooth="yes"/>
			<point x="456" y="-13"/>
			<point x="486" y="8"/>
			<point x="502" y="47" type="curve"/>
			<point x="494" y="72" type="line"/>
			<point x="484" y="68"/>
			<point x="465" y="65"/>
			<point x="444" y="65" type="curve" smooth="yes"/>
			<point x="409" y="65"/>
			<point x="380" y="92"/>
			<point x="265" y="303" type="curve"/>
			<point x="231" y="264" type="line"/>
			<point x="347" y="21"/>
			<point x="384" y="-13"/>
		</contour>
	</outline>
</glyph>
<glyph name="xi" format="1">
	<unicode hex="03BE"/>
	<advance width="462"/>
	<outline>
		<contour>
			<point x="416" y="-61" type="curve" smooth="yes"/>
			<point x="416" y="3"/>
			<point x="384" y="42"/>
			<point x="272" y="68" type="curve" smooth="yes"/>
			<point x="171" y="91"/>
			<point x="124" y="127"/>
			<point x="124" y="192" type="curve" smooth="yes"/>
			<point x="124" y="275"/>
			<point x="186" y="332"/>
			<point x="316" y="332" type="curve" smooth="yes"/>
			<point x="335" y="332"/>
			<point x="353" y="331"/>
			<point x="388" y="329" type="curve"/>
			<point x="388" y="405" type="line"/>
			<point x="325" y="405" type="line" smooth="yes"/>
			<point x="218" y="405"/>
			<point x="161" y="458"/>
			<point x="161" y="526" type="curve" smooth="yes"/>
			<point x="161" y="617"/>
			<point x="236" y="670"/>
			<point x="417" y="669" type="curve"/>
			<point x="417" y="730" type="line"/>
			<point x="50" y="744" type="line"/>
			<point x="50" y="667" type="line"/>
			<point x="247" y="678" type="line"/>
			<point x="262" y="684" type="line"/>
			<point x="159" y="659"/>
			<point x="89" y="607"/>
			<point x="89" y="510" type="curve"/>
			<point x="89" y="414"/>
			<point x="176" y="357"/>
			<point x="303" y="357" type="curve"/>
			<point x="303" y="367" type="line"/>
			<point x="128" y="367"/>
			<point x="43" y="273"/>
			<point x="43" y="174" type="curve" smooth="yes"/>
			<point x="43" y="75"/>
			<point x="107" y="27"/>
			<point x="252" y="-8" type="curve" smooth="yes"/>
			<point x="330" y="-27"/>
			<point x="350" y="-50"/>
			<point x="350" y="-94" type="curve" smooth="yes"/>
			<point x="350" y="-133"/>
			<point x="339" y="-164"/>
			<point x="322" y="-205" type="curve"/>
			<point x="358" y="-205" type="line"/>
			<point x="397" y="-142"/>
			<point x="416" y="-107"/>
		</contour>
	</outline>
</glyph>
<glyph name="sigma.end" format="1">
	<unicode hex="03C2"/>
	<advance width="454"/>
	<outline>
		<contour>
			<point x="43" y="91"/>
			<point x="98" y="27"/>
			<point x="242" y="-8" type="curve" smooth="yes"/>
			<point x="321" y="-27"/>
			<point x="340" y="-50"/>
			<point x="340" y="-94" type="curve" smooth="yes"/>
			<point x="340" y="-132"/>
			<point x="329" y="-164"/>
			<point x="312" y="-205" type="curve"/>
			<point x="348" y="-205" type="line"/>
			<point x="387" y="-142"/>
			<point x="406" y="-106"/>
			<point x="406" y="-61" type="curve" smooth="yes"/>
			<point x="406" y="3"/>
			<point x="372" y="43"/>
			<point x="265" y="68" type="curve" smooth="yes"/>
			<point x="190" y="86"/>
			<point x="124" y="121"/>
			<point x="124" y="241" type="curve" smooth="yes"/>
			<point x="124" y="375"/>
			<point x="177" y="438"/>
			<point x="261" y="450" type="curve"/>
			<point x="315" y="400" type="line" smooth="yes"/>
			<point x="338" y="378"/>
			<point x="352" y="372"/>
			<point x="372" y="372" type="curve" smooth="yes"/>
			<point x="402" y="372"/>
			<point x="420" y="392"/>
			<point x="419" y="422" type="curve"/>
			<point x="397" y="459"/>
			<point x="350" y="487"/>
			<point x="274" y="487" type="curve"/>
			<point x="140" y="487"/>
			<point x="43" y="388"/>
			<point x="43" y="231" type="curve" smooth="yes"/>
		</contour>
	</outline>
</glyph>
<glyph name="sigma" format="1">
	<unicode hex="03C3"/>
	<advance width="593"/>
	<outline>
		<contour>
			<point x="259" y="-13" type="curve" smooth="yes"/>
			<point x="386" y="-13"/>
			<point x="479" y="89"/>
			<point x="479" y="228" type="curve" smooth="yes"/>
			<point x="479" y="332"/>
			<point x="425" y="430"/>
			<point x="293" y="441" type="curve"/>
			<point x="281" y="429" type="line"/>
			<point x="376" y="407"/>
			<point x="400" y="321"/>
			<point x="400" y="236" type="curve" smooth="yes"/>
			<point x="400" y="95"/>
			<point x="342" y="32"/>
			<point x="262" y="32" type="curve" smooth="yes"/>
			<point x="181" y="32"/>
			<point x="124" y="97"/>
			<point x="124" y="221" type="curve" smooth="yes"/>
			<point x="124" y="352"/>
			<point x="188" y="421"/>
			<point x="300" y="426" type="curve"/>
			<point x="309" y="425" type="line"/>
			<point x="573" y="405" type="line"/>
			<point x="570" y="482" type="line"/>
			<point x="304" y="476" type="line" smooth="yes"/>
			<point x="156" y="473"/>
			<point x="40" y="392"/>
			<point x="40" y="222" type="curve" smooth="yes"/>
			<point x="40" y="80"/>
			<point x="126" y="-13"/>
		</contour>
	</outline>
</glyph>
<glyph name="upsilon" format="1">
	<unicode hex="03C5"/>
	<advance width="526"/>
	<outline>
		<contour>
			<point x="93" y="165" type="curve" smooth="yes"/>
			<point x="93" y="42"/>
			<point x="158" y="-13"/>
			<point x="271" y="-13" type="curve"/>
			<point x="380" y="-13"/>
			<point x="476" y="59"/>
			<point x="476" y="253" type="curve" smooth="yes"/>
			<point x="476" y="337"/>
			<point x="475" y="397"/>
			<point x="456" y="474" type="curve"/>
			<point x="447" y="482"/>
			<point x="435" y="487"/>
			<point x="420" y="487" type="curve" smooth="yes"/>
			<point x="391" y="487"/>
			<point x="369" y="468"/>
			<point x="369" y="434" type="curve" smooth="yes"/>
			<point x="369" y="405"/>
			<point x="378" y="381"/>
			<point x="440" y="249" type="curve"/>
			<point x="440" y="314" type="line"/>
			<point x="423" y="314" type="line"/>
			<point x="426" y="276"/>
			<point x="427" y="249"/>
			<point x="427" y="226" type="curve" smooth="yes"/>
			<point x="427" y="108"/>
			<point x="362" y="41"/>
			<point x="279" y="41" type="curve" smooth="yes"/>
			<point x="192" y="41"/>
			<point x="167" y="89"/>
			<point x="167" y="176" type="curve" smooth="yes"/>
			<point x="167" y="251"/>
			<point x="187" y="323"/>
			<point x="187" y="404" type="curve" smooth="yes"/>
			<point x="187" y="441"/>
			<point x="173" y="484"/>
			<point x="110" y="484" type="curve" smooth="yes"/>
			<point x="72" y="484"/>
			<point x="43" y="468"/>
			<point x="24" y="444" type="curve"/>
			<point x="35" y="414" type="line"/>
			<point x="47" y="416"/>
			<point x="60" y="418"/>
			<point x="72" y="418" type="curve" smooth="yes"/>
			<point x="108" y="418"/>
			<point x="111" y="399"/>
			<point x="111" y="363" type="curve" smooth="yes"/>
			<point x="111" y="317"/>
			<point x="93" y="239"/>
		</contour>
		<contour>
			<point name="aboveLC" x="265" y="496" type="move"/>
		</contour>
	</outline>
</glyph>
<glyph name="phi" format="2">
	<unicode hex="03C6"/>
	<advance width="717"/>
	<outline>
		<contour>
			<point x="311" y="-180" type="line"/>
			<point x="326" y="-190" type="line"/>
			<point x="402" y="-172" type="line"/>
			<point x="391" y="12" type="line"/>
			<point x="389" y="630" type="line"/>
			<point x="336" y="630" type="line"/>
			<point x="324" y="10" type="line"/>
		</contour>
		<contour>
			<point x="340" y="-13" type="curve"/>
			<point x="340" y="32" type="line"/>
			<point x="206" y="32"/>
			<point x="125" y="97"/>
			<point x="125" y="240" type="curve" smooth="yes"/>
			<point x="125" y="360"/>
			<point x="185" y="442"/>
			<point x="339" y="442" type="curve"/>
			<point x="339" y="487" type="line"/>
			<point x="126" y="487"/>
			<point x="40" y="353"/>
			<point x="40" y="234" type="curve" smooth="yes"/>
			<point x="40" y="84"/>
			<point x="142" y="-13"/>
		</contour>
		<contour>
			<point x="380" y="-13" type="line"/>
			<point x="593" y="-13"/>
			<point x="677" y="121"/>
			<point x="677" y="240" type="curve" smooth="yes"/>
			<point x="677" y="391"/>
			<point x="576" y="487"/>
			<point x="377" y="487" type="curve"/>
			<point x="377" y="442" type="line"/>
			<point x="511" y="442"/>
			<point x="592" y="376"/>
			<point x="592" y="237" type="curve" smooth="yes"/>
			<point x="592" y="107"/>
			<point x="520" y="32"/>
			<point x="380" y="32" type="curve"/>
		</contour>
	</outline>
</glyph>
<glyph name="psi" format="1">
	<unicode hex="03C8"/>
	<advance width="691"/>
	<outline>
		<contour>
			<point x="324" y="-192" type="line"/>
			<point x="334" y="-199" type="line"/>
			<point x="404" y="-182" type="line"/>
			<point x="392" y="630" type="line"/>
			<point x="339" y="630" type="line"/>
			<point x="331" y="10" type="line"/>
		</contour>
		<contour>
			<point x="351" y="-13" type="line"/>
			<point x="541" y="-13"/>
			<point x="631" y="89"/>
			<point x="631" y="314" type="curve" smooth="yes"/>
			<point x="631" y="360"/>
			<point x="631" y="412"/>
			<point x="624" y="468" type="curve"/>
			<point x="614" y="480"/>
			<point x="598" y="487"/>
			<point x="583" y="487" type="curve" smooth="yes"/>
			<point x="555" y="487"/>
			<point x="527" y="470"/>
			<point x="527" y="434" type="curve" smooth="yes"/>
			<point x="527" y="414"/>
			<point x="537" y="385"/>
			<point x="551" y="346" type="curve" smooth="yes"/>
			<point x="585" y="251" type="line"/>
			<point x="585" y="381" type="line"/>
			<point x="573" y="381" type="line"/>
			<point x="576" y="363"/>
			<point x="578" y="338"/>
			<point x="578" y="321" type="curve" smooth="yes"/>
			<point x="578" y="102"/>
			<point x="505" y="37"/>
			<point x="361" y="37" type="curve"/>
		</contour>
		<contour>
			<point x="371" y="37" type="line"/>
			<point x="232" y="37"/>
			<point x="182" y="94"/>
			<point x="182" y="178" type="curve" smooth="yes"/>
			<point x="182" y="252"/>
			<point x="187" y="339"/>
			<point x="187" y="404" type="curve" smooth="yes"/>
			<point x="187" y="441"/>
			<point x="173" y="484"/>
			<point x="110" y="484" type="curve" smooth="yes"/>
			<point x="72" y="484"/>
			<point x="43" y="468"/>
			<point x="24" y="444" type="curve"/>
			<point x="35" y="414" type="line"/>
			<point x="47" y="416"/>
			<point x="60" y="418"/>
			<point x="72" y="418" type="curve" smooth="yes"/>
			<point x="108" y="418"/>
			<point x="111" y="399"/>
			<point x="111" y="363" type="curve" smooth="yes"/>
			<point x="111" y="307"/>
			<point x="108" y="240"/>
			<point x="108" y="179" type="curve" smooth="yes"/>
			<point x="108" y="50"/>
			<point x="205" y="-13"/>
			<point x="361" y="-13" type="curve"/>
		</contour>
	</outline>
</glyph>
<glyph name="omega" format="1">
	<unicode hex="03C9"/>
	<advance width="731"/>
	<outline>
		<contour>
			<point x="226" y="-13" type="curve" smooth="yes"/>
			<point x="292" y="-13"/>
			<point x="343" y="22"/>
			<point x="362" y="100" type="curve"/>
			<point x="382" y="24"/>
			<point x="434" y="-13"/>
			<point x="503" y="-13" type="curve" smooth="yes"/>
			<point x="612" y="-13"/>
			<point x="691" y="74"/>
			<point x="691" y="220" type="curve" smooth="yes"/>
			<point x="691" y="345"/>
			<point x="633" y="446"/>
			<point x="533" y="484" type="curve"/>
			<point x="501" y="440" type="line"/>
			<point x="573" y="388"/>
			<point x="607" y="332"/>
			<point x="607" y="208" type="curve" smooth="yes"/>
			<point x="607" y="86"/>
			<point x="560" y="41"/>
			<point x="502" y="41" type="curve" smooth="yes"/>
			<point x="440" y="41"/>
			<point x="400" y="83"/>
			<point x="400" y="178" type="curve"/>
			<point x="400" y="208"/>
			<point x="407" y="260"/>
			<point x="409" y="334" type="curve"/>
			<point x="401" y="339" type="line"/>
			<point x="320" y="330" type="line"/>
			<point x="326" y="247"/>
			<point x="329" y="208"/>
			<point x="329" y="167" type="curve" smooth="yes"/>
			<point x="329" y="83"/>
			<point x="298" y="41"/>
			<point x="233" y="41" type="curve" smooth="yes"/>
			<point x="172" y="41"/>
			<point x="124" y="95"/>
			<point x="124" y="218" type="curve" smooth="yes"/>
			<point x="124" y="342"/>
			<point x="158" y="408"/>
			<point x="220" y="460" type="curve"/>
			<point x="198" y="484" type="line"/>
			<point x="120" y="449"/>
			<point x="40" y="368"/>
			<point x="40" y="212" type="curve" smooth="yes"/>
			<point x="40" y="62"/>
			<point x="132" y="-13"/>
		</contour>
		<contour>
			<point name="aboveLC" x="365" y="506" type="move"/>
		</contour>
		<contour>
			<point name="belowLC" x="357" y="-22" type="move"/>
		</contour>
	</outline>
</glyph>
<glyph name="iotadieresis" format="2">
	<unicode hex="03CA"/>
	<advance width="285"/>
	<outline>
		<contour>
			<point x="54" y="597" type="curve" smooth="yes"/>
			<point x="86" y="597"/>
			<point x="113" y="621"/>
			<point x="113" y="653" type="curve" smooth="yes"/>
			<point x="113" y="685"/>
			<point x="86" y="709"/>
			<point x="54" y="709" type="curve" smooth="yes"/>
			<point x="22" y="709"/>
			<point x="-4" y="685"/>
			<point x="-4" y="653" type="curve" smooth="yes"/>
			<point x="-4" y="621"/>
			<point x="22" y="597"/>
		</contour>
		<contour>
			<point x="242" y="597" type="curve" smooth="yes"/>
			<point x="274" y="597"/>
			<point x="300" y="621"/>
			<point x="300" y="653" type="curve" smooth="yes"/>
			<point x="300" y="685"/>
			<point x="274" y="709"/>
			<point x="242" y="709" type="curve" smooth="yes"/>
			<point x="210" y="709"/>
			<point x="183" y="685"/>
			<point x="183" y="653" type="curve" smooth="yes"/>
			<point x="183" y="621"/>
			<point x="210" y="597"/>
		</contour>
		<component base="iota"/>
	</outline>
</glyph>
<glyph name="kai" format="2">
	<unicode hex="03D7"/>
	<advance width="638"/>
	<outline>
		<contour>
			<point x="151" y="-10" type="line"/>
			<point x="213" y="0" type="line"/>
			<point x="217" y="59"/>
			<point x="219" y="116"/>
			<point x="222" y="174" type="curve" smooth="yes"/>
			<point x="225" y="231"/>
			<point x="227" y="288"/>
			<point x="227" y="365" type="curve" smooth="yes"/>
			<point x="227" y="442"/>
			<point x="211" y="485"/>
			<point x="148" y="485" type="curve" smooth="yes"/>
			<point x="116" y="485"/>
			<point x="91" y="469"/>
			<point x="72" y="445" type="curve"/>
			<point x="83" y="415" type="line"/>
			<point x="95" y="417"/>
			<point x="109" y="419"/>
			<point x="122" y="419" type="curve" smooth="yes"/>
			<point x="151" y="419"/>
			<point x="159" y="401"/>
			<point x="159" y="372" type="curve" smooth="yes"/>
			<point x="156" y="178" type="line"/>
			<point x="142" y="0" type="line"/>
		</contour>
		<contour>
			<point x="203" y="107" type="line"/>
			<point x="239" y="177"/>
			<point x="268" y="216"/>
			<point x="301" y="274" type="curve"/>
			<point x="357" y="332"/>
			<point x="410" y="391"/>
			<point x="480" y="438" type="curve"/>
			<point x="381" y="387" type="line"/>
			<point x="469" y="390" type="line" smooth="yes"/>
			<point x="518" y="392"/>
			<point x="547" y="410"/>
			<point x="547" y="445" type="curve" smooth="yes"/>
			<point x="547" y="471"/>
			<point x="530" y="483"/>
			<point x="508" y="488" type="curve"/>
			<point x="474" y="484"/>
			<point x="446" y="471"/>
			<point x="407" y="440" type="curve" smooth="yes"/>
			<point x="336" y="383"/>
			<point x="243" y="265"/>
			<point x="197" y="143" type="curve"/>
		</contour>
		<contour>
			<point x="253" y="-216" type="curve" smooth="yes"/>
			<point x="420" y="-216"/>
			<point x="515" y="-122"/>
			<point x="588" y="37" type="curve"/>
			<point x="581" y="61" type="line"/>
			<point x="563" y="57"/>
			<point x="554" y="55"/>
			<point x="538" y="55" type="curve" smooth="yes"/>
			<point x="468" y="55"/>
			<point x="378" y="171"/>
			<point x="311" y="302" type="curve"/>
			<point x="284" y="271" type="line"/>
			<point x="340" y="141"/>
			<point x="417" y="-13"/>
			<point x="519" y="-13" type="curve" smooth="yes"/>
			<point x="527" y="-13"/>
			<point x="534" y="-12"/>
			<point x="541" y="-9" type="curve"/>
			<point x="542" y="18" type="line"/>
			<point x="486" y="-91"/>
			<point x="375" y="-141"/>
			<point x="262" y="-141" type="curve" smooth="yes"/>
			<point x="151" y="-141"/>
			<point x="69" y="-97"/>
			<point x="48" y="25" type="curve"/>
			<point x="15" y="19" type="line"/>
			<point x="15" y="-114"/>
			<point x="102" y="-216"/>
		</contour>
	</outline>
</glyph>
<glyph name="stigma" format="1">
	<unicode hex="03DB"/>
	<advance width="441"/>
	<outline>
		<contour>
			<point x="235" y="391" type="curve" smooth="yes"/>
			<point x="299" y="397" type="line" smooth="yes"/>
			<point x="365" y="403"/>
			<point x="395" y="420"/>
			<point x="414" y="498" type="curve" smooth="yes"/>
			<point x="433" y="574" type="line"/>
			<point x="395" y="579" type="line"/>
			<point x="381" y="538" type="line" smooth="yes"/>
			<point x="367" y="498"/>
			<point x="349" y="478"/>
			<point x="305" y="474" type="curve" smooth="yes"/>
			<point x="243" y="468" type="line" smooth="yes"/>
			<point x="134" y="457"/>
			<point x="38" y="371"/>
			<point x="38" y="218" type="curve" smooth="yes"/>
			<point x="38" y="70"/>
			<point x="102" y="26"/>
			<point x="238" y="-8" type="curve" smooth="yes"/>
			<point x="317" y="-28"/>
			<point x="336" y="-50"/>
			<point x="336" y="-94" type="curve" smooth="yes"/>
			<point x="336" y="-132"/>
			<point x="325" y="-164"/>
			<point x="308" y="-205" type="curve"/>
			<point x="344" y="-205" type="line"/>
			<point x="383" y="-142"/>
			<point x="402" y="-105"/>
			<point x="402" y="-61" type="curve" smooth="yes"/>
			<point x="402" y="3"/>
			<point x="368" y="42"/>
			<point x="258" y="68" type="curve" smooth="yes"/>
			<point x="124" y="100"/>
			<point x="93" y="156"/>
			<point x="93" y="233" type="curve" smooth="yes"/>
			<point x="93" y="331"/>
			<point x="143" y="382"/>
		</contour>
	</outline>
</glyph>
<glyph name="Dje" format="2">
	<unicode hex="0402"/>
	<advance width="709"/>
	<outline>
		<contour>
			<point x="20" y="492" type="line"/>
			<point x="76" y="492" type="line"/>
			<point x="108" y="670" type="line"/>
			<point x="63" y="620" type="line"/>
			<point x="539" y="620" type="line"/>
			<point x="494" y="670" type="line"/>
			<point x="526" y="492" type="line"/>
			<point x="582" y="492" type="line"/>
			<point x="574" y="670" type="line"/>
			<point x="28" y="670" type="line"/>
		</contour>
		<contour>
			<point x="141" y="0" type="line"/>
			<point x="291" y="0" type="line"/>
			<point x="291" y="55" type="line"/>
			<point x="281" y="55" type="line"/>
			<point x="141" y="40" type="line"/>
		</contour>
		<contour>
			<point x="243" y="0" type="curve"/>
			<point x="339" y="0" type="line"/>
			<point x="336" y="103"/>
			<point x="336" y="207"/>
			<point x="336" y="310" type="curve" smooth="yes"/>
			<point x="336" y="360" type="line" smooth="yes"/>
			<point x="336" y="465"/>
			<point x="336" y="569"/>
			<point x="339" y="670" type="curve"/>
			<point x="243" y="670" type="line"/>
			<point x="246" y="567"/>
			<point x="246" y="463"/>
			<point x="246" y="360" type="curve" smooth="yes"/>
			<point x="246" y="310" type="line" smooth="yes"/>
			<point x="246" y="205"/>
			<point x="246" y="101"/>
		</contour>
		<contour>
			<point x="449" y="-59" type="line"/>
			<point x="622" y="-48"/>
			<point x="689" y="64"/>
			<point x="689" y="168" type="curve" smooth="yes"/>
			<point x="689" y="294"/>
			<point x="606" y="388"/>
			<point x="437" y="388" type="curve" smooth="yes"/>
			<point x="392" y="388"/>
			<point x="340" y="384"/>
			<point x="291" y="378" type="curve"/>
			<point x="291" y="328" type="line"/>
			<point x="328" y="336"/>
			<point x="366" y="338"/>
			<point x="416" y="338" type="curve" smooth="yes"/>
			<point x="548" y="338"/>
			<point x="594" y="275"/>
			<point x="594" y="168" type="curve" smooth="yes"/>
			<point x="594" y="61"/>
			<point x="539" y="-2"/>
			<point x="436" y="-20" type="curve"/>
		</contour>
	</outline>
</glyph>
<glyph name="Ieukran" format="2">
	<unicode hex="0404"/>
	<advance width="615"/>
	<outline>
		<contour>
			<point x="369" y="-15" type="curve" smooth="yes"/>
			<point x="439" y="-15"/>
			<point x="508" y="-1"/>
			<point x="571" y="33" type="curve"/>
			<point x="575" y="178" type="line"/>
			<point x="514" y="178" type="line"/>
			<point x="489" y="30" type="line"/>
			<point x="551" y="45" type="line"/>
			<point x="551" y="99" type="line"/>
			<point x="494" y="52"/>
			<point x="430" y="35"/>
			<point x="373" y="35" type="curve" smooth="yes"/>
			<point x="221" y="35"/>
			<point x="143" y="119"/>
			<point x="143" y="335" type="curve" smooth="yes"/>
			<point x="143" y="551"/>
			<point x="231" y="635"/>
			<point x="380" y="635" type="curve" smooth="yes"/>
			<point x="434" y="635"/>
			<point x="483" y="619"/>
			<point x="541" y="569" type="curve"/>
			<point x="541" y="624" type="line"/>
			<point x="479" y="640" type="line"/>
			<point x="504" y="492" type="line"/>
			<point x="565" y="492" type="line"/>
			<point x="561" y="637" type="line"/>
			<point x="493" y="676"/>
			<point x="422" y="685"/>
			<point x="368" y="685" type="curve" smooth="yes"/>
			<point x="175" y="685"/>
			<point x="48" y="535"/>
			<point x="48" y="335" type="curve" smooth="yes"/>
			<point x="48" y="131"/>
			<point x="169" y="-15"/>
		</contour>
		<contour>
			<point x="118" y="317" type="line"/>
			<point x="394" y="317" type="line"/>
			<point x="394" y="363" type="line"/>
			<point x="118" y="363" type="line"/>
		</contour>
		<contour>
			<point x="377" y="222" type="line"/>
			<point x="422" y="222" type="line"/>
			<point x="422" y="459" type="line"/>
			<point x="377" y="459" type="line"/>
			<point x="362" y="353" type="line"/>
			<point x="362" y="333" type="line"/>
		</contour>
	</outline>
	<anchor name="aboveUC" x="353" y="691"/>
</glyph>
<glyph name="Nje" format="1">
	<unicode hex="040A"/>
	<advance width="972"/>
	<outline>
		<contour>
			<point x="540" y="330" type="line" smooth="yes"/>
			<point x="540" y="205"/>
			<point x="540" y="101"/>
			<point x="537" y="0" type="curve"/>
			<point x="633" y="0" type="line"/>
			<point x="630" y="103"/>
			<point x="630" y="207"/>
			<point x="630" y="310" type="curve" smooth="yes"/>
			<point x="630" y="360" type="line" smooth="yes"/>
			<point x="630" y="465"/>
			<point x="630" y="569"/>
			<point x="633" y="670" type="curve"/>
			<point x="537" y="670" type="line"/>
			<point x="540" y="567"/>
			<point x="540" y="463"/>
			<point x="540" y="360" type="curve" smooth="yes"/>
		</contour>
		<contour>
			<point x="140" y="310" type="line" smooth="yes"/>
			<point x="140" y="205"/>
			<point x="140" y="101"/>
			<point x="137" y="0" type="curve"/>
			<point x="233" y="0" type="line"/>
			<point x="230" y="103"/>
			<point x="230" y="207"/>
			<point x="230" y="330" type="curve" smooth="yes"/>
			<point x="230" y="360" type="line" smooth="yes"/>
			<point x="230" y="465"/>
			<point x="230" y="569"/>
			<point x="233" y="670" type="curve"/>
			<point x="137" y="670" type="line"/>
			<point x="140" y="567"/>
			<point x="140" y="463"/>
			<point x="140" y="360" type="curve" smooth="yes"/>
		</contour>
		<contour>
			<point x="175" y="615" type="line"/>
			<point x="195" y="615" type="line"/>
			<point x="325" y="630" type="line"/>
			<point x="325" y="670" type="line"/>
			<point x="45" y="670" type="line"/>
			<point x="45" y="630" type="line"/>
		</contour>
		<contour>
			<point x="175" y="55" type="line"/>
			<point x="45" y="40" type="line"/>
			<point x="45" y="0" type="line"/>
			<point x="325" y="0" type="line"/>
			<point x="325" y="40" type="line"/>
			<point x="195" y="55" type="line"/>
		</contour>
		<contour>
			<point x="585" y="340" type="line"/>
			<point x="585" y="386" type="line"/>
			<point x="185" y="386" type="line"/>
			<point x="185" y="340" type="line"/>
		</contour>
		<contour>
			<point x="445" y="0" type="line"/>
			<point x="585" y="0" type="line"/>
			<point x="585" y="55" type="line"/>
			<point x="575" y="55" type="line"/>
			<point x="445" y="40" type="line"/>
		</contour>
		<contour>
			<point x="445" y="630" type="line"/>
			<point x="575" y="615" type="line"/>
			<point x="605" y="615" type="line"/>
			<point x="735" y="630" type="line"/>
			<point x="735" y="670" type="line"/>
			<point x="445" y="670" type="line"/>
		</contour>
		<contour>
			<point x="585" y="0" type="line"/>
			<point x="682" y="0" type="line" smooth="yes"/>
			<point x="885" y="0"/>
			<point x="952" y="105"/>
			<point x="952" y="199" type="curve" smooth="yes"/>
			<point x="952" y="312"/>
			<point x="869" y="393"/>
			<point x="700" y="393" type="curve" smooth="yes"/>
			<point x="664" y="393"/>
			<point x="624" y="390"/>
			<point x="585" y="386" type="curve"/>
			<point x="585" y="336" type="line"/>
			<point x="613" y="341"/>
			<point x="641" y="343"/>
			<point x="679" y="343" type="curve" smooth="yes"/>
			<point x="815" y="343"/>
			<point x="857" y="294"/>
			<point x="857" y="192" type="curve" smooth="yes"/>
			<point x="857" y="103"/>
			<point x="803" y="46"/>
			<point x="669" y="46" type="curve" smooth="yes"/>
			<point x="585" y="46" type="line"/>
		</contour>
	</outline>
</glyph>
<glyph name="Tshe" format="1">
	<unicode hex="040B"/>
	<advance width="773"/>
	<outline>
		<contour>
			<point x="20" y="492" type="line"/>
			<point x="76" y="492" type="line"/>
			<point x="108" y="670" type="line"/>
			<point x="63" y="620" type="line"/>
			<point x="549" y="620" type="line"/>
			<point x="504" y="670" type="line"/>
			<point x="536" y="492" type="line"/>
			<point x="592" y="492" type="line"/>
			<point x="584" y="670" type="line"/>
			<point x="28" y="670" type="line"/>
		</contour>
		<contour>
			<point x="151" y="0" type="line"/>
			<point x="451" y="0" type="line"/>
			<point x="451" y="40" type="line"/>
			<point x="311" y="55" type="line"/>
			<point x="291" y="55" type="line"/>
			<point x="151" y="40" type="line"/>
		</contour>
		<contour>
			<point x="253" y="0" type="curve"/>
			<point x="349" y="0" type="line"/>
			<point x="346" y="103"/>
			<point x="346" y="207"/>
			<point x="346" y="310" type="curve" smooth="yes"/>
			<point x="346" y="360" type="line" smooth="yes"/>
			<point x="346" y="465"/>
			<point x="346" y="569"/>
			<point x="349" y="670" type="curve"/>
			<point x="253" y="670" type="line"/>
			<point x="256" y="567"/>
			<point x="256" y="463"/>
			<point x="256" y="360" type="curve" smooth="yes"/>
			<point x="256" y="310" type="line" smooth="yes"/>
			<point x="256" y="205"/>
			<point x="256" y="101"/>
		</contour>
		<contour>
			<point x="589" y="0" type="curve"/>
			<point x="678" y="0" type="line"/>
			<point x="678" y="224" type="line" smooth="yes"/>
			<point x="678" y="349"/>
			<point x="591" y="393"/>
			<point x="486" y="393" type="curve" smooth="yes"/>
			<point x="413" y="393"/>
			<point x="349" y="388"/>
			<point x="301" y="378" type="curve"/>
			<point x="301" y="335" type="line"/>
			<point x="350" y="341"/>
			<point x="400" y="344"/>
			<point x="450" y="344" type="curve" smooth="yes"/>
			<point x="556" y="344"/>
			<point x="592" y="290"/>
			<point x="592" y="210" type="curve" smooth="yes"/>
			<point x="592" y="138"/>
			<point x="591" y="69"/>
		</contour>
		<contour>
			<point x="623" y="0" type="line"/>
			<point x="753" y="0" type="line"/>
			<point x="753" y="40" type="line"/>
			<point x="643" y="55" type="line"/>
			<point x="623" y="55" type="line"/>
		</contour>
	</outline>
</glyph>
<glyph name="Dzhe" format="2">
	<unicode hex="040F"/>
	<advance width="770"/>
	<outline>
		<contour>
			<point x="137" y="0" type="curve"/>
			<point x="233" y="0" type="line"/>
			<point x="230" y="101"/>
			<point x="230" y="205"/>
			<point x="230" y="310" type="curve" smooth="yes"/>
			<point x="230" y="360" type="line" smooth="yes"/>
			<point x="230" y="463"/>
			<point x="230" y="567"/>
			<point x="233" y="670" type="curve"/>
			<point x="137" y="670" type="line"/>
			<point x="140" y="569"/>
			<point x="140" y="465"/>
			<point x="140" y="360" type="curve" smooth="yes"/>
			<point x="140" y="310" type="line" smooth="yes"/>
			<point x="140" y="207"/>
			<point x="140" y="103"/>
		</contour>
		<contour>
			<point x="537" y="0" type="curve"/>
			<point x="633" y="0" type="line"/>
			<point x="630" y="101"/>
			<point x="630" y="205"/>
			<point x="630" y="310" type="curve" smooth="yes"/>
			<point x="630" y="360" type="line" smooth="yes"/>
			<point x="630" y="463"/>
			<point x="630" y="567"/>
			<point x="633" y="670" type="curve"/>
			<point x="537" y="670" type="line"/>
			<point x="540" y="569"/>
			<point x="540" y="465"/>
			<point x="540" y="360" type="curve" smooth="yes"/>
			<point x="540" y="310" type="line" smooth="yes"/>
			<point x="540" y="207"/>
			<point x="540" y="103"/>
		</contour>
		<contour>
			<point x="45" y="630" type="line"/>
			<point x="175" y="615" type="line"/>
			<point x="195" y="615" type="line"/>
			<point x="325" y="630" type="line"/>
			<point x="325" y="670" type="line"/>
			<point x="45" y="670" type="line"/>
		</contour>
		<contour>
			<point x="445" y="630" type="line"/>
			<point x="575" y="615" type="line"/>
			<point x="595" y="615" type="line"/>
			<point x="725" y="630" type="line"/>
			<point x="725" y="670" type="line"/>
			<point x="445" y="670" type="line"/>
		</contour>
		<contour>
			<point x="45" y="0" type="line"/>
			<point x="185" y="0" type="line"/>
			<point x="185" y="55" type="line"/>
			<point x="175" y="55" type="line"/>
			<point x="45" y="40" type="line"/>
		</contour>
		<contour>
			<point x="725" y="0" type="line"/>
			<point x="725" y="40" type="line"/>
			<point x="595" y="55" type="line"/>
			<point x="585" y="55" type="line"/>
			<point x="585" y="0" type="line"/>
		</contour>
		<contour>
			<point x="340" y="30" type="line"/>
			<point x="355" y="-220" type="line"/>
			<point x="415" y="-220" type="line"/>
			<point x="430" y="30" type="line"/>
		</contour>
		<contour>
			<point x="585" y="0" type="line"/>
			<point x="585" y="50" type="line"/>
			<point x="185" y="50" type="line"/>
			<point x="185" y="0" type="line"/>
		</contour>
	</outline>
</glyph>
<glyph name="Be" format="2">
	<unicode hex="0411"/>
	<advance width="618"/>
	<outline>
		<contour>
			<point x="45" y="0" type="line"/>
			<point x="185" y="0" type="line"/>
			<point x="185" y="55" type="line"/>
			<point x="175" y="55" type="line"/>
			<point x="45" y="40" type="line"/>
		</contour>
		<contour>
			<point x="137" y="0" type="curve"/>
			<point x="233" y="0" type="line"/>
			<point x="230" y="103"/>
			<point x="230" y="207"/>
			<point x="230" y="310" type="curve" smooth="yes"/>
			<point x="230" y="360" type="line" smooth="yes"/>
			<point x="230" y="465"/>
			<point x="230" y="569"/>
			<point x="233" y="670" type="curve"/>
			<point x="137" y="670" type="line"/>
			<point x="140" y="567"/>
			<point x="140" y="463"/>
			<point x="140" y="360" type="curve" smooth="yes"/>
			<point x="140" y="310" type="line" smooth="yes"/>
			<point x="140" y="205"/>
			<point x="140" y="101"/>
		</contour>
		<contour>
			<point x="185" y="0" type="line"/>
			<point x="313" y="0" type="line" smooth="yes"/>
			<point x="519" y="0"/>
			<point x="583" y="100"/>
			<point x="583" y="198" type="curve" smooth="yes"/>
			<point x="583" y="307"/>
			<point x="500" y="388"/>
			<point x="331" y="388" type="curve" smooth="yes"/>
			<point x="286" y="388"/>
			<point x="234" y="384"/>
			<point x="185" y="378" type="curve"/>
			<point x="185" y="328" type="line"/>
			<point x="222" y="336"/>
			<point x="260" y="338"/>
			<point x="310" y="338" type="curve" smooth="yes"/>
			<point x="448" y="338"/>
			<point x="488" y="288"/>
			<point x="488" y="196" type="curve" smooth="yes"/>
			<point x="488" y="94"/>
			<point x="435" y="46"/>
			<point x="300" y="46" type="curve" smooth="yes"/>
			<point x="185" y="46" type="line"/>
		</contour>
		<contour>
			<point x="175" y="615" type="line"/>
			<point x="185" y="615" type="line"/>
			<point x="185" y="670" type="line"/>
			<point x="45" y="670" type="line"/>
			<point x="45" y="630" type="line"/>
		</contour>
		<contour>
			<point x="478" y="492" type="line"/>
			<point x="534" y="492" type="line"/>
			<point x="527" y="670" type="line"/>
			<point x="185" y="670" type="line"/>
			<point x="185" y="620" type="line"/>
			<point x="492" y="620" type="line"/>
			<point x="447" y="670" type="line"/>
		</contour>
	</outline>
</glyph>
<glyph name="Ucyr" format="2">
	<unicode hex="0423"/>
	<advance width="680"/>
	<outline>
		<contour>
			<point x="11" y="630" type="line"/>
			<point x="125" y="615" type="line"/>
			<point x="145" y="615" type="line"/>
			<point x="271" y="630" type="line"/>
			<point x="271" y="670" type="line"/>
			<point x="11" y="670" type="line"/>
		</contour>
		<contour>
			<point x="318" y="98" type="line"/>
			<point x="361" y="190" type="line"/>
			<point x="160" y="670" type="line"/>
			<point x="62" y="670" type="line"/>
		</contour>
		<contour>
			<point x="117" y="24" type="curve"/>
			<point x="117" y="-23"/>
			<point x="150" y="-49"/>
			<point x="196" y="-49" type="curve" smooth="yes"/>
			<point x="275" y="-49"/>
			<point x="315" y="17"/>
			<point x="353" y="101" type="curve" smooth="yes"/>
			<point x="612" y="670" type="line"/>
			<point x="553" y="670" type="line"/>
			<point x="362" y="225" type="line" smooth="yes"/>
			<point x="316" y="119"/>
			<point x="289" y="50"/>
			<point x="243" y="11" type="curve"/>
			<point x="245" y="-20" type="line"/>
			<point x="277" y="-1" type="line"/>
			<point x="233" y="47"/>
			<point x="212" y="61"/>
			<point x="179" y="61" type="curve" smooth="yes"/>
			<point x="149" y="61"/>
			<point x="127" y="50"/>
		</contour>
		<contour>
			<point x="449" y="630" type="line"/>
			<point x="549" y="615" type="line"/>
			<point x="569" y="615" type="line"/>
			<point x="670" y="630" type="line"/>
			<point x="670" y="670" type="line"/>
			<point x="449" y="670" type="line"/>
		</contour>
	</outline>
	<anchor name="aboveUC" x="361" y="691"/>
</glyph>
<glyph name="Tse" format="2">
	<unicode hex="0426"/>
	<advance width="770"/>
	<outline>
		<contour>
			<point x="45" y="0" type="line"/>
			<point x="185" y="0" type="line"/>
			<point x="185" y="55" type="line"/>
			<point x="175" y="55" type="line"/>
			<point x="45" y="40" type="line"/>
		</contour>
		<contour>
			<point x="45" y="630" type="line"/>
			<point x="175" y="615" type="line"/>
			<point x="195" y="615" type="line"/>
			<point x="325" y="630" type="line"/>
			<point x="325" y="670" type="line"/>
			<point x="45" y="670" type="line"/>
		</contour>
		<contour>
			<point x="137" y="0" type="curve"/>
			<point x="233" y="0" type="line"/>
			<point x="230" y="101"/>
			<point x="230" y="205"/>
			<point x="230" y="310" type="curve" smooth="yes"/>
			<point x="230" y="360" type="line" smooth="yes"/>
			<point x="230" y="463"/>
			<point x="230" y="567"/>
			<point x="233" y="670" type="curve"/>
			<point x="137" y="670" type="line"/>
			<point x="140" y="569"/>
			<point x="140" y="465"/>
			<point x="140" y="360" type="curve" smooth="yes"/>
			<point x="140" y="310" type="line" smooth="yes"/>
			<point x="140" y="207"/>
			<point x="140" y="103"/>
		</contour>
		<contour>
			<point x="185" y="0" type="line"/>
			<point x="700" y="0" type="line"/>
			<point x="645" y="50" type="line"/>
			<point x="669" y="-188" type="line"/>
			<point x="725" y="-188" type="line"/>
			<point x="735" y="50" type="line"/>
			<point x="185" y="50" type="line"/>
		</contour>
		<contour>
			<point x="445" y="630" type="line"/>
			<point x="575" y="615" type="line"/>
			<point x="595" y="615" type="line"/>
			<point x="725" y="630" type="line"/>
			<point x="725" y="670" type="line"/>
			<point x="445" y="670" type="line"/>
		</contour>
		<contour>
			<point x="537" y="0" type="curve"/>
			<point x="633" y="0" type="line"/>
			<point x="630" y="101"/>
			<point x="630" y="205"/>
			<point x="630" y="310" type="curve" smooth="yes"/>
			<point x="630" y="360" type="line" smooth="yes"/>
			<point x="630" y="463"/>
			<point x="630" y="567"/>
			<point x="633" y="670" type="curve"/>
			<point x="537" y="670" type="line"/>
			<point x="540" y="569"/>
			<point x="540" y="465"/>
			<point x="540" y="360" type="curve" smooth="yes"/>
			<point x="540" y="310" type="line" smooth="yes"/>
			<point x="540" y="207"/>
			<point x="540" y="103"/>
		</contour>
	</outline>
	<anchor name="aboveUC" x="388" y="691"/>
</glyph>
<glyph name="Che" format="2">
	<unicode hex="0427"/>
	<advance width="700"/>
	<outline>
		<contour>
			<point x="375" y="0" type="line"/>
			<point x="655" y="0" type="line"/>
			<point x="655" y="40" type="line"/>
			<point x="525" y="55" type="line"/>
			<point x="505" y="55" type="line"/>
			<point x="375" y="40" type="line"/>
		</contour>
		<contour>
			<point x="110" y="307"/>
			<point x="195" y="271"/>
			<point x="317" y="271" type="curve" smooth="yes"/>
			<point x="380" y="271"/>
			<point x="452" y="284"/>
			<point x="514" y="298" type="curve"/>
			<point x="514" y="344" type="line"/>
			<point x="439" y="331"/>
			<point x="388" y="327"/>
			<point x="342" y="327" type="curve" smooth="yes"/>
			<point x="238" y="327"/>
			<point x="200" y="362"/>
			<point x="200" y="473" type="curve" smooth="yes"/>
			<point x="200" y="540"/>
			<point x="201" y="605"/>
			<point x="203" y="670" type="curve"/>
			<point x="113" y="670" type="line"/>
			<point x="111" y="603"/>
			<point x="110" y="529"/>
			<point x="110" y="459" type="curve" smooth="yes"/>
		</contour>
		<contour>
			<point x="467" y="0" type="curve"/>
			<point x="563" y="0" type="line"/>
			<point x="560" y="103"/>
			<point x="560" y="207"/>
			<point x="560" y="310" type="curve" smooth="yes"/>
			<point x="560" y="360" type="line" smooth="yes"/>
			<point x="560" y="465"/>
			<point x="560" y="569"/>
			<point x="563" y="670" type="curve"/>
			<point x="467" y="670" type="line"/>
			<point x="470" y="567"/>
			<point x="470" y="463"/>
			<point x="470" y="360" type="curve" smooth="yes"/>
			<point x="470" y="314" type="line" smooth="yes"/>
			<point x="470" y="205"/>
			<point x="470" y="101"/>
		</contour>
		<contour>
			<point x="25" y="630" type="line"/>
			<point x="145" y="615" type="line"/>
			<point x="165" y="615" type="line"/>
			<point x="295" y="630" type="line"/>
			<point x="295" y="670" type="line"/>
			<point x="25" y="670" type="line"/>
		</contour>
		<contour>
			<point x="375" y="630" type="line"/>
			<point x="505" y="615" type="line"/>
			<point x="525" y="615" type="line"/>
			<point x="655" y="630" type="line"/>
			<point x="655" y="670" type="line"/>
			<point x="375" y="670" type="line"/>
		</contour>
	</outline>
	<anchor name="aboveUC" x="340" y="691"/>
</glyph>
<glyph name="Shcha" format="2">
	<unicode hex="0429"/>
	<advance width="1042"/>
	<outline>
		<contour>
			<point x="43" y="0" type="line"/>
			<point x="185" y="0" type="line"/>
			<point x="185" y="55" type="line"/>
			<point x="175" y="55" type="line"/>
			<point x="43" y="40" type="line"/>
		</contour>
		<contour>
			<point x="43" y="630" type="line"/>
			<point x="175" y="615" type="line"/>
			<point x="195" y="615" type="line"/>
			<point x="315" y="630" type="line"/>
			<point x="315" y="670" type="line"/>
			<point x="43" y="670" type="line"/>
		</contour>
		<contour>
			<point x="137" y="0" type="curve"/>
			<point x="233" y="0" type="line"/>
			<point x="230" y="101"/>
			<point x="230" y="205"/>
			<point x="230" y="310" type="curve" smooth="yes"/>
			<point x="230" y="360" type="line" smooth="yes"/>
			<point x="230" y="463"/>
			<point x="230" y="567"/>
			<point x="233" y="670" type="curve"/>
			<point x="137" y="670" type="line"/>
			<point x="140" y="569"/>
			<point x="140" y="465"/>
			<point x="140" y="360" type="curve" smooth="yes"/>
			<point x="140" y="310" type="line" smooth="yes"/>
			<point x="140" y="207"/>
			<point x="140" y="103"/>
		</contour>
		<contour>
			<point x="184" y="0" type="line"/>
			<point x="972" y="0" type="line"/>
			<point x="917" y="50" type="line"/>
			<point x="941" y="-188" type="line"/>
			<point x="997" y="-188" type="line"/>
			<point x="1007" y="50" type="line"/>
			<point x="184" y="50" type="line"/>
		</contour>
		<contour>
			<point x="391" y="630" type="line"/>
			<point x="511" y="615" type="line"/>
			<point x="531" y="615" type="line"/>
			<point x="651" y="630" type="line"/>
			<point x="651" y="670" type="line"/>
			<point x="391" y="670" type="line"/>
		</contour>
		<contour>
			<point x="473" y="0" type="curve"/>
			<point x="569" y="0" type="line"/>
			<point x="566" y="103"/>
			<point x="566" y="207"/>
			<point x="566" y="310" type="curve" smooth="yes"/>
			<point x="566" y="360" type="line" smooth="yes"/>
			<point x="566" y="465"/>
			<point x="566" y="569"/>
			<point x="569" y="670" type="curve"/>
			<point x="473" y="670" type="line"/>
			<point x="476" y="567"/>
			<point x="476" y="463"/>
			<point x="476" y="360" type="curve" smooth="yes"/>
			<point x="476" y="310" type="line" smooth="yes"/>
			<point x="476" y="205"/>
			<point x="476" y="101"/>
		</contour>
		<contour>
			<point x="727" y="630" type="line"/>
			<point x="847" y="615" type="line"/>
			<point x="867" y="615" type="line"/>
			<point x="999" y="630" type="line"/>
			<point x="999" y="670" type="line"/>
			<point x="727" y="670" type="line"/>
		</contour>
		<contour>
			<point x="809" y="0" type="curve"/>
			<point x="905" y="0" type="line"/>
			<point x="902" y="101"/>
			<point x="902" y="205"/>
			<point x="902" y="310" type="curve" smooth="yes"/>
			<point x="902" y="360" type="line" smooth="yes"/>
			<point x="902" y="463"/>
			<point x="902" y="567"/>
			<point x="905" y="670" type="curve"/>
			<point x="809" y="670" type="line"/>
			<point x="812" y="569"/>
			<point x="812" y="465"/>
			<point x="812" y="360" type="curve" smooth="yes"/>
			<point x="812" y="310" type="line" smooth="yes"/>
			<point x="812" y="207"/>
			<point x="812" y="103"/>
		</contour>
	</outline>
</glyph>
<glyph name="Hard" format="2">
	<unicode hex="042A"/>
	<advance width="725"/>
	<outline>
		<contour>
			<point x="20" y="492" type="line"/>
			<point x="76" y="492" type="line"/>
			<point x="107" y="670" type="line"/>
			<point x="62" y="620" type="line"/>
			<point x="311" y="620" type="line"/>
			<point x="311" y="670" type="line"/>
			<point x="27" y="670" type="line"/>
		</contour>
		<contour>
			<point x="171" y="0" type="line"/>
			<point x="311" y="0" type="line"/>
			<point x="311" y="55" type="line"/>
			<point x="301" y="55" type="line"/>
			<point x="171" y="40" type="line"/>
		</contour>
		<contour>
			<point x="263" y="0" type="curve"/>
			<point x="359" y="0" type="line"/>
			<point x="356" y="103"/>
			<point x="356" y="207"/>
			<point x="356" y="310" type="curve" smooth="yes"/>
			<point x="356" y="360" type="line" smooth="yes"/>
			<point x="356" y="465"/>
			<point x="356" y="569"/>
			<point x="359" y="670" type="curve"/>
			<point x="263" y="670" type="line"/>
			<point x="266" y="567"/>
			<point x="266" y="463"/>
			<point x="266" y="360" type="curve" smooth="yes"/>
			<point x="266" y="310" type="line" smooth="yes"/>
			<point x="266" y="205"/>
			<point x="266" y="101"/>
		</contour>
		<contour>
			<point x="311" y="0" type="line"/>
			<point x="434" y="0" type="line" smooth="yes"/>
			<point x="624" y="0"/>
			<point x="705" y="89"/>
			<point x="705" y="195" type="curve" smooth="yes"/>
			<point x="705" y="315"/>
			<point x="608" y="393"/>
			<point x="452" y="393" type="curve" smooth="yes"/>
			<point x="408" y="393"/>
			<point x="359" y="389"/>
			<point x="311" y="383" type="curve"/>
			<point x="311" y="333" type="line"/>
			<point x="346" y="340"/>
			<point x="382" y="343"/>
			<point x="421" y="343" type="curve" smooth="yes"/>
			<point x="556" y="343"/>
			<point x="610" y="295"/>
			<point x="610" y="195" type="curve" smooth="yes"/>
			<point x="610" y="89"/>
			<point x="544" y="46"/>
			<point x="421" y="46" type="curve" smooth="yes"/>
			<point x="311" y="46" type="line"/>
		</contour>
		<contour>
			<point x="311" y="615" type="line"/>
			<point x="321" y="615" type="line"/>
			<point x="451" y="630" type="line"/>
			<point x="451" y="670" type="line"/>
			<point x="311" y="670" type="line"/>
		</contour>
	</outline>
</glyph>
<glyph name="Ecyr" format="2">
	<unicode hex="042D"/>
	<advance width="612"/>
	<outline>
		<contour>
			<point x="46" y="33" type="line"/>
			<point x="109" y="-1"/>
			<point x="177" y="-15"/>
			<point x="246" y="-15" type="curve" smooth="yes"/>
			<point x="450" y="-15"/>
			<point x="564" y="119"/>
			<point x="564" y="335" type="curve" smooth="yes"/>
			<point x="564" y="551"/>
			<point x="450" y="685"/>
			<point x="247" y="685" type="curve" smooth="yes"/>
			<point x="192" y="685"/>
			<point x="121" y="676"/>
			<point x="52" y="637" type="curve"/>
			<point x="48" y="492" type="line"/>
			<point x="109" y="492" type="line"/>
			<point x="134" y="640" type="line"/>
			<point x="72" y="624" type="line"/>
			<point x="72" y="571" type="line"/>
			<point x="129" y="619"/>
			<point x="180" y="635"/>
			<point x="242" y="635" type="curve" smooth="yes"/>
			<point x="387" y="635"/>
			<point x="469" y="546"/>
			<point x="469" y="335" type="curve" smooth="yes"/>
			<point x="469" y="124"/>
			<point x="387" y="35"/>
			<point x="249" y="35" type="curve" smooth="yes"/>
			<point x="186" y="35"/>
			<point x="123" y="52"/>
			<point x="66" y="99" type="curve"/>
			<point x="66" y="45" type="line"/>
			<point x="128" y="30" type="line"/>
			<point x="103" y="178" type="line"/>
			<point x="42" y="178" type="line"/>
		</contour>
		<contour>
			<point x="206" y="222" type="line"/>
			<point x="251" y="222" type="line"/>
			<point x="266" y="333" type="line"/>
			<point x="266" y="353" type="line"/>
			<point x="251" y="459" type="line"/>
			<point x="206" y="459" type="line"/>
		</contour>
		<contour>
			<point x="234" y="317" type="line"/>
			<point x="517" y="317" type="line"/>
			<point x="517" y="363" type="line"/>
			<point x="234" y="363" type="line"/>
		</contour>
	</outline>
	<anchor name="aboveUC" x="268" y="691"/>
</glyph>
<glyph name="Yu" format="2">
	<unicode hex="042E"/>
	<advance width="994"/>
	<outline>
		<contour>
			<point x="45" y="0" type="line"/>
			<point x="321" y="0" type="line"/>
			<point x="321" y="40" type="line"/>
			<point x="195" y="55" type="line"/>
			<point x="175" y="55" type="line"/>
			<point x="45" y="40" type="line"/>
		</contour>
		<contour>
			<point x="45" y="630" type="line"/>
			<point x="175" y="615" type="line"/>
			<point x="195" y="615" type="line"/>
			<point x="321" y="630" type="line"/>
			<point x="321" y="670" type="line"/>
			<point x="45" y="670" type="line"/>
		</contour>
		<contour>
			<point x="137" y="0" type="curve"/>
			<point x="229" y="0" type="line"/>
			<point x="226" y="103"/>
			<point x="226" y="207"/>
			<point x="226" y="330" type="curve" smooth="yes"/>
			<point x="226" y="360" type="line" smooth="yes"/>
			<point x="226" y="465"/>
			<point x="226" y="569"/>
			<point x="229" y="670" type="curve"/>
			<point x="137" y="670" type="line"/>
			<point x="140" y="567"/>
			<point x="140" y="463"/>
			<point x="140" y="360" type="curve" smooth="yes"/>
			<point x="140" y="310" type="line" smooth="yes"/>
			<point x="140" y="205"/>
			<point x="140" y="101"/>
		</contour>
		<contour>
			<point x="185" y="320" type="line"/>
			<point x="423" y="320" type="line"/>
			<point x="423" y="366" type="line"/>
			<point x="185" y="366" type="line"/>
		</contour>
		<contour>
			<point x="660" y="-15" type="curve" smooth="yes"/>
			<point x="815" y="-15"/>
			<point x="946" y="101"/>
			<point x="946" y="335" type="curve" smooth="yes"/>
			<point x="946" y="569"/>
			<point x="814" y="685"/>
			<point x="660" y="685" type="curve" smooth="yes"/>
			<point x="506" y="685"/>
			<point x="373" y="560"/>
			<point x="373" y="335" type="curve" smooth="yes"/>
			<point x="373" y="110"/>
			<point x="505" y="-15"/>
		</contour>
		<contour>
			<point x="660" y="35" type="curve" smooth="yes"/>
			<point x="529" y="35"/>
			<point x="473" y="185"/>
			<point x="473" y="335" type="curve" smooth="yes"/>
			<point x="473" y="485"/>
			<point x="529" y="635"/>
			<point x="660" y="635" type="curve" smooth="yes"/>
			<point x="791" y="635"/>
			<point x="846" y="485"/>
			<point x="846" y="335" type="curve" smooth="yes"/>
			<point x="846" y="185"/>
			<point x="791" y="35"/>
		</contour>
	</outline>
	<anchor name="aboveUC" x="421" y="691"/>
</glyph>
<glyph name="be" format="2">
	<unicode hex="0431"/>
	<advance width="541"/>
	<outline>
		<contour>
			<point x="97" y="319" type="line"/>
			<point x="101" y="427"/>
			<point x="124" y="529"/>
			<point x="158" y="563" type="curve" smooth="yes"/>
			<point x="190" y="595"/>
			<point x="247" y="603"/>
			<point x="332" y="615" type="curve" smooth="yes"/>
			<point x="397" y="624"/>
			<point x="435" y="631"/>
			<point x="453" y="649" type="curve" smooth="yes"/>
			<point x="472" y="668"/>
			<point x="479" y="704"/>
			<point x="488" y="751" type="curve"/>
			<point x="462" y="759" type="line"/>
			<point x="439" y="715" type="line"/>
			<point x="400" y="708"/>
			<point x="361" y="701"/>
			<point x="322" y="695" type="curve" smooth="yes"/>
			<point x="228" y="681"/>
			<point x="182" y="669"/>
			<point x="132" y="619" type="curve" smooth="yes"/>
			<point x="79" y="566"/>
			<point x="56" y="438"/>
			<point x="56" y="300" type="curve" smooth="yes"/>
			<point x="56" y="82"/>
			<point x="139" y="-13"/>
			<point x="276" y="-13" type="curve" smooth="yes"/>
			<point x="388" y="-13"/>
			<point x="495" y="79"/>
			<point x="495" y="239" type="curve" smooth="yes"/>
			<point x="495" y="401"/>
			<point x="399" y="474"/>
			<point x="293" y="474" type="curve" smooth="yes"/>
			<point x="189" y="474"/>
			<point x="122" y="419"/>
			<point x="93" y="320" type="curve"/>
		</contour>
		<contour>
			<point x="276" y="429" type="curve" smooth="yes"/>
			<point x="355" y="429"/>
			<point x="411" y="366"/>
			<point x="411" y="232" type="curve" smooth="yes"/>
			<point x="411" y="98"/>
			<point x="354" y="32"/>
			<point x="277" y="32" type="curve" smooth="yes"/>
			<point x="201" y="32"/>
			<point x="141" y="99"/>
			<point x="141" y="234" type="curve" smooth="yes"/>
			<point x="141" y="366"/>
			<point x="199" y="429"/>
		</contour>
	</outline>
</glyph>
<glyph name="ka" format="2">
	<unicode hex="043A"/>
	<advance width="535"/>
	<outline>
		<contour>
			<point x="45" y="0" type="line"/>
			<point x="271" y="0" type="line"/>
			<point x="271" y="35" type="line"/>
			<point x="171" y="55" type="line"/>
			<point x="151" y="55" type="line"/>
			<point x="45" y="35" type="line"/>
		</contour>
		<contour>
			<point x="45" y="439" type="line"/>
			<point x="151" y="419" type="line"/>
			<point x="171" y="419" type="line"/>
			<point x="271" y="439" type="line"/>
			<point x="271" y="474" type="line"/>
			<point x="45" y="474" type="line"/>
		</contour>
		<contour>
			<point x="115" y="0" type="curve"/>
			<point x="201" y="0" type="line"/>
			<point x="199" y="45"/>
			<point x="198" y="146"/>
			<point x="198" y="221" type="curve" smooth="yes"/>
			<point x="198" y="255" type="line" smooth="yes"/>
			<point x="198" y="328"/>
			<point x="199" y="429"/>
			<point x="201" y="474" type="curve"/>
			<point x="115" y="474" type="line"/>
			<point x="117" y="429"/>
			<point x="118" y="328"/>
			<point x="118" y="264" type="curve" smooth="yes"/>
			<point x="118" y="210" type="line" smooth="yes"/>
			<point x="118" y="146"/>
			<point x="117" y="45"/>
		</contour>
		<contour>
			<point x="366" y="51" type="line" smooth="yes"/>
			<point x="383" y="1"/>
			<point x="406" y="-11"/>
			<point x="459" y="-11" type="curve" smooth="yes"/>
			<point x="477" y="-11"/>
			<point x="501" y="-5"/>
			<point x="520" y="0" type="curve"/>
			<point x="520" y="35" type="line"/>
			<point x="401" y="55" type="line"/>
			<point x="459" y="9" type="line"/>
			<point x="416" y="131" type="line" smooth="yes"/>
			<point x="389" y="207"/>
			<point x="343" y="238"/>
			<point x="250" y="246" type="curve"/>
			<point x="264" y="232" type="line"/>
			<point x="321" y="245"/>
			<point x="349" y="272"/>
			<point x="371" y="340" type="curve" smooth="yes"/>
			<point x="387" y="390"/>
			<point x="405" y="416"/>
			<point x="422" y="436" type="curve"/>
			<point x="362" y="397" type="line"/>
			<point x="394" y="393"/>
			<point x="409" y="390"/>
			<point x="439" y="390" type="curve" smooth="yes"/>
			<point x="483" y="390"/>
			<point x="500" y="409"/>
			<point x="501" y="438" type="curve" smooth="yes"/>
			<point x="501" y="462"/>
			<point x="489" y="480"/>
			<point x="459" y="487" type="curve"/>
			<point x="395" y="483"/>
			<point x="361" y="444"/>
			<point x="331" y="356" type="curve" smooth="yes"/>
			<point x="305" y="279"/>
			<point x="281" y="259"/>
			<point x="234" y="259" type="curve" smooth="yes"/>
			<point x="158" y="259" type="line"/>
			<point x="158" y="218" type="line"/>
			<point x="239" y="218" type="line" smooth="yes"/>
			<point x="290" y="218"/>
			<point x="315" y="202"/>
			<point x="331" y="155" type="curve" smooth="yes"/>
		</contour>
	</outline>
	<anchor name="aboveLC" x="282" y="506"/>
</glyph>
<glyph name="en" format="2">
	<unicode hex="043D"/>
	<advance width="632"/>
	<outline>
		<contour>
			<point x="45" y="0" type="line"/>
			<point x="271" y="0" type="line"/>
			<point x="271" y="35" type="line"/>
			<point x="171" y="55" type="line"/>
			<point x="151" y="55" type="line"/>
			<point x="45" y="35" type="line"/>
		</contour>
		<contour>
			<point x="45" y="439" type="line"/>
			<point x="151" y="419" type="line"/>
			<point x="171" y="419" type="line"/>
			<point x="271" y="439" type="line"/>
			<point x="271" y="474" type="line"/>
			<point x="45" y="474" type="line"/>
		</contour>
		<contour>
			<point x="115" y="0" type="curve"/>
			<point x="201" y="0" type="line"/>
			<point x="199" y="45"/>
			<point x="198" y="146"/>
			<point x="198" y="235" type="curve" smooth="yes"/>
			<point x="198" y="264" type="line" smooth="yes"/>
			<point x="198" y="328"/>
			<point x="199" y="429"/>
			<point x="201" y="474" type="curve"/>
			<point x="115" y="474" type="line"/>
			<point x="117" y="429"/>
			<point x="118" y="328"/>
			<point x="118" y="264" type="curve" smooth="yes"/>
			<point x="118" y="210" type="line" smooth="yes"/>
			<point x="118" y="146"/>
			<point x="117" y="45"/>
		</contour>
		<contour>
			<point x="158" y="227" type="line"/>
			<point x="474" y="227" type="line"/>
			<point x="474" y="269" type="line"/>
			<point x="158" y="269" type="line"/>
		</contour>
		<contour>
			<point x="361" y="0" type="line"/>
			<point x="587" y="0" type="line"/>
			<point x="587" y="35" type="line"/>
			<point x="487" y="55" type="line"/>
			<point x="467" y="55" type="line"/>
			<point x="361" y="35" type="line"/>
		</contour>
		<contour>
			<point x="361" y="439" type="line"/>
			<point x="467" y="419" type="line"/>
			<point x="487" y="419" type="line"/>
			<point x="587" y="439" type="line"/>
			<point x="587" y="474" type="line"/>
			<point x="361" y="474" type="line"/>
		</contour>
		<contour>
			<point x="431" y="0" type="curve"/>
			<point x="517" y="0" type="line"/>
			<point x="515" y="45"/>
			<point x="514" y="146"/>
			<point x="514" y="210" type="curve" smooth="yes"/>
			<point x="514" y="264" type="line" smooth="yes"/>
			<point x="514" y="328"/>
			<point x="515" y="429"/>
			<point x="517" y="474" type="curve"/>
			<point x="431" y="474" type="line"/>
			<point x="433" y="429"/>
			<point x="434" y="328"/>
			<point x="434" y="264" type="curve" smooth="yes"/>
			<point x="434" y="235" type="line" smooth="yes"/>
			<point x="434" y="146"/>
			<point x="433" y="45"/>
		</contour>
	</outline>
</glyph>
<glyph name="te" format="2">
	<unicode hex="0442"/>
	<advance width="526"/>
	<outline>
		<contour>
			<point x="25" y="314" type="line"/>
			<point x="70" y="314" type="line"/>
			<point x="108" y="474" type="line"/>
			<point x="58" y="432" type="line"/>
			<point x="468" y="432" type="line"/>
			<point x="418" y="474" type="line"/>
			<point x="456" y="314" type="line"/>
			<point x="501" y="314" type="line"/>
			<point x="493" y="474" type="line"/>
			<point x="33" y="474" type="line"/>
		</contour>
		<contour>
			<point x="140" y="0" type="line"/>
			<point x="386" y="0" type="line"/>
			<point x="386" y="35" type="line"/>
			<point x="273" y="55" type="line"/>
			<point x="253" y="55" type="line"/>
			<point x="140" y="35" type="line"/>
		</contour>
		<contour>
			<point x="220" y="0" type="curve"/>
			<point x="306" y="0" type="line"/>
			<point x="304" y="45"/>
			<point x="303" y="146"/>
			<point x="303" y="210" type="curve" smooth="yes"/>
			<point x="303" y="264" type="line" smooth="yes"/>
			<point x="303" y="328"/>
			<point x="304" y="429"/>
			<point x="306" y="474" type="curve"/>
			<point x="220" y="474" type="line"/>
			<point x="222" y="429"/>
			<point x="223" y="328"/>
			<point x="223" y="264" type="curve" smooth="yes"/>
			<point x="223" y="210" type="line" smooth="yes"/>
			<point x="223" y="146"/>
			<point x="222" y="45"/>
		</contour>
	</outline>
</glyph>
<glyph name="tse" format="2">
	<unicode hex="0446"/>
	<advance width="620"/>
	<outline>
		<contour>
			<point x="45" y="439" type="line"/>
			<point x="151" y="419" type="line"/>
			<point x="171" y="419" type="line"/>
			<point x="271" y="439" type="line"/>
			<point x="271" y="474" type="line"/>
			<point x="45" y="474" type="line"/>
		</contour>
		<contour>
			<point x="45" y="0" type="line"/>
			<point x="158" y="0" type="line"/>
			<point x="158" y="55" type="line"/>
			<point x="151" y="55" type="line"/>
			<point x="45" y="35" type="line"/>
		</contour>
		<contour>
			<point x="115" y="0" type="curve"/>
			<point x="201" y="0" type="line"/>
			<point x="199" y="45"/>
			<point x="198" y="146"/>
			<point x="198" y="210" type="curve" smooth="yes"/>
			<point x="198" y="264" type="line" smooth="yes"/>
			<point x="198" y="328"/>
			<point x="199" y="429"/>
			<point x="201" y="474" type="curve"/>
			<point x="115" y="474" type="line"/>
			<point x="117" y="429"/>
			<point x="118" y="328"/>
			<point x="118" y="264" type="curve" smooth="yes"/>
			<point x="118" y="210" type="line" smooth="yes"/>
			<point x="118" y="146"/>
			<point x="117" y="45"/>
		</contour>
		<contour>
			<point x="349" y="439" type="line"/>
			<point x="455" y="419" type="line"/>
			<point x="475" y="419" type="line"/>
			<point x="575" y="439" type="line"/>
			<point x="575" y="474" type="line"/>
			<point x="349" y="474" type="line"/>
		</contour>
		<contour>
			<point x="419" y="0" type="curve"/>
			<point x="505" y="0" type="line"/>
			<point x="503" y="45"/>
			<point x="502" y="146"/>
			<point x="502" y="210" type="curve" smooth="yes"/>
			<point x="502" y="264" type="line" smooth="yes"/>
			<point x="502" y="328"/>
			<point x="503" y="429"/>
			<point x="505" y="474" type="curve"/>
			<point x="419" y="474" type="line"/>
			<point x="421" y="429"/>
			<point x="422" y="328"/>
			<point x="422" y="264" type="curve" smooth="yes"/>
			<point x="422" y="210" type="line" smooth="yes"/>
			<point x="422" y="146"/>
			<point x="421" y="45"/>
		</contour>
		<contour>
			<point x="532" y="-150" type="line"/>
			<point x="577" y="-150" type="line"/>
			<point x="587" y="42" type="line"/>
			<point x="158" y="42" type="line"/>
			<point x="158" y="0" type="line"/>
			<point x="556" y="0" type="line"/>
			<point x="508" y="42" type="line"/>
		</contour>
	</outline>
	<anchor name="aboveLC" x="311" y="506"/>
</glyph>
<glyph name="che" format="1">
	<unicode hex="0447"/>
	<advance width="552"/>
	<outline>
		<contour>
			<point x="10" y="439" type="line"/>
			<point x="103" y="419" type="line"/>
			<point x="123" y="419" type="line"/>
			<point x="223" y="439" type="line"/>
			<point x="223" y="474" type="line"/>
			<point x="10" y="474" type="line"/>
		</contour>
		<contour>
			<point x="72" y="371" type="line" smooth="yes"/>
			<point x="72" y="245"/>
			<point x="113" y="186"/>
			<point x="247" y="186" type="curve" smooth="yes"/>
			<point x="298" y="186"/>
			<point x="345" y="196"/>
			<point x="394" y="210" type="curve"/>
			<point x="394" y="248" type="line"/>
			<point x="354" y="241"/>
			<point x="314" y="237"/>
			<point x="278" y="237" type="curve" smooth="yes"/>
			<point x="172" y="237"/>
			<point x="152" y="270"/>
			<point x="152" y="373" type="curve" smooth="yes"/>
			<point x="152" y="407"/>
			<point x="152" y="440"/>
			<point x="154" y="474" type="curve"/>
			<point x="72" y="474" type="line"/>
		</contour>
		<contour>
			<point x="281" y="0" type="line"/>
			<point x="507" y="0" type="line"/>
			<point x="507" y="35" type="line"/>
			<point x="401" y="55" type="line"/>
			<point x="381" y="55" type="line"/>
			<point x="281" y="35" type="line"/>
		</contour>
		<contour>
			<point x="281" y="439" type="line"/>
			<point x="387" y="419" type="line"/>
			<point x="407" y="419" type="line"/>
			<point x="507" y="439" type="line"/>
			<point x="507" y="474" type="line"/>
			<point x="281" y="474" type="line"/>
		</contour>
		<contour>
			<point x="351" y="0" type="curve"/>
			<point x="437" y="0" type="line"/>
			<point x="435" y="45"/>
			<point x="434" y="146"/>
			<point x="434" y="210" type="curve" smooth="yes"/>
			<point x="434" y="264" type="line" smooth="yes"/>
			<point x="434" y="328"/>
			<point x="435" y="429"/>
			<point x="437" y="474" type="curve"/>
			<point x="351" y="474" type="line"/>
			<point x="353" y="429"/>
			<point x="354" y="328"/>
			<point x="354" y="264" type="curve" smooth="yes"/>
			<point x="354" y="210" type="line" smooth="yes"/>
			<point x="354" y="146"/>
			<point x="353" y="45"/>
		</contour>
		<contour>
			<point name="aboveLC" x="254" y="506" type="move"/>
		</contour>
	</outline>
</glyph>
<glyph name="sha" format="2">
	<unicode hex="0448"/>
	<advance width="856"/>
	<outline>
		<contour>
			<point x="45" y="439" type="line"/>
			<point x="153" y="419" type="line"/>
			<point x="169" y="419" type="line"/>
			<point x="263" y="439" type="line"/>
			<point x="263" y="474" type="line"/>
			<point x="45" y="474" type="line"/>
		</contour>
		<contour>
			<point x="45" y="0" type="line"/>
			<point x="156" y="0" type="line"/>
			<point x="156" y="55" type="line"/>
			<point x="149" y="55" type="line"/>
			<point x="45" y="35" type="line"/>
		</contour>
		<contour>
			<point x="115" y="0" type="curve"/>
			<point x="197" y="0" type="line"/>
			<point x="195" y="45"/>
			<point x="194" y="146"/>
			<point x="194" y="210" type="curve" smooth="yes"/>
			<point x="194" y="264" type="line" smooth="yes"/>
			<point x="194" y="328"/>
			<point x="195" y="429"/>
			<point x="197" y="474" type="curve"/>
			<point x="115" y="474" type="line"/>
			<point x="117" y="429"/>
			<point x="118" y="328"/>
			<point x="118" y="264" type="curve" smooth="yes"/>
			<point x="118" y="210" type="line" smooth="yes"/>
			<point x="118" y="146"/>
			<point x="117" y="45"/>
		</contour>
		<contour>
			<point x="156" y="0" type="line"/>
			<point x="700" y="0" type="line"/>
			<point x="700" y="42" type="line"/>
			<point x="156" y="42" type="line"/>
		</contour>
		<contour>
			<point x="321" y="439" type="line"/>
			<point x="425" y="419" type="line"/>
			<point x="441" y="419" type="line"/>
			<point x="535" y="439" type="line"/>
			<point x="535" y="474" type="line"/>
			<point x="321" y="474" type="line"/>
		</contour>
		<contour>
			<point x="387" y="0" type="curve"/>
			<point x="469" y="0" type="line"/>
			<point x="467" y="45"/>
			<point x="466" y="146"/>
			<point x="466" y="210" type="curve" smooth="yes"/>
			<point x="466" y="264" type="line" smooth="yes"/>
			<point x="466" y="328"/>
			<point x="467" y="429"/>
			<point x="469" y="474" type="curve"/>
			<point x="387" y="474" type="line"/>
			<point x="389" y="429"/>
			<point x="390" y="328"/>
			<point x="390" y="264" type="curve" smooth="yes"/>
			<point x="390" y="210" type="line" smooth="yes"/>
			<point x="390" y="146"/>
			<point x="389" y="45"/>
		</contour>
		<contour>
			<point x="593" y="439" type="line"/>
			<point x="693" y="419" type="line"/>
			<point x="709" y="419" type="line"/>
			<point x="811" y="439" type="line"/>
			<point x="811" y="474" type="line"/>
			<point x="593" y="474" type="line"/>
		</contour>
		<contour>
			<point x="659" y="0" type="curve"/>
			<point x="741" y="0" type="line"/>
			<point x="739" y="45"/>
			<point x="738" y="146"/>
			<point x="738" y="210" type="curve" smooth="yes"/>
			<point x="738" y="264" type="line" smooth="yes"/>
			<point x="738" y="328"/>
			<point x="739" y="429"/>
			<point x="741" y="474" type="curve"/>
			<point x="659" y="474" type="line"/>
			<point x="661" y="429"/>
			<point x="662" y="328"/>
			<point x="662" y="264" type="curve" smooth="yes"/>
			<point x="662" y="210" type="line" smooth="yes"/>
			<point x="662" y="146"/>
			<point x="661" y="45"/>
		</contour>
		<contour>
			<point x="700" y="0" type="line"/>
			<point x="811" y="0" type="line"/>
			<point x="811" y="35" type="line"/>
			<point x="709" y="55" type="line"/>
			<point x="700" y="55" type="line"/>
		</contour>
	</outline>
</glyph>
<glyph name="shcha" format="2">
	<unicode hex="0449"/>
	<advance width="856"/>
	<outline>
		<contour>
			<point x="45" y="0" type="line"/>
			<point x="158" y="0" type="line"/>
			<point x="158" y="55" type="line"/>
			<point x="151" y="55" type="line"/>
			<point x="45" y="35" type="line"/>
		</contour>
		<contour>
			<point x="45" y="439" type="line"/>
			<point x="151" y="419" type="line"/>
			<point x="171" y="419" type="line"/>
			<point x="263" y="439" type="line"/>
			<point x="263" y="474" type="line"/>
			<point x="45" y="474" type="line"/>
		</contour>
		<contour>
			<point x="115" y="0" type="curve"/>
			<point x="197" y="0" type="line"/>
			<point x="195" y="45"/>
			<point x="194" y="146"/>
			<point x="194" y="210" type="curve" smooth="yes"/>
			<point x="194" y="264" type="line" smooth="yes"/>
			<point x="194" y="328"/>
			<point x="195" y="429"/>
			<point x="197" y="474" type="curve"/>
			<point x="115" y="474" type="line"/>
			<point x="117" y="429"/>
			<point x="118" y="328"/>
			<point x="118" y="264" type="curve" smooth="yes"/>
			<point x="118" y="210" type="line" smooth="yes"/>
			<point x="118" y="146"/>
			<point x="117" y="45"/>
		</contour>
		<contour>
			<point x="321" y="439" type="line"/>
			<point x="421" y="419" type="line"/>
			<point x="441" y="419" type="line"/>
			<point x="535" y="439" type="line"/>
			<point x="535" y="474" type="line"/>
			<point x="321" y="474" type="line"/>
		</contour>
		<contour>
			<point x="387" y="0" type="curve"/>
			<point x="469" y="0" type="line"/>
			<point x="467" y="45"/>
			<point x="466" y="146"/>
			<point x="466" y="210" type="curve" smooth="yes"/>
			<point x="466" y="264" type="line" smooth="yes"/>
			<point x="466" y="328"/>
			<point x="467" y="429"/>
			<point x="469" y="474" type="curve"/>
			<point x="387" y="474" type="line"/>
			<point x="389" y="429"/>
			<point x="390" y="328"/>
			<point x="390" y="264" type="curve" smooth="yes"/>
			<point x="390" y="210" type="line" smooth="yes"/>
			<point x="390" y="146"/>
			<point x="389" y="45"/>
		</contour>
		<contour>
			<point x="593" y="439" type="line"/>
			<point x="691" y="419" type="line"/>
			<point x="711" y="419" type="line"/>
			<point x="811" y="439" type="line"/>
			<point x="811" y="474" type="line"/>
			<point x="593" y="474" type="line"/>
		</contour>
		<contour>
			<point x="659" y="0" type="curve"/>
			<point x="741" y="0" type="line"/>
			<point x="739" y="45"/>
			<point x="738" y="146"/>
			<point x="738" y="210" type="curve" smooth="yes"/>
			<point x="738" y="264" type="line" smooth="yes"/>
			<point x="738" y="328"/>
			<point x="739" y="429"/>
			<point x="741" y="474" type="curve"/>
			<point x="659" y="474" type="line"/>
			<point x="661" y="429"/>
			<point x="662" y="328"/>
			<point x="662" y="264" type="curve" smooth="yes"/>
			<point x="662" y="210" type="line" smooth="yes"/>
			<point x="662" y="146"/>
			<point x="661" y="45"/>
		</contour>
		<contour>
			<point x="766" y="-150" type="line"/>
			<point x="811" y="-150" type="line"/>
			<point x="821" y="42" type="line"/>
			<point x="158" y="42" type="line"/>
			<point x="158" y="0" type="line"/>
			<point x="788" y="0" type="line"/>
			<point x="742" y="42" type="line"/>
		</contour>
	</outline>
</glyph>
<glyph name="yeru" format="2">
	<unicode hex="044B"/>
	<advance width="746"/>
	<outline>
		<contour>
			<point x="475" y="0" type="line"/>
			<point x="701" y="0" type="line"/>
			<point x="701" y="35" type="line"/>
			<point x="601" y="55" type="line"/>
			<point x="581" y="55" type="line"/>
			<point x="475" y="35" type="line"/>
		</contour>
		<contour>
			<point x="475" y="439" type="line"/>
			<point x="581" y="419" type="line"/>
			<point x="601" y="419" type="line"/>
			<point x="701" y="439" type="line"/>
			<point x="701" y="474" type="line"/>
			<point x="475" y="474" type="line"/>
		</contour>
		<contour>
			<point x="545" y="0" type="curve"/>
			<point x="631" y="0" type="line"/>
			<point x="629" y="45"/>
			<point x="628" y="146"/>
			<point x="628" y="210" type="curve" smooth="yes"/>
			<point x="628" y="264" type="line" smooth="yes"/>
			<point x="628" y="328"/>
			<point x="629" y="429"/>
			<point x="631" y="474" type="curve"/>
			<point x="545" y="474" type="line"/>
			<point x="547" y="429"/>
			<point x="548" y="328"/>
			<point x="548" y="264" type="curve" smooth="yes"/>
			<point x="548" y="210" type="line" smooth="yes"/>
			<point x="548" y="146"/>
			<point x="547" y="45"/>
		</contour>
		<contour>
			<point x="45" y="0" type="line"/>
			<point x="158" y="0" type="line"/>
			<point x="158" y="55" type="line"/>
			<point x="151" y="55" type="line"/>
			<point x="45" y="35" type="line"/>
		</contour>
		<contour>
			<point x="45" y="439" type="line"/>
			<point x="151" y="419" type="line"/>
			<point x="171" y="419" type="line"/>
			<point x="271" y="439" type="line"/>
			<point x="271" y="474" type="line"/>
			<point x="45" y="474" type="line"/>
		</contour>
		<contour>
			<point x="115" y="0" type="curve"/>
			<point x="201" y="0" type="line"/>
			<point x="199" y="45"/>
			<point x="198" y="146"/>
			<point x="198" y="210" type="curve" smooth="yes"/>
			<point x="198" y="262" type="line" smooth="yes"/>
			<point x="198" y="326"/>
			<point x="199" y="429"/>
			<point x="201" y="474" type="curve"/>
			<point x="115" y="474" type="line"/>
			<point x="117" y="429"/>
			<point x="118" y="328"/>
			<point x="118" y="264" type="curve" smooth="yes"/>
			<point x="118" y="210" type="line" smooth="yes"/>
			<point x="118" y="146"/>
			<point x="117" y="45"/>
		</contour>
		<contour>
			<point x="153" y="0" type="line"/>
			<point x="274" y="0" type="line" smooth="yes"/>
			<point x="401" y="0"/>
			<point x="467" y="68"/>
			<point x="467" y="150" type="curve" smooth="yes"/>
			<point x="467" y="231"/>
			<point x="406" y="297"/>
			<point x="279" y="297" type="curve" smooth="yes"/>
			<point x="239" y="297"/>
			<point x="191" y="292"/>
			<point x="152" y="284" type="curve"/>
			<point x="152" y="237" type="line"/>
			<point x="185" y="245"/>
			<point x="226" y="250"/>
			<point x="259" y="250" type="curve" smooth="yes"/>
			<point x="349" y="250"/>
			<point x="383" y="218"/>
			<point x="383" y="146" type="curve" smooth="yes"/>
			<point x="383" y="76"/>
			<point x="339" y="42"/>
			<point x="261" y="42" type="curve" smooth="yes"/>
			<point x="153" y="42" type="line"/>
		</contour>
	</outline>
	<anchor name="aboveLC" x="374" y="496"/>
</glyph>
<glyph name="yu" format="2">
	<unicode hex="044E"/>
	<advance width="798"/>
	<outline>
		<contour>
			<point x="45" y="0" type="line"/>
			<point x="271" y="0" type="line"/>
			<point x="271" y="35" type="line"/>
			<point x="171" y="55" type="line"/>
			<point x="151" y="55" type="line"/>
			<point x="45" y="35" type="line"/>
		</contour>
		<contour>
			<point x="45" y="439" type="line"/>
			<point x="151" y="419" type="line"/>
			<point x="171" y="419" type="line"/>
			<point x="271" y="439" type="line"/>
			<point x="271" y="474" type="line"/>
			<point x="45" y="474" type="line"/>
		</contour>
		<contour>
			<point x="115" y="0" type="curve"/>
			<point x="201" y="0" type="line"/>
			<point x="199" y="45"/>
			<point x="198" y="146"/>
			<point x="198" y="235" type="curve" smooth="yes"/>
			<point x="198" y="264" type="line" smooth="yes"/>
			<point x="198" y="328"/>
			<point x="199" y="429"/>
			<point x="201" y="474" type="curve"/>
			<point x="115" y="474" type="line"/>
			<point x="117" y="429"/>
			<point x="118" y="328"/>
			<point x="118" y="264" type="curve" smooth="yes"/>
			<point x="118" y="210" type="line" smooth="yes"/>
			<point x="118" y="146"/>
			<point x="117" y="45"/>
		</contour>
		<contour>
			<point x="158" y="227" type="line"/>
			<point x="359" y="227" type="line"/>
			<point x="359" y="269" type="line"/>
			<point x="158" y="269" type="line"/>
		</contour>
		<contour>
			<point x="534" y="-13" type="curve" smooth="yes"/>
			<point x="652" y="-13"/>
			<point x="752" y="76"/>
			<point x="752" y="235" type="curve" smooth="yes"/>
			<point x="752" y="394"/>
			<point x="652" y="487"/>
			<point x="534" y="487" type="curve" smooth="yes"/>
			<point x="416" y="487"/>
			<point x="314" y="394"/>
			<point x="314" y="235" type="curve" smooth="yes"/>
			<point x="314" y="76"/>
			<point x="416" y="-13"/>
		</contour>
		<contour>
			<point x="534" y="32" type="curve" smooth="yes"/>
			<point x="446" y="32"/>
			<point x="400" y="103"/>
			<point x="400" y="235" type="curve" smooth="yes"/>
			<point x="400" y="367"/>
			<point x="449" y="442"/>
			<point x="534" y="442" type="curve" smooth="yes"/>
			<point x="618" y="442"/>
			<point x="662" y="362"/>
			<point x="662" y="235" type="curve" smooth="yes"/>
			<point x="662" y="108"/>
			<point x="621" y="32"/>
		</contour>
	</outline>
	<anchor name="aboveLC" x="388" y="506"/>
</glyph>
